<svg width="30" height="30" viewBox="0 0 30 30" fill="none" xmlns="http://www.w3.org/2000/svg">
<mask id="path-1-inside-1" fill="white">
<path d="M24.375 2.8125V27.1875C24.375 28.7408 23.1158 30 21.5625 30H8.4375C6.88418 30 5.625 28.7408 5.625 27.1875V2.8125C5.625 1.25918 6.88418 0 8.4375 0H21.5625C23.1158 0 24.375 1.25918 24.375 2.8125ZM30 6.21094V6.91406C30 7.0073 29.963 7.09672 29.897 7.16265C29.8311 7.22859 29.7417 7.26562 29.6484 7.26562H28.5938V7.61719C28.5938 7.71043 28.5567 7.79985 28.4908 7.86578C28.4248 7.93171 28.3354 7.96875 28.2422 7.96875H25.7812V5.15625H28.2422C28.3354 5.15625 28.4248 5.19329 28.4908 5.25922C28.5567 5.32515 28.5938 5.41457 28.5938 5.50781V5.85938H29.6484C29.7417 5.85937 29.8311 5.89641 29.897 5.96235C29.963 6.02828 30 6.1177 30 6.21094ZM30 11.8359V12.5391C30 12.6323 29.963 12.7217 29.897 12.7877C29.8311 12.8536 29.7417 12.8906 29.6484 12.8906H28.5938V13.2422C28.5938 13.3354 28.5567 13.4248 28.4908 13.4908C28.4248 13.5567 28.3354 13.5938 28.2422 13.5938H25.7812V10.7812H28.2422C28.3354 10.7812 28.4248 10.8183 28.4908 10.8842C28.5567 10.9502 28.5938 11.0396 28.5938 11.1328V11.4844H29.6484C29.7417 11.4844 29.8311 11.5214 29.897 11.5873C29.963 11.6533 30 11.7427 30 11.8359ZM30 17.4609V18.1641C30 18.2573 29.963 18.3467 29.897 18.4127C29.8311 18.4786 29.7417 18.5156 29.6484 18.5156H28.5938V18.8672C28.5938 18.9604 28.5567 19.0498 28.4908 19.1158C28.4248 19.1817 28.3354 19.2188 28.2422 19.2188H25.7812V16.4062H28.2422C28.3354 16.4062 28.4248 16.4433 28.4908 16.5092C28.5567 16.5752 28.5938 16.6646 28.5938 16.7578V17.1094H29.6484C29.7417 17.1094 29.8311 17.1464 29.897 17.2123C29.963 17.2783 30 17.3677 30 17.4609ZM30 23.0859V23.7891C30 23.8823 29.963 23.9717 29.897 24.0377C29.8311 24.1036 29.7417 24.1406 29.6484 24.1406H28.5938V24.4922C28.5938 24.5854 28.5567 24.6748 28.4908 24.7408C28.4248 24.8067 28.3354 24.8438 28.2422 24.8438H25.7812V22.0312H28.2422C28.3354 22.0312 28.4248 22.0683 28.4908 22.1342C28.5567 22.2002 28.5938 22.2896 28.5938 22.3828V22.7344H29.6484C29.7417 22.7344 29.8311 22.7714 29.897 22.8373C29.963 22.9033 30 22.9927 30 23.0859ZM1.75781 22.0312H4.21875V24.8438H1.75781C1.66457 24.8437 1.57515 24.8067 1.50922 24.7408C1.44329 24.6748 1.40625 24.5854 1.40625 24.4922V24.1406H0.351562C0.258322 24.1406 0.168901 24.1036 0.10297 24.0377C0.0370395 23.9717 0 23.8823 0 23.7891L0 23.0859C0 22.9927 0.0370395 22.9033 0.10297 22.8373C0.168901 22.7714 0.258322 22.7344 0.351562 22.7344H1.40625V22.3828C1.40625 22.2896 1.44329 22.2002 1.50922 22.1342C1.57515 22.0683 1.66457 22.0312 1.75781 22.0312ZM1.75781 16.4062H4.21875V19.2188H1.75781C1.66457 19.2188 1.57515 19.1817 1.50922 19.1158C1.44329 19.0498 1.40625 18.9604 1.40625 18.8672V18.5156H0.351562C0.258322 18.5156 0.168901 18.4786 0.10297 18.4127C0.0370395 18.3467 0 18.2573 0 18.1641L0 17.4609C0 17.3677 0.0370395 17.2783 0.10297 17.2123C0.168901 17.1464 0.258322 17.1094 0.351562 17.1094H1.40625V16.7578C1.40625 16.6646 1.44329 16.5752 1.50922 16.5092C1.57515 16.4433 1.66457 16.4062 1.75781 16.4062ZM1.75781 10.7812H4.21875V13.5938H1.75781C1.66457 13.5938 1.57515 13.5567 1.50922 13.4908C1.44329 13.4248 1.40625 13.3354 1.40625 13.2422V12.8906H0.351562C0.258322 12.8906 0.168901 12.8536 0.10297 12.7877C0.0370395 12.7217 0 12.6323 0 12.5391L0 11.8359C0 11.7427 0.0370395 11.6533 0.10297 11.5873C0.168901 11.5214 0.258322 11.4844 0.351562 11.4844H1.40625V11.1328C1.40625 11.0396 1.44329 10.9502 1.50922 10.8842C1.57515 10.8183 1.66457 10.7812 1.75781 10.7812ZM1.75781 5.15625H4.21875V7.96875H1.75781C1.66457 7.96875 1.57515 7.93171 1.50922 7.86578C1.44329 7.79985 1.40625 7.71043 1.40625 7.61719V7.26562H0.351562C0.258322 7.26562 0.168901 7.22859 0.10297 7.16265C0.0370395 7.09672 0 7.0073 0 6.91406L0 6.21094C0 6.1177 0.0370395 6.02828 0.10297 5.96235C0.168901 5.89641 0.258322 5.85938 0.351562 5.85938H1.40625V5.50781C1.40625 5.41457 1.44329 5.32515 1.50922 5.25922C1.57515 5.19329 1.66457 5.15625 1.75781 5.15625Z"/>
</mask>
<path d="M24.375 2.8125V27.1875C24.375 28.7408 23.1158 30 21.5625 30H8.4375C6.88418 30 5.625 28.7408 5.625 27.1875V2.8125C5.625 1.25918 6.88418 0 8.4375 0H21.5625C23.1158 0 24.375 1.25918 24.375 2.8125ZM30 6.21094V6.91406C30 7.0073 29.963 7.09672 29.897 7.16265C29.8311 7.22859 29.7417 7.26562 29.6484 7.26562H28.5938V7.61719C28.5938 7.71043 28.5567 7.79985 28.4908 7.86578C28.4248 7.93171 28.3354 7.96875 28.2422 7.96875H25.7812V5.15625H28.2422C28.3354 5.15625 28.4248 5.19329 28.4908 5.25922C28.5567 5.32515 28.5938 5.41457 28.5938 5.50781V5.85938H29.6484C29.7417 5.85937 29.8311 5.89641 29.897 5.96235C29.963 6.02828 30 6.1177 30 6.21094ZM30 11.8359V12.5391C30 12.6323 29.963 12.7217 29.897 12.7877C29.8311 12.8536 29.7417 12.8906 29.6484 12.8906H28.5938V13.2422C28.5938 13.3354 28.5567 13.4248 28.4908 13.4908C28.4248 13.5567 28.3354 13.5938 28.2422 13.5938H25.7812V10.7812H28.2422C28.3354 10.7812 28.4248 10.8183 28.4908 10.8842C28.5567 10.9502 28.5938 11.0396 28.5938 11.1328V11.4844H29.6484C29.7417 11.4844 29.8311 11.5214 29.897 11.5873C29.963 11.6533 30 11.7427 30 11.8359ZM30 17.4609V18.1641C30 18.2573 29.963 18.3467 29.897 18.4127C29.8311 18.4786 29.7417 18.5156 29.6484 18.5156H28.5938V18.8672C28.5938 18.9604 28.5567 19.0498 28.4908 19.1158C28.4248 19.1817 28.3354 19.2188 28.2422 19.2188H25.7812V16.4062H28.2422C28.3354 16.4062 28.4248 16.4433 28.4908 16.5092C28.5567 16.5752 28.5938 16.6646 28.5938 16.7578V17.1094H29.6484C29.7417 17.1094 29.8311 17.1464 29.897 17.2123C29.963 17.2783 30 17.3677 30 17.4609ZM30 23.0859V23.7891C30 23.8823 29.963 23.9717 29.897 24.0377C29.8311 24.1036 29.7417 24.1406 29.6484 24.1406H28.5938V24.4922C28.5938 24.5854 28.5567 24.6748 28.4908 24.7408C28.4248 24.8067 28.3354 24.8438 28.2422 24.8438H25.7812V22.0312H28.2422C28.3354 22.0312 28.4248 22.0683 28.4908 22.1342C28.5567 22.2002 28.5938 22.2896 28.5938 22.3828V22.7344H29.6484C29.7417 22.7344 29.8311 22.7714 29.897 22.8373C29.963 22.9033 30 22.9927 30 23.0859ZM1.75781 22.0312H4.21875V24.8438H1.75781C1.66457 24.8437 1.57515 24.8067 1.50922 24.7408C1.44329 24.6748 1.40625 24.5854 1.40625 24.4922V24.1406H0.351562C0.258322 24.1406 0.168901 24.1036 0.10297 24.0377C0.0370395 23.9717 0 23.8823 0 23.7891L0 23.0859C0 22.9927 0.0370395 22.9033 0.10297 22.8373C0.168901 22.7714 0.258322 22.7344 0.351562 22.7344H1.40625V22.3828C1.40625 22.2896 1.44329 22.2002 1.50922 22.1342C1.57515 22.0683 1.66457 22.0312 1.75781 22.0312ZM1.75781 16.4062H4.21875V19.2188H1.75781C1.66457 19.2188 1.57515 19.1817 1.50922 19.1158C1.44329 19.0498 1.40625 18.9604 1.40625 18.8672V18.5156H0.351562C0.258322 18.5156 0.168901 18.4786 0.10297 18.4127C0.0370395 18.3467 0 18.2573 0 18.1641L0 17.4609C0 17.3677 0.0370395 17.2783 0.10297 17.2123C0.168901 17.1464 0.258322 17.1094 0.351562 17.1094H1.40625V16.7578C1.40625 16.6646 1.44329 16.5752 1.50922 16.5092C1.57515 16.4433 1.66457 16.4062 1.75781 16.4062ZM1.75781 10.7812H4.21875V13.5938H1.75781C1.66457 13.5938 1.57515 13.5567 1.50922 13.4908C1.44329 13.4248 1.40625 13.3354 1.40625 13.2422V12.8906H0.351562C0.258322 12.8906 0.168901 12.8536 0.10297 12.7877C0.0370395 12.7217 0 12.6323 0 12.5391L0 11.8359C0 11.7427 0.0370395 11.6533 0.10297 11.5873C0.168901 11.5214 0.258322 11.4844 0.351562 11.4844H1.40625V11.1328C1.40625 11.0396 1.44329 10.9502 1.50922 10.8842C1.57515 10.8183 1.66457 10.7812 1.75781 10.7812ZM1.75781 5.15625H4.21875V7.96875H1.75781C1.66457 7.96875 1.57515 7.93171 1.50922 7.86578C1.44329 7.79985 1.40625 7.71043 1.40625 7.61719V7.26562H0.351562C0.258322 7.26562 0.168901 7.22859 0.10297 7.16265C0.0370395 7.09672 0 7.0073 0 6.91406L0 6.21094C0 6.1177 0.0370395 6.02828 0.10297 5.96235C0.168901 5.89641 0.258322 5.85938 0.351562 5.85938H1.40625V5.50781C1.40625 5.41457 1.44329 5.32515 1.50922 5.25922C1.57515 5.19329 1.66457 5.15625 1.75781 5.15625Z" stroke="#FFD600" mask="url(#path-1-inside-1)"/>
<rect x="0.5" y="0.5" width="29" height="29" stroke="#FFD600"/>
</svg>
