<svg width="40" height="27" viewBox="0 0 40 27" fill="none" xmlns="http://www.w3.org/2000/svg">
<path d="M29.968 18.5634C29.1891 18.5634 28.4156 18.4552 27.6691 18.2335C25.6569 17.7683 23.807 16.7081 22.1734 15.0853C21.3512 14.2686 20.5886 13.3057 19.9178 12.2401C19.1497 13.3977 18.3005 14.5282 17.2782 15.5397C16.2072 16.7135 14.8008 17.579 13.1997 18.0333C11.7176 18.4606 10.0949 18.5364 8.50998 18.2551C6.91969 17.9738 5.41595 17.341 4.16644 16.4268C2.81416 15.4369 1.78102 14.1333 1.18061 12.6566C0.563965 11.2665 0.358415 9.70867 0.596417 8.13462C0.812782 6.69038 1.39156 5.26778 2.27325 4.01827C3.16034 2.76335 4.31249 1.73021 5.60527 1.03243C7.00083 0.280558 8.53702 -0.0548083 10.0462 0.0479652C10.8846 0.0533743 11.6797 0.134512 12.4046 0.302195L12.4154 0.307604C14.4546 0.789016 16.2775 1.87625 17.9814 3.63422C18.7495 4.42395 19.4256 5.28941 20.0152 6.13324C21.2052 4.38068 22.5845 2.73089 24.521 1.4922C25.8408 0.599697 27.4203 0.0858293 29.0971 0.0101014C30.6549 -0.0602173 32.2615 0.237285 33.7382 0.880972C36.8105 2.21162 38.9255 4.79718 39.3961 7.79384C39.6449 9.32463 39.4448 10.9311 38.8173 12.4403C38.2386 13.8304 37.3136 15.107 36.1398 16.1347C34.3278 17.7196 32.1371 18.5634 29.968 18.5634ZM21.8435 9.16776C22.7576 10.996 24.8726 14.3335 28.4264 15.134L28.4805 15.1448L28.5346 15.1611C30.3358 15.7074 32.3913 15.1719 34.0411 13.7277C35.7125 12.2618 36.5617 10.1793 36.248 8.29689V8.28607C35.9505 6.37124 34.5387 4.69982 32.4724 3.8019C30.3304 2.87153 27.9612 3.00135 26.2952 4.13727L26.2519 4.16431C24.375 5.36514 23.093 7.18261 21.8435 9.16776ZM9.49985 3.22313C7.77975 3.22313 6.038 4.20759 4.87504 5.85737C3.62553 7.63157 3.33884 9.69244 4.09612 11.3747L4.12317 11.4342C4.88045 13.322 6.73037 14.7013 9.06171 15.1124C11.3822 15.5235 13.5783 14.869 14.936 13.3652L14.9685 13.3274L15.0063 13.2949C16.2234 12.1049 17.1754 10.6445 18.1436 9.08662C16.5425 6.53351 14.5249 4.08859 11.6905 3.41785C11.1821 3.30426 10.6141 3.24476 9.99749 3.24476C9.99208 3.24476 9.99208 3.24476 9.98667 3.24476H9.92175L9.85684 3.23935C9.73784 3.22853 9.61885 3.22313 9.49985 3.22313Z" fill="#00979C"/>
<path d="M13.4431 8.27527H6.95215V9.62755H13.4431V8.27527Z" fill="#00979C"/>
<path d="M30.3736 11.656H28.6427V9.81685H26.8577V8.08593H28.6427V6.24683H30.3736V8.08593H32.2668V9.81685H30.3736V11.656Z" fill="#00979C"/>
<path d="M5.11312 26.2607L4.76693 25.0166H2.57083L2.21382 26.2607H1.04004L2.90078 19.9698H4.55597L6.41672 26.2607H5.11312ZM3.68511 21.122L2.85751 24.0483H4.50188L3.68511 21.122Z" fill="#00979C"/>
<path d="M10.3058 26.2606C9.97041 25.5249 9.6729 24.7676 9.3159 24.0428C9.11035 23.7291 8.70467 23.6101 8.34226 23.6588C8.28816 23.8697 8.32603 24.1023 8.31521 24.3187C8.31521 24.9678 8.31521 25.6115 8.31521 26.2606C7.92034 26.2606 7.52548 26.2606 7.13062 26.2606C7.13062 24.1618 7.13062 22.0685 7.13062 19.9697C8.02312 19.9914 8.91562 19.9156 9.80272 20.0346C10.3815 20.1266 10.9873 20.4674 11.155 21.0624C11.366 21.7007 11.2632 22.5228 10.6898 22.9448C10.4626 23.1179 10.1976 23.226 9.91632 23.2639C10.2679 23.4045 10.4843 23.7345 10.6357 24.0645C10.9711 24.7081 11.2578 25.3789 11.5823 26.0226C11.7392 26.1794 11.6472 26.3092 11.4579 26.2606C11.0739 26.2606 10.6898 26.2606 10.3058 26.2606ZM10.0137 21.8197C10.057 21.4194 9.7324 21.0353 9.33213 21.0029C8.99676 20.9326 8.65598 20.965 8.31521 20.9542C8.31521 21.5492 8.31521 22.1388 8.31521 22.7338C8.81285 22.7284 9.39163 22.7879 9.78109 22.4093C9.93795 22.2578 10.0191 22.036 10.0137 21.8197Z" fill="#00979C"/>
<path d="M17.1755 23.0152C17.1755 23.8969 16.9808 24.8651 16.3046 25.4872C15.661 26.093 14.7306 26.2607 13.8759 26.239C13.3891 26.239 12.9077 26.239 12.4209 26.239C12.4209 24.1403 12.4209 22.047 12.4209 19.9482C13.1565 19.9536 13.8976 19.9374 14.6332 19.959C15.3635 19.9969 16.1424 20.2457 16.5967 20.8569C17.0673 21.4682 17.1701 22.2687 17.1755 23.0152ZM15.9044 23.0909C15.8936 22.4743 15.8503 21.7711 15.3797 21.3167C14.9848 20.9435 14.4169 20.9273 13.903 20.9381C13.8056 20.9381 13.7029 20.9381 13.6055 20.9381C13.6055 22.3715 13.6055 23.8103 13.6055 25.2492C14.1464 25.2492 14.736 25.2924 15.1958 24.9571C15.7908 24.546 15.9044 23.7616 15.9044 23.0909Z" fill="#00979C"/>
<path d="M22.5844 23.9347C22.6007 24.6974 22.3464 25.5358 21.6865 25.9794C20.9238 26.4608 19.9448 26.4554 19.1118 26.1741C18.4843 25.9253 18.0678 25.287 18.0353 24.6217C17.9542 23.8644 18.0191 23.1071 17.9975 22.3499C17.9975 21.5493 17.9975 20.7542 17.9975 19.9536C18.3923 19.9536 18.7872 19.9536 19.1821 19.9536C19.1929 21.4519 19.1604 22.9503 19.2037 24.4432C19.247 24.8651 19.5337 25.3032 19.9826 25.3465C20.437 25.4493 21.0266 25.3519 21.2376 24.8867C21.4918 24.3404 21.3728 23.7238 21.3998 23.1396C21.3998 22.0794 21.3998 21.0138 21.3998 19.9536C21.7947 19.9536 22.1896 19.9536 22.5844 19.9536C22.5844 21.2843 22.5952 22.6149 22.5844 23.9347Z" fill="#00979C"/>
<path d="M23.7205 20.9056V19.9374H27.6962V20.9056H26.3114V25.2546H27.6962V26.2336H23.7205V25.2546H25.1052V20.9056H23.7205Z" fill="#00979C"/>
<path d="M32.1046 26.2607C31.4285 24.7407 30.7307 23.2261 30.0708 21.6954C30.0708 23.2153 30.0708 24.7407 30.0708 26.2607C29.7138 26.2607 29.3514 26.2607 28.9944 26.2607C28.9944 24.1619 28.9944 22.0686 28.9944 19.9698C29.4812 19.9698 29.9626 19.9698 30.4494 19.9698C31.0877 21.4033 31.7693 22.815 32.3805 24.2647C32.4184 24.4216 32.5049 24.5081 32.4725 24.2972C32.4725 22.8529 32.4725 21.4141 32.4725 19.9698C32.8295 19.9698 33.1919 19.9698 33.5489 19.9698C33.5489 22.0686 33.5489 24.1619 33.5489 26.2607C33.0675 26.2607 32.586 26.2607 32.1046 26.2607Z" fill="#00979C"/>
<path d="M39.2988 23.0692C39.3042 24.0049 39.1095 25.0273 38.4171 25.7088C37.7139 26.3958 36.5943 26.5094 35.7017 26.1686C34.9499 25.8819 34.5117 25.1192 34.3549 24.3565C34.1872 23.5181 34.1818 22.6364 34.3873 21.8034C34.5821 21.0299 35.0851 20.2889 35.8586 20.0076C36.5834 19.748 37.4381 19.775 38.1142 20.1591C38.8499 20.5972 39.1582 21.4681 39.2501 22.2794C39.288 22.5445 39.2988 22.8095 39.2988 23.0692ZM38.0493 23.1287C38.0331 22.5066 38.0169 21.8305 37.649 21.3058C37.3191 20.8731 36.6483 20.8081 36.1886 21.057C35.6747 21.3707 35.5557 22.0252 35.507 22.5823C35.4746 23.2909 35.4637 24.0482 35.7721 24.7027C35.956 25.1138 36.4158 25.3248 36.8539 25.2815C37.3029 25.2815 37.6923 24.957 37.8384 24.5404C38.0114 24.0915 38.0439 23.6047 38.0493 23.1287Z" fill="#00979C"/>
<path d="M37.1567 0.751099C37.1567 0.794372 37.1567 0.837645 37.1567 0.875509C37.2487 0.875509 37.3407 0.875509 37.438 0.875509C37.438 1.11892 37.438 1.36233 37.438 1.61115C37.4867 1.61115 37.5354 1.61115 37.5841 1.61115C37.5841 1.36774 37.5841 1.12433 37.5841 0.875509C37.676 0.875509 37.7734 0.875509 37.8653 0.875509C37.8653 0.832236 37.8653 0.788963 37.8653 0.751099C37.6273 0.751099 37.3893 0.751099 37.1567 0.751099ZM37.9573 0.751099C37.9573 1.03778 37.9573 1.32447 37.9573 1.61115C38.0006 1.61115 38.0438 1.61115 38.0871 1.61115C38.0871 1.36774 38.0871 1.12433 38.0871 0.875509C38.1628 1.11892 38.244 1.36233 38.3197 1.61115C38.363 1.61115 38.4063 1.61115 38.4495 1.61115C38.5253 1.37315 38.5956 1.12974 38.6713 0.891736C38.6713 1.12974 38.6713 1.37315 38.6713 1.61115C38.7146 1.61115 38.7578 1.61115 38.8011 1.61115C38.8011 1.32447 38.8011 1.03778 38.8011 0.751099C38.7308 0.751099 38.6659 0.751099 38.5956 0.751099C38.5253 0.978282 38.4549 1.21088 38.3846 1.43806C38.3143 1.21088 38.2386 0.978282 38.1683 0.751099C38.0979 0.751099 38.0276 0.751099 37.9573 0.751099Z" fill="#00979C"/>
</svg>
