<svg width="40" height="39" viewBox="0 0 40 39" fill="none" xmlns="http://www.w3.org/2000/svg">
<path d="M20.0194 37.252C29.9636 37.252 38.0239 29.2306 38.0239 19.3252C38.0239 9.41984 29.9636 1.39844 20.0194 1.39844C10.0752 1.39844 2.01489 9.41984 2.01489 19.3252C2.01489 29.2306 10.0752 37.252 20.0194 37.252Z" fill="#FCC415"/>
<path d="M20 38.8058C9.25945 38.8058 0.5 30.1046 0.5 19.4029C0.5 8.7012 9.24002 0 20 0C30.76 0 39.5 8.7012 39.5 19.4029C39.5 30.1046 30.76 38.8058 20 38.8058ZM20 1.63148C10.1723 1.63148 2.17031 9.61405 2.17031 19.4029C2.17031 29.1917 10.1723 37.1743 20 37.1743C29.8277 37.1743 37.8491 29.1917 37.8491 19.4029C37.8491 9.61405 29.8471 1.63148 20 1.63148Z" fill="#333333"/>
<path fill-rule="evenodd" clip-rule="evenodd" d="M22.9328 14.2948C21.7481 13.751 21.0683 12.4691 21.2819 11.1873C22.4667 11.7311 23.1465 13.013 22.9328 14.2948Z" fill="#333333"/>
<path fill-rule="evenodd" clip-rule="evenodd" d="M16.1155 25.0937C16.3097 25.7152 16.601 26.3173 17.0089 26.8417H23.1464C23.5542 26.3173 23.865 25.7346 24.0398 25.0937H16.1155ZM29.0508 18.8203C28.8565 18.9951 28.8565 19.3058 29.0313 19.5L29.109 19.5583C31.8864 17.1888 33.5762 15.3631 32.741 13.9258C31.8281 12.644 27.9437 13.2655 23.1852 15.3825C23.4377 14.897 23.5348 14.3725 23.5348 13.8481C23.5348 13.6539 23.5154 13.4597 23.4765 13.2655C23.36 12.5857 23.0298 11.9253 22.5248 11.4204C22.2335 11.129 21.9033 10.896 21.5732 10.7406L21.5926 10.7017L21.9616 9.90541C22.0199 9.78887 21.9616 9.63351 21.8451 9.55582C21.7285 9.49755 21.5732 9.55581 21.4955 9.67235L21.107 10.5269C20.4467 10.3327 19.7475 10.3327 19.0871 10.5269L18.6986 9.67235C18.6404 9.55581 18.485 9.49755 18.349 9.55582C18.2325 9.61409 18.1742 9.76945 18.2325 9.90541L18.5821 10.6629L18.6015 10.7212C18.2519 10.8765 17.9412 11.1096 17.6498 11.4009C16.9506 12.1001 16.6205 12.9935 16.6399 13.9064C16.6593 14.392 16.7564 14.8775 16.9895 15.3242C15.7659 14.7804 8.92921 11.9642 7.56965 13.887C6.32662 15.635 10.1528 18.6843 11.1822 19.5583L11.2405 19.5C11.4153 19.3058 11.3959 18.9951 11.2211 18.8203C10.7161 18.3347 9.93918 17.5772 9.37594 16.8197C8.65731 15.8292 8.63789 15.2466 8.98749 14.9164C10.0751 13.887 14.115 15.2465 15.358 15.7127C16.5622 16.1788 17.8635 16.7615 19.1842 17.4607C12.7943 21.1509 8.44367 25.5404 9.47305 27.3272C10.114 28.4343 12.7943 28.2983 16.2126 27.0747L16.0961 26.8611C15.9795 26.6669 15.7464 26.5698 15.5328 26.6475C13.1633 27.3661 11.6678 27.7157 11.1434 26.9388C10.4247 25.6958 14.0567 21.4423 19.7086 18.2182L20.1359 17.9657C20.2719 18.0434 20.4272 18.1211 20.5632 18.2182C26.1957 21.4617 29.8471 25.7152 29.1284 26.9388C28.604 27.6963 27.1279 27.3661 24.739 26.6475C24.5253 26.5892 24.2923 26.6669 24.1757 26.8611L24.0592 27.0747C27.497 28.2789 30.1578 28.4149 30.8182 27.3272C31.8476 25.5598 27.497 21.1509 21.107 17.4607C25.5936 15.0912 29.6528 14.0424 31.1484 14.7998C32.4496 15.4602 30.119 17.8103 29.0508 18.8203ZM17.1837 14.2948C16.9895 13.013 17.6693 11.7311 18.8346 11.1873C19.0482 12.4691 18.3685 13.751 17.1837 14.2948ZM22.9327 14.2948C21.748 13.751 21.0682 12.4691 21.2818 11.1873C22.4666 11.7311 23.1464 13.013 22.9327 14.2948ZM23.9815 21.5588C22.7967 20.7042 21.4955 19.8496 20.097 19.0339C18.6792 19.8496 17.3779 20.7042 16.1932 21.5588C15.9601 22.2192 15.8436 22.9378 15.8824 23.6564H24.2923C24.3117 22.9378 24.2146 22.2192 23.9815 21.5588ZM18.349 28.2984C18.8929 28.8422 19.3007 29.3277 20.0776 30.765C20.8739 29.3472 21.2818 28.8616 21.8062 28.2984H18.349Z" fill="#333333"/>
<path fill-rule="evenodd" clip-rule="evenodd" d="M22.9328 14.2948C21.748 13.751 21.0683 12.4691 21.2819 11.1873C22.4667 11.7311 23.1465 13.013 22.9328 14.2948ZM17.1838 14.2948C16.9896 13.013 17.6693 11.7311 18.8347 11.1873C19.0483 12.4691 18.3685 13.751 17.1838 14.2948ZM11.2988 19.2475C11.2988 19.2475 11.3959 18.995 11.1629 18.7814C10.0946 17.7909 7.76397 15.4407 9.10411 14.761C10.5996 14.0229 14.6589 15.0912 19.1455 17.4413C16.873 18.7426 15.3192 19.8302 13.6878 21.1509C11.8621 19.8302 11.5319 19.5389 11.2988 19.2475ZM29.0897 26.9776C28.5653 27.7351 27.0892 27.4049 24.7002 26.6863C24.5837 26.6669 24.4866 26.6668 24.3895 26.7057C25.1081 25.6569 25.2829 23.7147 25.011 22.3163V22.2968V22.2774C24.9333 21.7142 24.7973 21.2869 24.6614 21.0926C27.8466 23.5981 29.6141 26.0842 29.0897 26.9776ZM26.5842 21.1897C24.9916 19.8496 23.3407 18.762 21.0877 17.4607C25.5742 15.0912 29.6335 14.0424 31.129 14.7998C32.4692 15.4796 30.1191 17.8297 29.0703 18.8202C28.876 18.995 28.9343 19.0727 28.9343 19.2864C28.6818 19.5583 28.4099 19.8496 26.5842 21.1897ZM15.5329 21.0344C15.3969 21.2286 15.2804 21.6559 15.1833 22.2191V22.258C14.9308 23.6758 15.0862 25.5986 15.8048 26.6474C15.7077 26.6086 15.5912 26.6086 15.4941 26.628C13.1245 27.3466 11.629 27.6962 11.1046 26.9193C10.5996 26.0453 12.3865 23.5787 15.5329 21.0344Z" fill="white"/>
</svg>
