<svg width="40" height="25" viewBox="0 0 40 25" fill="none" xmlns="http://www.w3.org/2000/svg">
<path fill-rule="evenodd" clip-rule="evenodd" d="M18.3115 0C14.377 0 10.8665 1.8534 8.62042 4.74345H6.50785C3.19372 4.74345 0.5 7.44502 0.5 10.7592V14.3874C0.5 17.7094 3.19372 20.411 6.50785 20.411H9.00523C11.2592 23.0262 14.5968 24.6832 18.3115 24.6832C22.0262 24.6832 25.3639 23.0262 27.6178 20.411H30.0209C33.3351 20.411 36.0288 17.7094 36.0288 14.3874V10.7592C36.0288 7.43717 33.3351 4.74345 30.0209 4.74345H28.0026C25.7565 1.8534 22.2461 0 18.3115 0Z" fill="white"/>
<path d="M19.0891 14.3875V10.7592C19.0891 8.08119 21.2645 5.89795 23.9346 5.89795H30.021C32.6912 5.89795 34.8744 8.08119 34.8744 10.7592V14.3875C34.8744 17.0655 32.699 19.2487 30.021 19.2487C30.021 19.2487 21.076 19.2487 16.6152 19.2487C18.1152 18.1493 19.0891 16.3822 19.0891 14.3875Z" fill="black"/>
<path d="M11.1728 16.2723H9.17016L8.81676 14.5681C8.5576 13.3587 8.32984 11.8901 8.28272 11.3246C8.2356 11.8979 8 13.3587 7.74869 14.5681L7.38743 16.2723H5.40838L3.54712 8.43457H5.77749L5.98953 9.74609C6.17016 10.8534 6.3822 12.2199 6.46074 13.1466C6.54713 12.2278 6.79843 10.8691 7.04188 9.75394L7.3089 8.43457H9.29581L9.56283 9.75394C9.80629 10.877 10.0497 12.2278 10.144 13.1466C10.2225 12.2199 10.4346 10.8534 10.6152 9.74609L10.8272 8.43457H13.0419L11.1728 16.2723Z" fill="black"/>
<path d="M14.9975 9.96596C14.3378 9.96596 13.843 9.58114 13.843 8.96857C13.843 8.39528 14.3378 7.99475 14.9975 7.99475C15.6886 7.99475 16.1676 8.39528 16.1676 8.96857C16.1676 9.58899 15.6886 9.96596 14.9975 9.96596ZM13.9922 16.2722V10.5785H16.0027V16.2722H13.9922Z" fill="black"/>
<path d="M23.9739 10.2801V12.0314H28.1362V13.8691H23.9739V16.2723H21.822V8.43457H28.5759V10.2801H23.9739Z" fill="white"/>
<path d="M30.8299 9.96596C30.1703 9.96596 29.6833 9.58114 29.6833 8.96857C29.6833 8.39528 30.1781 7.99475 30.8299 7.99475C31.521 7.99475 32.0001 8.39528 32.0001 8.96857C32.0001 9.58899 31.521 9.96596 30.8299 9.96596ZM29.8247 16.2722V10.5785H31.8352V16.2722H29.8247Z" fill="white"/>
<path d="M36.8692 6.96595V5.58375H36.3823V5.30103H37.6938V5.58375H37.2069V6.96595H36.8692Z" fill="white"/>
<path d="M37.9058 6.96603V5.30896H38.4084L38.7068 6.43985L38.9974 5.30896H39.5V6.96603H39.1937V5.66236L38.8717 6.96603H38.5497L38.2278 5.66236V6.96603H37.9058Z" fill="white"/>
</svg>
