<svg width="40" height="24" viewBox="0 0 40 24" fill="none" xmlns="http://www.w3.org/2000/svg">
<path fill-rule="evenodd" clip-rule="evenodd" d="M12.3582 0.0175382C12.1999 0.0319293 12.0704 0.046324 12.0704 0.0751063C12.0704 0.0894974 11.9985 0.118287 11.9265 0.118287C11.6818 0.118287 10.6457 0.276575 10.6313 0.319749C10.6169 0.33414 10.5737 0.362929 10.5306 0.362929C10.4154 0.362929 9.78222 0.506844 9.68148 0.564409C9.63831 0.5788 9.4656 0.636368 9.29291 0.693933C9.12022 0.737106 8.97632 0.79466 8.94754 0.809051C8.91875 0.823442 8.77483 0.88101 8.63092 0.938575C8.47262 0.99614 8.3431 1.03932 8.32871 1.05371C8.31432 1.0681 8.25675 1.09687 8.21357 1.11126C8.06966 1.15444 6.91837 1.73009 6.84642 1.80204C6.81763 1.83083 6.73129 1.87399 6.67373 1.90277C6.54421 1.94595 6.52982 2.0323 6.64495 2.16182C6.68813 2.21939 6.80325 2.36331 6.90398 2.49283C7.00472 2.62235 7.11986 2.76625 7.14864 2.80942C7.19182 2.8526 7.24938 2.93894 7.29255 3.02529C7.39329 3.18359 7.45085 3.19799 7.66672 3.06847C7.88259 2.93895 8.94753 2.39208 8.9907 2.39208C9.00509 2.39208 9.12023 2.34891 9.23536 2.29135C9.35049 2.23378 9.55196 2.16183 9.66709 2.13305C9.78222 2.10426 9.91174 2.04669 9.95492 2.0323C9.9837 2.01791 10.1852 1.96035 10.401 1.91718C10.6169 1.87401 10.804 1.81644 10.8472 1.78766C10.8903 1.75887 11.1926 1.71569 11.5379 1.67252C11.8833 1.62935 12.2143 1.57179 12.2719 1.5574C12.4734 1.49984 13.8837 1.47105 14.3874 1.51422C14.963 1.57179 16.1575 1.74448 16.2582 1.80204C16.3014 1.83083 16.5173 1.874 16.7475 1.93157C16.9634 1.97474 17.1649 2.03229 17.1649 2.04669C17.1793 2.06108 17.3376 2.11865 17.5247 2.16182C17.7117 2.21939 17.87 2.27695 17.8844 2.29135C17.8988 2.30574 17.9996 2.3489 18.1147 2.39208C18.2298 2.43525 18.4313 2.50721 18.5608 2.57917C18.6903 2.63673 18.8055 2.69429 18.8342 2.69429C18.863 2.69429 18.8918 2.72308 18.9206 2.73747C18.9494 2.76625 19.0501 2.82382 19.1365 2.86699C19.2228 2.91017 19.4243 3.02528 19.597 3.12602C19.9424 3.3275 19.928 3.3275 20.0575 3.1692C20.1151 3.09725 20.187 3.01089 20.2158 2.98211C20.2446 2.93894 20.3165 2.85259 20.3741 2.76624C20.4317 2.69429 20.4892 2.62234 20.4892 2.60794C20.5468 2.56477 20.8202 2.16183 20.8058 2.13305C20.8058 2.08987 20.518 1.90279 20.4173 1.85961C20.3741 1.84522 20.3309 1.81643 20.3309 1.80204C20.3309 1.78765 20.2302 1.73008 20.1151 1.67252C19.9999 1.62935 19.8992 1.57179 19.8848 1.5574C19.856 1.51423 19.4962 1.35592 19.4387 1.35592C19.4099 1.35592 19.3955 1.34152 19.3955 1.32713C19.3955 1.31274 19.2804 1.25519 19.1365 1.19762C18.9925 1.14006 18.8774 1.08249 18.863 1.0681C18.8486 1.05371 18.7479 1.01052 18.6184 0.96735C18.5032 0.924177 18.3306 0.866612 18.2298 0.823439C18.1435 0.780265 17.942 0.722701 17.7837 0.679527C17.6254 0.636354 17.4959 0.593187 17.4815 0.578796C17.4527 0.550014 16.7619 0.377317 16.6468 0.377317C16.6036 0.377317 16.5604 0.362933 16.5604 0.348542C16.5604 0.319759 15.8553 0.190235 15.4091 0.147062C15.2508 0.132671 15.1213 0.103889 15.1069 0.0751063C15.0494 0.0175417 12.9051 -0.0256352 12.3582 0.0175382ZM12.1711 2.65112C11.9697 2.66552 11.797 2.70869 11.7682 2.72308C11.7538 2.73747 11.6962 2.76624 11.6531 2.76624C11.4948 2.76624 10.6601 2.93894 10.6601 2.96772C10.6601 2.98211 10.6313 2.99652 10.6025 2.99652C10.5162 2.99652 9.92613 3.1692 9.89735 3.19798C9.88296 3.21237 9.75344 3.26994 9.59514 3.31311C9.43684 3.35629 9.3073 3.41386 9.29291 3.42825C9.27852 3.44264 9.1634 3.5002 9.03388 3.54337C8.90436 3.60093 8.78922 3.6585 8.77483 3.67289C8.76044 3.68728 8.6597 3.74485 8.55896 3.80242C8.45823 3.85998 8.32872 3.91755 8.29993 3.94633C8.27115 3.97511 8.22796 3.98949 8.21357 3.98949C8.04088 3.98949 8.15602 4.3061 8.40067 4.53636C8.44384 4.57953 8.48701 4.62271 8.48701 4.6515C8.48701 4.68028 8.54458 4.76661 8.61653 4.85296C8.68849 4.93931 8.74606 5.02566 8.74606 5.04005C8.76045 5.06883 8.96192 4.99688 9.03388 4.93932C9.07705 4.89615 9.20657 4.82418 9.33609 4.781C9.46561 4.72344 9.56634 4.68028 9.56634 4.66588C9.56634 4.65149 9.63831 4.62271 9.73905 4.57954C9.8254 4.55076 9.98369 4.49319 10.07 4.45002C10.3579 4.3205 11.0918 4.09024 11.4804 4.03267C11.6818 3.9895 11.8833 3.94633 11.9121 3.93194C12.1424 3.81681 14.3442 3.77363 14.8911 3.88876C15.7258 4.06145 16.1287 4.1478 16.1431 4.17658C16.1575 4.19097 16.287 4.23414 16.4309 4.27731C16.5748 4.32049 16.7763 4.39246 16.8771 4.43563C16.9778 4.4788 17.1217 4.53635 17.1937 4.56514C17.28 4.59392 17.4671 4.68027 17.6254 4.76662C17.7837 4.85296 17.9996 4.9681 18.1147 5.02566C18.2154 5.08323 18.3162 5.1408 18.3162 5.15519C18.3449 5.21275 18.4457 5.18396 18.4601 5.11201C18.4745 5.06883 18.5033 5.02566 18.5176 5.02566C18.532 5.02566 18.5752 4.96809 18.6184 4.91053C18.6472 4.83857 18.7047 4.76662 18.7335 4.73784C18.8486 4.62271 19.0933 4.26292 19.0933 4.20536C19.0933 4.16218 19.0213 4.11901 18.4601 3.83119C18.3306 3.75924 18.2154 3.70167 18.201 3.68728C18.1866 3.67289 18.0859 3.62973 17.9564 3.57216C17.8413 3.52899 17.6686 3.45702 17.5678 3.41384C17.4815 3.37067 17.3232 3.31312 17.208 3.28434C17.1073 3.25556 17.021 3.22676 17.021 3.19798C17.021 3.18359 16.877 3.12603 16.69 3.08286C16.5029 3.03969 16.3302 2.98212 16.287 2.95334C16.2151 2.91016 15.4379 2.75186 15.3084 2.75186C15.2652 2.75186 15.2077 2.73747 15.1789 2.70869C15.0638 2.62235 12.9914 2.56478 12.1711 2.65112ZM12.8475 5.14078C12.8331 5.16956 12.7468 5.18396 12.6461 5.18396C12.4302 5.18396 11.5379 5.32788 11.4804 5.38544C11.4516 5.39983 11.3077 5.45739 11.1494 5.48617C10.9911 5.52935 10.8328 5.58692 10.7896 5.60131C10.7464 5.63009 10.5881 5.68766 10.4442 5.74522C10.3003 5.78839 10.1708 5.84595 10.1564 5.86034C10.142 5.87473 10.0413 5.94669 9.91174 6.00425C9.60952 6.14816 9.60953 6.14817 10.0269 6.69503C10.0557 6.73821 10.1132 6.81016 10.142 6.85333C10.1996 6.92529 10.214 6.92528 10.6169 6.72381C10.8472 6.60868 11.135 6.49356 11.2501 6.45039C11.3652 6.40722 11.4948 6.36403 11.5091 6.34964C11.5379 6.33525 11.7538 6.2777 12.0128 6.23452C12.2719 6.19135 12.5165 6.13378 12.5741 6.105C12.6317 6.07622 12.9627 6.06182 13.5239 6.06182C14.0852 6.06182 14.4162 6.07622 14.4737 6.105C14.5313 6.13378 14.7759 6.19135 15.035 6.23452C15.294 6.2777 15.5099 6.33525 15.5387 6.34964C15.5675 6.36403 15.6826 6.42161 15.7977 6.45039C15.9992 6.50795 16.4597 6.72381 16.8051 6.9109C17.0066 7.01164 17.0785 7.01163 17.1505 6.86772C17.1793 6.79576 17.2368 6.72381 17.2656 6.69503C17.3376 6.62308 17.5822 6.24891 17.5678 6.24891C17.3663 6.105 16.4597 5.65888 16.359 5.65888C16.3158 5.65888 16.287 5.64448 16.287 5.6157C16.287 5.58691 16.1287 5.54374 15.9416 5.48617C15.7545 5.443 15.5674 5.38545 15.5531 5.37105C15.4811 5.32788 14.9055 5.21274 14.5601 5.18396C14.3874 5.16957 14.2291 5.14079 14.2147 5.12639C14.1859 5.08322 12.8763 5.08322 12.8475 5.14078ZM10.07 17.071C10.0125 17.1574 9.89735 17.3157 9.82539 17.4164C9.63831 17.6755 9.6527 17.7187 9.91174 17.8338C10.0269 17.877 10.1276 17.9345 10.1276 17.9633C10.1276 17.9777 10.2427 18.0352 10.3867 18.0784C10.5306 18.1216 10.6457 18.1792 10.6457 18.1936C10.6457 18.208 10.7896 18.2655 10.9623 18.3231C11.135 18.3806 11.2789 18.4382 11.2933 18.4526C11.3077 18.467 11.4948 18.5246 11.7106 18.5677C11.9265 18.6109 12.1568 18.6685 12.1999 18.6973C12.5597 18.8556 14.8911 18.8556 15.2221 18.6973C15.2652 18.6685 15.4811 18.6253 15.697 18.5677C15.9128 18.5246 16.1143 18.467 16.1431 18.4526C16.1719 18.4382 16.3158 18.3806 16.4741 18.3231C16.6324 18.2655 16.7619 18.2223 16.7763 18.2079C16.7907 18.1936 16.8483 18.1648 16.8914 18.1504C17.0066 18.1072 17.5822 17.805 17.5822 17.7762C17.5822 17.7618 17.5678 17.733 17.539 17.7043C17.4959 17.6611 17.3663 17.4596 17.1217 17.1286C17.0641 17.0423 16.7043 17.0998 16.7043 17.2006C16.7043 17.215 16.5892 17.2725 16.4309 17.3157C16.287 17.3589 16.1431 17.4164 16.1431 17.4308C16.1143 17.4596 15.8841 17.546 15.625 17.6035C15.5099 17.6323 15.3804 17.6611 15.366 17.6899C15.0782 17.9057 12.3007 17.9057 12.128 17.6899C12.1136 17.6755 11.9409 17.6179 11.7394 17.5747C11.5379 17.5172 11.3652 17.4596 11.3509 17.4452C11.3365 17.4308 11.2645 17.3876 11.1638 17.3589C10.9911 17.3013 10.4298 17.0135 10.3579 16.9559C10.2715 16.8696 10.1852 16.9127 10.07 17.071ZM8.73167 18.8555C8.70289 18.8987 8.64532 18.9995 8.60215 19.0426C8.06967 19.6615 8.06968 19.7478 8.5158 19.9781C8.61654 20.0356 8.77483 20.1076 8.86118 20.1508C9.20656 20.3234 9.52318 20.4817 9.68148 20.5249C9.76783 20.5537 9.85417 20.5825 9.85417 20.5969C9.85417 20.6113 9.9693 20.6544 10.1132 20.6976C10.2571 20.7408 10.3866 20.784 10.401 20.7984C10.4154 20.8127 10.6025 20.8703 10.804 20.9135C11.0055 20.9567 11.1925 21.0142 11.2357 21.043C11.3221 21.0862 12.2431 21.2445 12.4302 21.2445C12.5165 21.2445 12.6029 21.2733 12.6173 21.302C12.6892 21.374 14.7616 21.374 14.8479 21.302C14.8767 21.2733 15.035 21.2445 15.2077 21.2301C15.5675 21.2013 16.1287 21.1006 16.2295 21.043C16.2726 21.0286 16.4741 20.9711 16.6756 20.9279C16.877 20.8847 17.0641 20.8271 17.0785 20.8127C17.1073 20.7983 17.2224 20.7408 17.3664 20.712C17.4959 20.6688 17.6254 20.6113 17.6542 20.5825C17.683 20.5537 17.7405 20.5249 17.7693 20.5249C17.8269 20.5249 18.5896 20.1651 18.6328 20.122C18.6472 20.1076 18.7479 20.05 18.8486 20.0068C19.1221 19.8917 19.1652 19.8198 19.0357 19.6902C18.9926 19.6471 18.9206 19.5463 18.863 19.46C18.8055 19.3736 18.7479 19.2729 18.7047 19.2441C18.6759 19.2153 18.604 19.129 18.5464 19.057C18.4169 18.8843 18.3737 18.8843 17.8988 19.129C17.683 19.2441 17.4815 19.3305 17.4527 19.3305C17.4239 19.3305 17.3951 19.3448 17.3951 19.3736C17.3951 19.4024 17.2944 19.4456 17.1649 19.4744C17.0354 19.5175 16.8914 19.5607 16.8483 19.5895C16.8051 19.6183 16.618 19.6758 16.4309 19.7334C16.2438 19.7766 16.0568 19.8341 16.0136 19.8629C15.9128 19.9061 15.0206 20.0644 14.8479 20.0644C14.7759 20.0644 14.704 20.0788 14.6752 20.1076C14.6032 20.1795 12.6892 20.1795 12.6604 20.1076C12.646 20.0788 12.5885 20.0644 12.5165 20.0644C12.3294 20.0644 11.4516 19.9061 11.3509 19.8629C11.3077 19.8485 11.1206 19.791 10.9479 19.7334C10.7752 19.6902 10.6025 19.6327 10.5881 19.6183C10.5593 19.6039 10.4154 19.5463 10.2715 19.4888C10.1276 19.4312 9.9837 19.3736 9.9693 19.3592C9.95491 19.3448 9.85416 19.2873 9.72464 19.2441C9.60951 19.2009 9.49439 19.1434 9.48 19.129C9.46561 19.1146 9.36488 19.057 9.24975 19.0138C9.13462 18.9707 9.03388 18.9131 9.03388 18.8987C9.03388 18.8699 8.8468 18.7836 8.80362 18.7836C8.78923 18.7548 8.76045 18.798 8.73167 18.8555ZM7.23499 20.7984C7.19181 20.8559 7.11986 20.9567 7.07669 20.9998C6.8896 21.2013 6.86082 21.2445 6.86082 21.2877C6.86082 21.302 6.81763 21.3596 6.77446 21.3884C6.73129 21.4316 6.68812 21.4891 6.68812 21.5035C6.68812 21.5323 6.65933 21.5611 6.63055 21.5755C6.44346 21.6474 6.44346 21.964 6.63055 21.964C6.65933 21.964 6.68812 21.9784 6.68812 22.0072C6.68812 22.036 6.76007 22.0792 6.84642 22.1223C7.14863 22.2662 7.47964 22.4533 7.52281 22.4821C7.55159 22.4965 7.66671 22.5541 7.78184 22.6116C7.89697 22.6692 8.0265 22.7268 8.04089 22.7412C8.06967 22.7555 8.1848 22.8131 8.32871 22.8707C8.45823 22.9139 8.58775 22.9714 8.61653 23.0002C8.64532 23.0146 8.77483 23.0722 8.91874 23.1153C9.06265 23.1585 9.23535 23.2161 9.29291 23.2592C9.36487 23.288 9.53757 23.3456 9.69587 23.3888C9.85417 23.4319 10.0269 23.4895 10.0988 23.5039C10.1708 23.5327 10.401 23.5902 10.6169 23.619C10.8328 23.6478 11.0342 23.7054 11.063 23.7198C11.1638 23.7917 12.4734 23.9212 13.0634 23.9212C13.2937 23.9212 13.4807 23.9356 13.5383 23.9644C13.5959 24.0076 13.6534 24.0076 13.7686 23.9644C13.8549 23.9356 14.2003 23.9068 14.5457 23.8925C15.1789 23.8781 16.0712 23.7773 16.2151 23.7054C16.2582 23.691 16.5029 23.6334 16.7475 23.5902C16.9922 23.5471 17.2368 23.4895 17.2656 23.4607C17.3088 23.4319 17.4959 23.3888 17.683 23.3312C17.87 23.288 18.0427 23.2305 18.0715 23.2161C18.1003 23.2017 18.2154 23.1585 18.3306 23.1153C18.4457 23.0722 18.604 23.0146 18.6472 23.0002C18.7047 22.9714 18.8055 22.9282 18.8918 22.8995C19.1652 22.7987 20.4317 22.1511 20.6044 22.036L20.6907 21.964L20.59 21.8057C20.5036 21.6762 20.0287 21.0574 19.8272 20.8127C19.7985 20.7696 19.7697 20.7696 19.7409 20.784C19.7265 20.8127 19.6114 20.8703 19.4962 20.9279C19.3811 20.9854 19.2804 21.043 19.2804 21.0574C19.2804 21.0718 19.1796 21.1293 19.0645 21.1725C18.9494 21.2301 18.8486 21.2733 18.8486 21.2877C18.8486 21.302 18.7767 21.3452 18.6903 21.3596C18.604 21.3884 18.4889 21.4316 18.4169 21.4747C18.3449 21.5179 18.201 21.5755 18.0715 21.6186C17.9564 21.6618 17.8125 21.7194 17.7693 21.7338C17.7261 21.7626 17.539 21.8201 17.3664 21.8777C17.1937 21.9209 16.9922 21.9928 16.9202 22.0216C16.8483 22.0504 16.6324 22.108 16.4165 22.1511C16.2007 22.1943 16.0136 22.2375 15.9992 22.2519C15.697 22.4821 11.5235 22.4821 11.3509 22.2519C11.3365 22.2375 11.1206 22.1799 10.8472 22.1367C10.5881 22.0792 10.3579 22.0216 10.3435 22.0216C10.3291 22.0072 10.1708 21.9496 9.98369 21.9065C9.79661 21.8489 9.62392 21.8057 9.59514 21.7913C9.56636 21.777 9.42243 21.7194 9.27852 21.6618C9.12022 21.6043 8.9907 21.5467 8.9907 21.5467C8.97631 21.5323 8.86119 21.4747 8.73167 21.4316C8.58776 21.374 8.47263 21.3308 8.45823 21.3164C8.44384 21.302 8.34309 21.2445 8.21357 21.1869C7.81062 20.9854 7.59477 20.8559 7.50842 20.784C7.42207 20.6688 7.32133 20.6832 7.23499 20.7984Z" fill="#04A4EC"/>
<path fill-rule="evenodd" clip-rule="evenodd" d="M0.5 10.5663V16.1069L4.28488 16.0925L8.06974 16.0781L8.08414 14.898L8.09853 13.7179H5.79595H3.49336V9.37181V5.02569H1.99668H0.5V10.5663ZM19.9424 5.06886C19.928 5.09764 19.928 7.58731 19.928 10.5951L19.9424 16.0781L21.4391 16.0925L22.9358 16.1069V14.1065V12.1061H23.828C24.5908 12.1061 24.7203 12.1205 24.7203 12.1637C24.7203 12.1925 24.7347 12.2213 24.7635 12.2213C24.7779 12.2213 24.8354 12.2932 24.8642 12.3796C24.9074 12.4659 24.9506 12.5523 24.9793 12.5667C25.0081 12.5954 25.0657 12.6962 25.1232 12.8257C25.1808 12.9408 25.2384 13.0416 25.2528 13.0416C25.2672 13.0416 25.3247 13.1279 25.3679 13.243C25.4111 13.3582 25.483 13.4445 25.4974 13.4445C25.5118 13.4445 25.5406 13.4877 25.555 13.5309C25.5694 13.574 25.6413 13.7179 25.7133 13.8331C25.7852 13.9482 25.8428 14.0633 25.8428 14.0921C25.8428 14.1209 25.8716 14.1641 25.9148 14.2072C25.9579 14.2504 26.0299 14.3799 26.0875 14.4951C26.145 14.6102 26.2026 14.7109 26.217 14.7109C26.2314 14.7109 26.2889 14.7973 26.3321 14.9124C26.3753 15.0275 26.4328 15.1139 26.4616 15.1139C26.476 15.1139 26.5192 15.1858 26.5624 15.2866C26.6055 15.3873 26.6631 15.4737 26.6775 15.5024C26.7063 15.5312 26.7638 15.632 26.8214 15.7327C26.879 15.8334 26.9365 15.9342 26.9653 15.963C26.9941 15.9917 27.0229 16.0493 27.0229 16.0781C27.0229 16.1213 27.2819 16.1357 28.721 16.1357C30.5487 16.1357 30.5631 16.1356 30.3616 15.9342C30.3328 15.9054 30.2321 15.7327 30.117 15.56C30.0162 15.3873 29.9155 15.2146 29.9011 15.2002C29.8867 15.1858 29.8148 15.0851 29.7716 14.9844C29.714 14.8836 29.6421 14.7685 29.5989 14.7253C29.5557 14.6822 29.5269 14.6246 29.5269 14.5958C29.5269 14.567 29.4982 14.5095 29.455 14.4663C29.4118 14.4231 29.3398 14.308 29.2967 14.2072C29.2535 14.1065 29.1815 14.0058 29.1528 13.977C29.124 13.9482 29.0952 13.905 29.0952 13.8762C29.0952 13.8475 29.0376 13.7323 28.9513 13.6172C28.8793 13.5021 28.8074 13.3869 28.8074 13.3726C28.8074 13.3582 28.7786 13.3006 28.7354 13.2574C28.6923 13.2142 28.6203 13.0991 28.5771 12.9984C28.5196 12.8977 28.462 12.7969 28.4188 12.7681C28.39 12.7393 28.3612 12.6962 28.3612 12.6818C28.3612 12.6674 28.3037 12.5523 28.2173 12.4371C28.1454 12.322 28.0734 12.2069 28.0734 12.1781C28.0734 12.1637 28.0446 12.1061 28.0015 12.063C27.9151 11.9622 27.7712 11.732 27.8 11.7032C27.8144 11.7032 27.9439 11.66 28.1022 11.6024C28.2605 11.5593 28.39 11.5017 28.39 11.4873C28.39 11.4729 28.4764 11.4154 28.5915 11.3866C28.7067 11.3434 28.8074 11.2858 28.8218 11.257C28.8362 11.2283 28.865 11.1995 28.8937 11.1995C29.0233 11.1995 29.6133 10.5663 29.786 10.2353C29.8292 10.1633 29.8723 10.0914 29.8867 10.077C29.9299 10.0482 30.045 9.68842 30.045 9.60207C30.045 9.55889 30.0738 9.51572 30.0882 9.51572C30.1601 9.48694 30.1601 7.9327 30.0882 7.78879C30.0594 7.73122 30.0162 7.55854 29.9731 7.40023C29.9299 7.24193 29.8867 7.11241 29.8723 7.11241C29.8579 7.11241 29.8148 7.04046 29.786 6.9685C29.7572 6.88215 29.6709 6.72385 29.5989 6.62311C29.5269 6.52237 29.4694 6.42163 29.4694 6.40724C29.4694 6.39285 29.2247 6.1482 29.0233 5.96112C28.9657 5.91795 28.8649 5.84599 28.793 5.80282C28.721 5.75965 28.6347 5.71646 28.6347 5.70207C28.6059 5.6589 28.2317 5.515 28.1742 5.515C28.1454 5.515 28.1166 5.5006 28.1166 5.47182C28.1166 5.42864 27.4546 5.27034 27.2963 5.27034C27.2388 5.27034 27.1812 5.25596 27.1812 5.22717C27.1236 5.0257 19.9856 4.95373 19.9424 5.06886ZM26.0443 7.19875C26.8934 7.32827 27.3683 8.30688 27.0373 9.19913C26.9078 9.55891 26.4616 9.93307 26.1594 9.93307C26.1162 9.93307 26.0731 9.94747 26.0587 9.97625C26.0443 10.005 25.483 10.0194 24.5044 10.0194H22.979V8.59469V7.16998H24.3749C25.1664 7.15559 25.9004 7.16997 26.0443 7.19875ZM13.1786 7.63049C12.6317 7.65927 12.1856 7.74562 11.8546 7.84636C11.6531 7.91831 11.4661 7.96149 11.4373 7.96149C11.4085 7.96149 11.3509 7.99026 11.3222 8.01904C11.2934 8.04782 11.1782 8.10539 11.0775 8.14857C10.9768 8.19174 10.876 8.23492 10.8616 8.2637C10.8472 8.29248 10.7897 8.33565 10.7321 8.36443C10.4587 8.52274 9.88303 9.05521 9.69594 9.35743C9.63838 9.44377 9.58081 9.53013 9.56642 9.54452C9.50886 9.58769 9.23543 10.1777 9.19225 10.3792C9.16347 10.5087 9.10591 10.6382 9.09152 10.6814C8.93322 11.0124 8.93322 13.1711 9.09152 13.2862C9.10591 13.3006 9.1347 13.4013 9.16348 13.5309C9.22104 13.7899 9.50887 14.4231 9.59521 14.4663C9.624 14.4807 9.65276 14.5238 9.65276 14.567C9.65276 14.6534 10.4587 15.4449 10.5738 15.488C10.617 15.5024 10.6601 15.5312 10.6601 15.5456C10.6601 15.56 10.7465 15.6176 10.8472 15.6751C10.948 15.7327 11.0487 15.7759 11.0631 15.7903C11.0919 15.8334 11.466 15.9774 11.5236 15.9774C11.5524 15.9774 11.5812 15.9917 11.5956 16.0205C11.5956 16.0349 11.7683 16.0925 11.9698 16.15C12.1712 16.1932 12.3583 16.2508 12.4015 16.2652C12.6461 16.3947 14.7616 16.3947 14.8048 16.2652C14.8192 16.2364 14.8624 16.222 14.9055 16.222C15.0207 16.222 15.6683 16.0637 15.697 16.0205C15.7114 16.0061 15.8266 15.9486 15.9561 15.9054C16.0856 15.8478 16.2007 15.7903 16.2151 15.7759C16.2295 15.7615 16.3015 15.7183 16.3734 15.6751C16.7476 15.4881 17.2801 14.9844 17.5535 14.5814C17.6542 14.4231 17.755 14.2792 17.7838 14.2504C17.8125 14.2216 17.8557 14.1065 17.8989 13.9914C17.9421 13.8762 18.014 13.7179 18.0428 13.6604C18.1148 13.5021 18.2299 12.9552 18.2299 12.7825C18.2299 12.7106 18.2443 12.6242 18.2731 12.6098C18.3018 12.5954 18.3162 12.3364 18.3162 11.9622C18.3162 11.588 18.3018 11.329 18.2731 11.3146C18.2587 11.3002 18.2299 11.2283 18.2299 11.1563C18.2299 10.9836 18.086 10.2785 18.0428 10.2497C18.0284 10.2353 17.9852 10.1489 17.9565 10.0626C17.6543 9.17034 16.4742 8.13417 15.4668 7.86074C15.3517 7.83196 15.2509 7.78879 15.2221 7.7744C15.1502 7.71684 14.6897 7.64488 14.1716 7.6161C13.6679 7.60171 13.5815 7.60171 13.1786 7.63049ZM34.607 7.64488C34.1321 7.67366 33.614 7.76 33.5852 7.80317C33.5709 7.81757 33.4701 7.84635 33.3694 7.87513C32.7362 8.03343 32.0742 8.5803 31.8727 9.09838C31.8295 9.19912 31.7864 9.29985 31.772 9.31425C31.7288 9.37181 31.6568 9.7172 31.6424 10.005L31.6137 10.2641H32.9089C33.9019 10.2641 34.2041 10.2497 34.2185 10.2209C34.3336 9.83233 34.3912 9.70282 34.5063 9.55891C34.8948 9.084 36.2476 9.04082 36.4922 9.50134C36.521 9.54451 36.5642 9.61647 36.6074 9.64525C36.6649 9.70281 36.6793 9.80355 36.6937 10.1633C36.7081 10.667 36.7081 10.6814 36.4059 10.6814C36.3052 10.6814 36.2044 10.6958 36.19 10.7246C36.1756 10.7534 36.1037 10.7678 36.0317 10.7678C35.8159 10.7678 34.6502 10.9261 34.5782 10.9692C34.5351 10.9836 34.3192 11.0412 34.0889 11.0988C33.8587 11.1419 33.6428 11.1995 33.5996 11.2283C33.5565 11.2427 33.4413 11.3002 33.3118 11.329C33.1967 11.3722 33.0528 11.4154 33.0096 11.4441C32.9664 11.4729 32.8369 11.5305 32.7362 11.5593C32.6354 11.6025 32.4915 11.6744 32.434 11.732C32.3764 11.7895 32.3044 11.8327 32.2757 11.8327C32.2469 11.8327 32.1893 11.8759 32.1461 11.9191C32.103 11.9622 32.031 12.0342 31.9878 12.0774C31.441 12.5523 31.1531 13.5309 31.3258 14.3943C31.3834 14.6965 31.4841 15.0132 31.5273 15.0132C31.5417 15.0132 31.5849 15.0707 31.6137 15.1427C31.6856 15.301 32.1605 15.7759 32.2469 15.7759C32.2756 15.7759 32.3044 15.7903 32.3044 15.8191C32.3044 15.9342 33.2398 16.2652 33.5421 16.2652C33.614 16.2652 33.6716 16.2796 33.7004 16.3084C33.7292 16.3515 34.7509 16.3659 34.7797 16.3084C34.7941 16.294 34.8948 16.2652 35.01 16.2508C35.269 16.222 35.7439 16.1069 35.7727 16.0637C35.7871 16.0493 35.9166 15.9917 36.0605 15.9486C36.2044 15.9054 36.3339 15.8478 36.3339 15.8334C36.3339 15.819 36.3915 15.7759 36.4491 15.7471C36.521 15.7183 36.6362 15.6176 36.7225 15.5312L36.8808 15.3729L36.9528 15.7615L37.0247 16.15H38.2624H39.5L39.4712 16.0637C39.3849 15.6895 39.3273 15.3154 39.3273 15.1715C39.3273 15.0707 39.3129 14.9844 39.2841 14.9556C39.2553 14.9268 39.241 13.8618 39.2266 12.1781C39.2122 9.25668 39.1978 9.14155 39.0107 8.94008C38.9819 8.9113 38.9531 8.86813 38.9531 8.85374C38.9531 8.62348 38.0753 8.03344 37.5428 7.91831C37.4133 7.88953 37.2981 7.86075 37.2838 7.84636C37.1974 7.7744 35.5137 7.61609 35.1683 7.64488C35.1251 7.6017 34.8804 7.63048 34.607 7.64488ZM14.2148 9.60207C14.5889 9.70281 15.1214 10.1058 15.2797 10.4224C15.3085 10.4799 15.3517 10.5375 15.3661 10.5519C15.3804 10.5663 15.438 10.739 15.4956 10.9261C15.5388 11.1131 15.5963 11.2858 15.6107 11.3002C15.6539 11.3434 15.6395 12.5091 15.6107 12.5954C15.5963 12.6386 15.5388 12.8257 15.4956 13.0272C15.4524 13.2286 15.3948 13.4013 15.3804 13.4157C15.3661 13.4301 15.3229 13.5021 15.2797 13.5884C15.1646 13.8475 14.6321 14.2648 14.4306 14.2648C14.4019 14.2648 14.3731 14.2792 14.3587 14.308C14.3155 14.4375 12.9627 14.4375 12.9196 14.308C12.9052 14.2792 12.8908 14.2648 12.862 14.2648C12.7756 14.2648 12.4734 14.0921 12.3439 13.977C12.1712 13.8187 11.869 13.4301 11.869 13.3726C11.869 13.3438 11.8402 13.2574 11.797 13.1711C11.4804 12.5235 11.5668 11.0268 11.941 10.4511C12.0849 10.2353 12.1424 10.1489 12.2864 10.0194C12.3727 9.93307 12.4591 9.86112 12.4734 9.86112C12.4878 9.86112 12.5454 9.81795 12.5886 9.77477C12.8044 9.55891 13.7111 9.45816 14.2148 9.60207ZM36.6793 12.653C36.6649 12.9552 36.6362 13.2143 36.6218 13.243C36.593 13.2718 36.5498 13.3869 36.521 13.4877C36.4347 13.7611 36.1613 14.0921 35.931 14.2072C35.8734 14.236 35.8159 14.2792 35.7871 14.308C35.6288 14.4519 34.5782 14.4951 34.3048 14.3656C33.7435 14.1065 33.6572 13.243 34.1753 12.9552C34.2328 12.9264 34.276 12.8833 34.276 12.8689C34.276 12.8545 34.3911 12.7969 34.5351 12.7537C34.679 12.7106 34.8085 12.653 34.8229 12.6386C34.8517 12.6242 35.0387 12.5667 35.269 12.5235C35.4849 12.4659 35.6864 12.4227 35.7151 12.4083C35.7295 12.3939 35.9454 12.3364 36.1613 12.2932C36.3915 12.25 36.5786 12.1925 36.5786 12.1637C36.5786 12.1349 36.6074 12.1349 36.6506 12.1349C36.6937 12.1061 36.6937 12.1781 36.6793 12.653Z" fill="white"/>
</svg>
