<svg width="41" height="17" viewBox="0 0 41 17" fill="none" xmlns="http://www.w3.org/2000/svg">
<path d="M29.8674 13.4941L31.023 10.5719H34.3596L32.7758 6.13912L34.7563 1.13123L40.4285 16.1915H36.2455L35.2762 13.4941H29.8674Z" fill="white"/>
<path d="M26.299 15.368L32.371 0.307739L28.3455 0.30806L24.1918 10.0403L21.2378 0.30806H18.1437L14.9723 10.0403L12.7356 5.60526L10.7114 11.8412L12.7667 15.368H16.7283L19.5944 6.64026L22.3267 15.368H26.299Z" fill="white"/>
<path d="M4.2499 10.1983H6.72947C7.48063 10.1983 8.14935 10.1146 8.73597 9.94685L9.37711 7.97146L11.1694 2.44975C11.033 2.23358 10.8772 2.02863 10.7017 1.83587C9.78155 0.817228 8.43512 0.308228 6.66276 0.308228H0.428711V15.3685H4.2499V10.1983ZM7.53195 3.77277C7.89149 4.13455 8.0711 4.61886 8.0711 5.22504C8.0711 5.83635 7.91297 6.32098 7.59705 6.67923C7.25034 7.07726 6.61241 7.27644 5.68293 7.27644H4.2499V3.23041H5.69351C6.55981 3.23041 7.17273 3.41098 7.53195 3.77277Z" fill="white"/>
</svg>
