<svg width="19" height="30" viewBox="0 0 19 30" fill="none" xmlns="http://www.w3.org/2000/svg">
<path d="M2.8125 0.25H15.9375C17.3522 0.25 18.5 1.39784 18.5 2.8125V27.1875C18.5 28.6022 17.3522 29.75 15.9375 29.75H2.8125C1.39784 29.75 0.25 28.6022 0.25 27.1875V2.8125C0.25 1.39784 1.39784 0.25 2.8125 0.25ZM7.25 26.25C7.25 27.4252 8.19982 28.375 9.375 28.375C10.5502 28.375 11.5 27.4252 11.5 26.25C11.5 25.0748 10.5502 24.125 9.375 24.125C8.19982 24.125 7.25 25.0748 7.25 26.25ZM15.2344 22.75C15.7592 22.75 16.1875 22.3217 16.1875 21.7969V3.51562C16.1875 2.99083 15.7592 2.5625 15.2344 2.5625H3.51562C2.99083 2.5625 2.5625 2.99083 2.5625 3.51562V21.7969C2.5625 22.3217 2.99083 22.75 3.51562 22.75H15.2344Z" stroke="#FFD600" stroke-width="0.5"/>
</svg>
