<svg width="40" height="31" viewBox="0 0 40 31" fill="none" xmlns="http://www.w3.org/2000/svg">
<path d="M12.1118 19.7021L8.5351 21.2378L11.8491 22.6725L15.6885 21.2378L12.1118 19.7021ZM6.73666 21.642L6.61541 28.5933L11.8491 30.9171V23.7031L6.73666 21.642ZM17.4869 21.642L12.7584 23.4606V30.2705L17.4869 28.3306V21.642ZM23.1247 0L19.5279 1.53575L22.8621 2.97047L26.7014 1.53575L23.1247 0ZM18.1335 2.06114V9.01243L22.5994 10.3259L22.7408 4.00103L18.1335 2.06114ZM28.1159 2.44507L23.8926 4.26373V11.0938L28.1159 9.15388V2.44507ZM6.23148 9.80052L2.6548 11.3363L5.96879 12.771L9.80817 11.3363L6.23148 9.80052ZM0.856346 11.7202L0.735107 18.6715L5.96879 20.9953V13.7814L0.856346 11.7202ZM11.6066 11.7202L6.87812 13.5389V20.3487L11.6066 18.4088V11.7202ZM17.7294 9.53783L14.1527 11.0736L17.4667 12.5083L21.3061 11.0736L17.7294 9.53783ZM12.3745 11.4575L12.2532 18.4088L17.4869 20.7326V13.5187L12.3745 11.4575ZM23.1045 11.4575L18.376 13.2762V20.086L23.1045 18.1461V11.4575ZM34.36 0L30.7833 1.53575L34.0973 2.97047L37.9367 1.53575L34.36 0ZM28.9848 1.93989L28.8636 8.89119L34.0973 11.215V4.00103L28.9848 1.93989ZM39.7351 1.93989L35.0066 3.75854V10.5684L39.7351 8.6285V1.93989Z" fill="#F7A80D"/>
</svg>
