<svg width="34" height="40" viewBox="0 0 34 40" fill="none" xmlns="http://www.w3.org/2000/svg">
<path d="M24.8506 13.9834C25.2929 14.9451 25.793 15.8683 26.2162 16.83C27.0625 18.6765 27.6972 20.6192 27.9665 22.6196C28.2358 24.6199 28.1204 26.6972 27.4857 28.6206C26.774 30.7941 25.4276 32.7175 23.7734 34.2948C21.8115 36.1605 19.3111 37.6031 16.5991 37.7185C14.8295 37.7954 13.0792 37.2761 11.502 36.4682C10.1941 35.7758 8.98229 34.8718 8.02057 33.737C7.05886 32.6021 6.3472 31.2557 6.02022 29.8132C5.6163 28.0436 5.78941 26.1587 6.4049 24.4468C6.84729 23.2158 7.50125 22.081 7.96287 20.85C8.46296 19.5228 8.75149 18.0995 9.42469 16.8493C10.0402 15.7145 10.9442 14.7335 11.425 13.541C11.7136 12.8293 11.8482 12.0599 12.0213 11.3098C12.2137 10.5597 12.4637 9.80952 12.983 9.2325C13.5985 8.54006 14.5218 8.15539 15.445 8.03998C16.3683 7.92458 17.3107 8.07846 18.2147 8.29004C18.9456 8.44391 19.6573 8.65548 20.3497 8.90552C20.946 9.1171 21.5423 9.36716 22.0616 9.73261C22.7733 10.2327 23.2926 10.9251 23.735 11.6753C24.1581 12.4062 24.4851 13.1948 24.8506 13.9834Z" fill="#020204"/>
<path d="M17.0609 37.7184C17.811 37.7568 18.5419 37.8338 19.292 37.9492C19.946 38.0454 20.5807 38.18 21.2155 38.3339C22.2156 38.5839 23.2158 38.8724 24.2352 38.9109C24.5045 38.9109 24.7738 38.9109 25.0431 38.8532C25.3124 38.7955 25.5624 38.6801 25.774 38.5262C26.0817 38.2762 26.2933 37.8915 26.3702 37.5068C26.4472 37.1029 26.3895 36.699 26.2741 36.3143C26.0433 35.5449 25.5432 34.8909 25.1392 34.1985C24.9084 33.7946 24.6969 33.3907 24.4468 33.006C24.1968 32.6213 23.889 32.2751 23.5043 32.025C22.9658 31.6788 22.2926 31.5634 21.6771 31.6211C21.0423 31.6788 20.4269 31.9096 19.8691 32.1981C19.0805 32.6021 18.3303 33.1598 17.8879 33.9484C17.7341 34.2177 17.6187 34.5062 17.5033 34.7948C17.3686 35.0833 17.234 35.3525 17.0032 35.5834C16.7531 35.8334 16.4454 36.0065 16.1953 36.2373C16.0607 36.3527 15.9645 36.4874 15.8876 36.6605C15.8299 36.8144 15.8106 37.0067 15.8683 37.1606C15.9068 37.276 15.9837 37.3722 16.0799 37.4491C16.1761 37.526 16.2722 37.5837 16.3877 37.6222C16.58 37.6799 16.83 37.6991 17.0609 37.7184Z" fill="#2E2E2E"/>
<path d="M14.8489 37.6607C14.2334 37.6799 13.6179 37.7761 13.0024 37.9108C12.4254 38.0262 11.8483 38.1608 11.2713 38.3147C10.3096 38.5647 9.32866 38.8725 8.32848 38.8917C8.0592 38.8917 7.80915 38.8725 7.53987 38.8148C7.28982 38.757 7.03979 38.6417 6.82821 38.4878C6.52046 38.2377 6.30888 37.853 6.23194 37.4684C6.155 37.0644 6.21271 36.6605 6.30888 36.2758C6.53969 35.5065 7.03978 34.8525 7.42447 34.1601C7.65528 33.7562 7.84762 33.3522 8.09767 32.9675C8.34771 32.5828 8.63622 32.2174 9.02091 31.9674C9.54023 31.6211 10.1942 31.5057 10.8097 31.5634C11.4252 31.6211 12.0215 31.852 12.5792 32.1405C13.3486 32.5636 14.0603 33.1407 14.5027 33.8908C14.8104 34.4293 15.0028 35.0256 15.3682 35.5257C15.5606 35.795 15.8106 36.0258 15.9837 36.3143C16.0607 36.4682 16.1184 36.6221 16.1376 36.7759C16.1568 36.9298 16.1184 37.1221 16.0222 37.2568C15.9645 37.353 15.8683 37.4107 15.7721 37.4684C15.676 37.5261 15.5798 37.5645 15.4644 37.5838C15.2913 37.6607 15.0797 37.6607 14.8489 37.6607ZM11.3867 11.9637C11.2905 10.9251 11.329 9.86718 11.2905 8.82853C11.2521 7.82835 11.1559 6.80894 11.1944 5.80876C11.2328 4.78935 11.406 3.7507 11.8676 2.82745C12.3292 1.90421 13.0601 1.13483 13.9833 0.65397C14.8297 0.192347 15.8106 0 16.7916 0C18.0995 0.0192343 19.4267 0.403938 20.4845 1.17331C21.1577 1.65417 21.7155 2.26965 22.1579 2.96208C22.5426 3.55834 22.8311 4.19308 23.0234 4.86628C23.4081 6.25114 23.312 7.71296 23.3889 9.15553C23.4658 10.5212 23.6774 11.8675 23.6005 13.2332C23.5812 13.5217 23.5428 13.8294 23.4274 14.0987C23.2927 14.3488 23.0812 14.5603 22.8311 14.7142C22.5811 14.8681 22.2925 14.945 22.004 14.9835C21.427 15.0797 20.85 15.0027 20.273 15.0604C19.4459 15.1374 18.638 15.4451 17.811 15.5798C16.83 15.7336 15.8106 15.6182 14.8104 15.5798C14.4065 15.5605 14.0026 15.5605 13.6179 15.5028C13.214 15.4451 12.8293 15.3489 12.4638 15.1758C12.2523 15.0604 12.0407 14.9066 11.8868 14.7335C11.7329 14.5411 11.5983 14.3295 11.5406 14.0987C11.4444 13.7333 11.5021 13.3678 11.5021 13.0024C11.4637 12.6369 11.4252 12.3099 11.3867 11.9637Z" fill="#020204"/>
<path d="M12.9638 11.5598C12.8292 11.7329 12.733 11.9445 12.6753 12.1753C12.6176 12.3868 12.5984 12.6177 12.5984 12.8485C12.5791 13.3101 12.6176 13.7525 12.4829 14.1949C12.3483 14.6565 12.0598 15.0604 11.7905 15.4643C11.3097 16.1375 10.8096 16.8492 10.5595 17.6378C10.4056 18.1187 10.3672 18.638 10.4249 19.1381C9.88632 19.9459 9.40546 20.7922 9.02078 21.677C8.42451 23.0234 8.0206 24.4467 7.88596 25.8893C7.71285 27.6781 7.94366 29.5053 8.65533 31.1595C9.17466 32.352 9.92478 33.4484 10.9057 34.2947C11.4058 34.7178 11.9636 35.0833 12.5599 35.391C14.618 36.3912 17.1569 36.4104 19.1957 35.3333C20.2536 34.7755 21.1384 33.9485 22.0039 33.1214C22.5232 32.6213 23.0426 32.102 23.4272 31.5057C24.1966 30.3516 24.4467 28.9475 24.6198 27.5627C24.9083 25.1584 24.9083 22.6195 23.8504 20.446C23.485 19.6959 23.0041 19.0034 22.4078 18.4072C22.254 17.3493 21.9462 16.3299 21.5038 15.3682C21.1768 14.6757 20.7922 14.0218 20.4844 13.3101C20.369 13.0216 20.2536 12.7331 20.1189 12.4446C19.9843 12.156 19.8112 11.8868 19.5804 11.6752C19.3496 11.4444 19.0611 11.2905 18.7533 11.1943C18.4456 11.0982 18.1186 11.0404 17.8108 11.0404C17.1569 11.002 16.5221 11.0981 15.8682 11.0597C15.3489 11.0404 14.8488 10.9443 14.3294 10.9828C14.0794 11.002 13.8101 11.0404 13.5793 11.1366C13.3485 11.2135 13.1177 11.3674 12.9638 11.5598Z" fill="#FDFDFD"/>
<path d="M12.656 13.9641C12.8869 14.6181 13.3485 15.1951 13.9063 15.6375C14.0794 15.7914 14.291 15.926 14.5025 16.0222C14.7141 16.1183 14.9449 16.176 15.195 16.1568C15.4258 16.1376 15.6374 16.0414 15.8489 15.926C16.0413 15.8106 16.2336 15.6759 16.426 15.5605C16.7529 15.349 17.1184 15.1759 17.4646 14.9835C17.8878 14.7527 18.2917 14.5027 18.6379 14.1757C18.7918 14.0218 18.9456 13.8679 19.1188 13.7525C19.2919 13.6179 19.5034 13.5409 19.7343 13.5602C19.8881 13.5602 20.042 13.6371 20.2151 13.6756C20.292 13.6948 20.369 13.6948 20.4652 13.6948C20.5421 13.6756 20.619 13.6564 20.6767 13.5794C20.7537 13.5025 20.7729 13.4063 20.7729 13.3101C20.7729 13.214 20.7344 13.1178 20.6767 13.0216C20.5806 12.8485 20.4459 12.6946 20.3882 12.5023C20.3305 12.3292 20.3498 12.1561 20.3498 11.983C20.3498 11.8099 20.3497 11.6175 20.2728 11.4637C20.2151 11.3483 20.0997 11.2521 19.9843 11.1944C19.8689 11.1367 19.7343 11.0982 19.5996 11.079C19.3303 11.0597 19.061 11.0982 18.7918 11.1174C18.4263 11.1367 18.0801 11.0982 17.7147 11.1174C17.2723 11.1367 16.8299 11.2713 16.3875 11.2713C15.8682 11.2713 15.3681 11.0982 14.8487 11.1944C14.6372 11.2328 14.4256 11.3098 14.214 11.3675C14.0024 11.4444 13.7909 11.5021 13.5793 11.5021C13.3292 11.5021 13.0792 11.406 12.8484 11.3867C12.733 11.3867 12.5983 11.3867 12.4829 11.4252C12.3675 11.4636 12.2521 11.5406 12.1944 11.656C12.156 11.7137 12.1367 11.7906 12.1367 11.8676C12.1367 11.9445 12.1367 12.0022 12.1559 12.0791C12.1944 12.2138 12.2521 12.3484 12.3098 12.4831C12.4445 12.9447 12.4829 13.464 12.656 13.9641Z" fill="black" fill-opacity="0.259"/>
<g opacity="0.3">
<path opacity="0.3" d="M12.0021 12.0599C12.4445 12.3292 12.8484 12.6754 13.1947 13.0601C13.5024 13.4063 13.7717 13.8295 14.1756 14.0795C14.4641 14.2719 14.8103 14.368 15.1566 14.4065C15.5605 14.445 15.9836 14.3873 16.3875 14.2719C16.753 14.1757 17.1185 14.0218 17.4454 13.8487C18.0609 13.5025 18.5803 12.9832 19.2727 12.7524C19.4266 12.6947 19.5804 12.6562 19.7151 12.5985C19.869 12.5408 20.0036 12.4446 20.0613 12.31C20.119 12.1753 20.119 12.0407 20.1382 11.9061C20.1575 11.7522 20.2152 11.6176 20.2344 11.4637C20.2536 11.3098 20.2729 11.1559 20.1959 11.0213C20.1382 10.9059 20.0421 10.8289 19.9074 10.7712C19.792 10.7135 19.6574 10.6943 19.5227 10.6751C19.2535 10.6558 18.9842 10.7328 18.7149 10.752C18.3495 10.7905 18.0032 10.7328 17.6378 10.752C17.1954 10.7712 16.753 10.8674 16.3106 10.8867C15.7913 10.9059 15.2912 10.8289 14.7719 10.8289C14.5603 10.8289 14.3295 10.8289 14.1179 10.8674C13.9063 10.9059 13.6948 10.9636 13.5024 11.079C13.3293 11.1944 13.1754 11.329 13.0216 11.4637C12.9446 11.5214 12.8485 11.5791 12.7523 11.6368C12.6561 11.6752 12.5599 11.7137 12.4445 11.7137C12.3868 11.7137 12.3291 11.7137 12.2714 11.7137C12.233 11.7137 12.1753 11.733 12.1368 11.7522C12.0983 11.7714 12.0598 11.8099 12.0406 11.8291C12.0214 11.8676 12.0021 11.9061 11.9829 11.9445C12.0021 11.983 12.0021 12.0215 12.0021 12.0599Z" fill="#161616"/>
</g>
<path d="M13.1754 5.98193C12.9253 6.00117 12.6945 6.09734 12.5214 6.27045C12.3483 6.42432 12.2137 6.65513 12.1367 6.86671C11.9829 7.32833 12.0213 7.80919 12.0598 8.29005C12.0983 8.73243 12.1175 9.17481 12.2906 9.57873C12.3675 9.77107 12.4829 9.96343 12.6368 10.1173C12.7907 10.2712 12.983 10.3866 13.1946 10.4443C13.387 10.502 13.5985 10.4827 13.8101 10.425C14.0025 10.3673 14.1756 10.2519 14.3294 10.1173C14.541 9.90572 14.6949 9.63644 14.7718 9.34793C14.8488 9.05942 14.8872 8.77088 14.868 8.46313C14.868 8.09768 14.8103 7.71301 14.6949 7.36679C14.5795 7.02057 14.3872 6.67436 14.1371 6.40508C14.0025 6.27044 13.8678 6.15504 13.6947 6.0781C13.5408 6.0204 13.3485 5.98193 13.1754 5.98193Z" fill="url(#paint0_radial)"/>
<path d="M17.4262 5.98183C17.0415 6.23188 16.7338 6.59731 16.5799 7.02046C16.3876 7.55902 16.4645 8.15529 16.6569 8.71309C16.8492 9.27088 17.1762 9.79021 17.657 10.1364C17.9071 10.3095 18.1764 10.4249 18.4649 10.4442C18.7534 10.4826 19.0611 10.4249 19.3304 10.2903C19.6574 10.1172 19.8882 9.82867 20.0421 9.52092C20.196 9.19393 20.2537 8.8285 20.2729 8.48229C20.2921 8.02066 20.2537 7.55904 20.0998 7.13589C19.9459 6.67426 19.6382 6.23186 19.215 5.96258C19.0034 5.82794 18.7726 5.73179 18.5226 5.69332C18.2725 5.65485 18.0225 5.6933 17.7917 5.77024C17.6763 5.82794 17.5609 5.90489 17.4262 5.98183Z" fill="url(#paint1_radial)"/>
<g opacity="0.3">
<path opacity="0.3" d="M13.0986 9.84791C12.8486 10.0402 12.6177 10.2518 12.4062 10.4826C12.2908 10.598 12.1561 10.7327 12.0984 10.9058C12.0407 11.0597 12.0599 11.2135 12.0407 11.3674C12.0407 11.4251 12.0215 11.4636 12.0215 11.5213C12.0215 11.5405 12.0215 11.579 12.0407 11.5982C12.0407 11.6175 12.06 11.6559 12.0792 11.6559C12.1177 11.6944 12.1561 11.7136 12.1946 11.7136C12.2331 11.7136 12.2908 11.7136 12.3292 11.7328C12.5216 11.7521 12.7139 11.8483 12.8678 11.9637C13.0217 12.0791 13.1755 12.2137 13.3486 12.3099C13.7141 12.5407 14.1565 12.6561 14.5989 12.6561C15.0413 12.6753 15.4644 12.5984 15.9068 12.5215C16.253 12.4638 16.58 12.3676 16.907 12.2522C17.4071 12.0598 17.8495 11.7521 18.2726 11.4443C18.465 11.2905 18.6573 11.1558 18.8304 10.9827C18.8881 10.925 18.9458 10.8673 19.0035 10.8096C19.0612 10.7519 19.1382 10.7135 19.2151 10.6942C19.3305 10.6557 19.4651 10.675 19.5805 10.6942C19.6767 10.7135 19.7729 10.7327 19.8691 10.7327C19.9075 10.7327 19.9652 10.7134 20.0037 10.7134C20.0422 10.6942 20.0806 10.675 20.1191 10.6365C20.1576 10.5788 20.1768 10.5211 20.1768 10.4634C20.1768 10.4057 20.1576 10.348 20.1191 10.2903C20.0614 10.1941 19.946 10.1172 19.8306 10.0595C19.6767 9.98254 19.5036 9.96332 19.3497 9.92485C18.8496 9.80944 18.3496 9.61709 17.8879 9.38628C17.6571 9.27087 17.4263 9.13623 17.1955 9.02082C16.9647 8.88618 16.7146 8.77079 16.4646 8.69385C15.8876 8.52074 15.2721 8.57845 14.7143 8.77079C14.0796 8.98237 13.5218 9.34782 13.0986 9.84791Z" fill="#161616"/>
</g>
<path d="M14.3103 9.15548C14.5411 8.8862 14.7142 8.55922 14.9451 8.28994C15.0605 8.1553 15.1951 8.02065 15.349 7.94371C15.5029 7.84754 15.6952 7.80908 15.8683 7.80908C16.0606 7.82832 16.253 7.92447 16.4069 8.05911C16.5607 8.19375 16.6569 8.36686 16.7531 8.53997C16.83 8.71308 16.907 8.88618 17.0224 9.04006C17.157 9.19393 17.3301 9.30934 17.484 9.42474C17.5609 9.48244 17.6379 9.5594 17.7148 9.63634C17.7725 9.71327 17.8302 9.80943 17.8494 9.9056C17.8687 10.0018 17.8687 10.1172 17.8302 10.2134C17.7917 10.3095 17.734 10.4057 17.6571 10.4634C17.5032 10.6173 17.3109 10.6942 17.0993 10.7135C16.6954 10.7712 16.2722 10.6557 15.8491 10.6557C15.4259 10.675 15.022 10.8096 14.5988 10.8096C14.3873 10.8096 14.1757 10.7519 14.0026 10.6365C13.9064 10.5788 13.8487 10.5019 13.791 10.4057C13.7333 10.3095 13.6948 10.2134 13.6948 10.1172C13.6948 10.021 13.7141 9.92485 13.7525 9.82868C13.791 9.73251 13.8487 9.65556 13.9064 9.57862C14.0218 9.42475 14.1757 9.29012 14.3103 9.15548Z" fill="url(#paint2_radial)"/>
<path d="M18.9841 1.73105C18.6379 1.98109 18.7918 2.26961 18.9456 2.57736C19.0995 2.88511 18.6187 3.76989 18.6187 3.80836C18.6187 3.84683 19.5611 3.36597 19.8112 3.03899C20.1189 2.67353 20.8883 3.53908 20.8498 3.40444C20.8306 3.19286 19.3303 1.50024 18.9841 1.73105Z" fill="#7C7C7C"/>
<path d="M18.3111 7.1167C18.1764 7.13593 18.0226 7.17441 17.9072 7.25135C17.7918 7.32829 17.6764 7.42446 17.5994 7.53987C17.4455 7.77068 17.3686 8.05918 17.3494 8.34769C17.3494 8.55927 17.3686 8.77086 17.4263 8.98243C17.5032 9.17478 17.6186 9.36711 17.7725 9.50175C17.9456 9.63639 18.1572 9.73258 18.3688 9.73258C18.5804 9.75181 18.8112 9.67487 18.9843 9.55946C19.1189 9.46329 19.2343 9.32865 19.3305 9.17478C19.4074 9.0209 19.4651 8.8478 19.4844 8.67469C19.5228 8.36694 19.4844 8.05918 19.3305 7.7899C19.1959 7.52062 18.9458 7.28981 18.6573 7.19364C18.5611 7.13594 18.4265 7.09746 18.3111 7.1167Z" fill="#2E2E2E"/>
<path d="M18.638 8.03989C18.5226 8.07836 18.3302 8.05912 18.2918 8.17452C18.2533 8.23223 18.311 8.34765 18.3687 8.38612C18.5033 8.44382 18.7341 8.34765 18.7726 8.19378C18.7918 8.13607 18.7534 8.0399 18.6957 8.02066C18.6764 8.00143 18.6572 8.02066 18.638 8.03989Z" fill="#141414"/>
<path d="M19.1766 8.34771C19.3305 8.19384 19.0612 7.77068 18.8496 7.59757C18.6957 7.48216 18.2533 7.34753 18.2726 7.48217C18.2918 7.61681 18.4842 7.78993 18.6188 7.92457C18.7919 8.07844 19.0996 8.40541 19.1766 8.34771Z" fill="url(#paint3_linear)"/>
<path d="M16.0221 7.34751C16.3491 7.07823 16.7146 6.88589 17.1185 6.75125C17.9456 6.5012 18.8688 6.59737 19.5997 7.05899C19.8497 7.21287 20.0806 7.4052 20.3114 7.59754C20.5422 7.78988 20.7922 7.96299 21.0807 8.05917C21.2346 8.11687 21.3885 8.13611 21.5616 8.11688C21.7155 8.09764 21.8501 8.05917 21.9655 7.96299C22.0809 7.88606 22.1771 7.77066 22.254 7.65525C22.4079 7.40521 22.4464 7.11668 22.4271 6.82817C22.3694 6.25114 22.0425 5.75106 21.7732 5.23174C21.677 5.07786 21.6001 4.90475 21.5039 4.77011C21.1769 4.30849 20.6768 4.01997 20.1575 3.82763C19.6189 3.65452 19.0611 3.57759 18.5226 3.51988C18.2725 3.48141 18.0225 3.46219 17.7724 3.48142C17.4839 3.51989 17.2147 3.63529 16.9454 3.693C16.8107 3.73147 16.6761 3.7507 16.5415 3.78917C16.4068 3.82764 16.2914 3.88534 16.176 3.96228C16.0221 4.07769 15.926 4.27002 15.8875 4.46237C15.849 4.65471 15.849 4.84705 15.8875 5.05862C15.9452 5.44331 16.0991 5.82799 16.0798 6.23191C16.0798 6.50119 15.9837 6.77048 16.0029 7.03976C16.0029 7.1167 16.0221 7.19363 16.0414 7.27057" fill="url(#paint4_linear)"/>
<path d="M18.7341 4.86633C18.6764 4.94327 18.6187 5.03945 18.561 5.13562C18.8495 5.19332 19.1381 5.30871 19.3689 5.48182C19.8497 5.78957 20.2152 6.27044 20.4652 6.77053C20.5229 6.71283 20.5806 6.63589 20.6191 6.55896C20.369 6.0204 19.9844 5.53954 19.4843 5.21256C19.2919 5.05869 19.0227 4.94327 18.7341 4.86633Z" fill="url(#paint5_linear)"/>
<path d="M13.137 5.13562C13.0986 5.13562 13.0793 5.13562 13.0409 5.13562C13.0216 5.13562 13.0024 5.13562 12.9832 5.13562C13.1755 5.15485 13.3678 5.21254 13.5409 5.28948C13.7718 5.40489 13.9833 5.53954 14.1757 5.71265C14.5219 6.0204 14.7719 6.4243 14.945 6.82822C14.9066 6.52047 14.8104 6.21273 14.6565 5.92422C14.5988 5.84728 14.5219 5.77036 14.445 5.69342C14.2526 5.52031 14.0603 5.36642 13.8102 5.27025C13.5986 5.19331 13.3678 5.13562 13.137 5.13562Z" fill="url(#paint6_linear)"/>
<path d="M12.5792 7.96293C12.5215 8.27068 12.5215 8.57844 12.6369 8.86696C12.7138 9.0593 12.81 9.2324 12.9638 9.38627C13.06 9.48245 13.1562 9.57863 13.2716 9.63633C13.387 9.69403 13.5216 9.71325 13.6563 9.69402C13.7717 9.65555 13.8871 9.57861 13.964 9.50167C14.041 9.4055 14.0987 9.29011 14.1371 9.1747C14.2526 8.82848 14.2333 8.4438 14.1179 8.09759C14.041 7.84754 13.9063 7.59749 13.714 7.44362C13.6178 7.36668 13.5024 7.28974 13.387 7.2705C13.2716 7.23204 13.137 7.25126 13.0215 7.30896C12.8869 7.36667 12.7907 7.48207 12.733 7.59748C12.6369 7.69365 12.6176 7.82829 12.5792 7.96293Z" fill="#2E2E2E"/>
<path d="M13.2331 7.75137C13.2716 7.8283 13.3677 7.86677 13.4447 7.94371C13.5024 8.02065 13.5601 8.07835 13.5985 8.15528C13.6562 8.30916 13.5408 8.53996 13.6755 8.65537C13.7139 8.69384 13.7909 8.69384 13.8294 8.65537C13.9832 8.52073 13.9448 8.23222 13.8871 8.03988C13.8294 7.86677 13.6947 7.69366 13.5216 7.59748C13.4447 7.55902 13.3293 7.52055 13.2523 7.57825C13.2139 7.61672 13.2139 7.69366 13.2331 7.75137Z" fill="url(#paint7_linear)"/>
<path d="M12.0215 11.7329C12.0215 11.7714 12.0407 11.8099 12.0599 11.8483C12.0984 11.906 12.1561 11.9637 12.2138 12.0022C12.2715 12.0406 12.3292 12.0791 12.3869 12.1176C12.6947 12.3099 12.964 12.5984 13.1948 12.887C13.5025 13.2909 13.7718 13.714 14.1757 14.0025C14.4642 14.1949 14.8105 14.3103 15.1567 14.3488C15.5606 14.3872 15.9837 14.3295 16.3877 14.2141C16.7531 14.0987 17.1186 13.9641 17.4455 13.7525C18.061 13.3678 18.5804 12.81 19.2728 12.56C19.4267 12.5023 19.5806 12.4638 19.7152 12.4061C19.8691 12.3292 20.0037 12.233 20.0614 12.0984C20.1191 11.9637 20.1191 11.8099 20.1383 11.656C20.1576 11.5021 20.2153 11.329 20.2345 11.1751C20.2537 11.0212 20.273 10.8481 20.196 10.6943C20.1383 10.5789 20.0422 10.4827 19.9075 10.4058C19.7921 10.348 19.6575 10.3096 19.5228 10.3096C19.2536 10.2903 18.9843 10.3673 18.715 10.3865C18.3496 10.425 18.0033 10.3673 17.6379 10.3865C17.1955 10.4057 16.7531 10.5019 16.3107 10.5212C15.7914 10.5404 15.2913 10.4634 14.772 10.4442C14.5412 10.4442 14.3296 10.4442 14.118 10.4827C13.9064 10.5211 13.6949 10.5981 13.5025 10.7135C13.3294 10.8289 13.1755 11.002 13.0217 11.1366C12.9447 11.2136 12.8486 11.2713 12.7524 11.3098C12.6562 11.3482 12.5408 11.3867 12.4446 11.3867C12.3869 11.3867 12.3292 11.3867 12.2715 11.3867C12.2331 11.4059 12.2138 11.4251 12.1754 11.4444C12.1561 11.4636 12.1369 11.5021 12.1177 11.5213C12.0984 11.579 12.06 11.656 12.0215 11.7329Z" fill="url(#paint8_radial)"/>
<path d="M14.0219 12.2715C13.9642 12.483 14.0026 12.7138 14.118 12.9062C14.2334 13.0985 14.4066 13.2524 14.6181 13.3293C14.8874 13.4255 15.1952 13.3678 15.4452 13.2524C15.5991 13.1755 15.7145 13.0793 15.8107 12.9254C15.8491 12.8485 15.8876 12.7715 15.8876 12.6946C15.9068 12.6177 15.8876 12.5407 15.8684 12.4446C15.8299 12.3676 15.7914 12.2907 15.7145 12.233C15.6375 12.1753 15.5606 12.1368 15.4837 12.0983C15.3106 12.0406 15.1375 12.0406 14.9451 12.0406C14.6758 12.0599 14.4066 12.0791 14.1373 12.1368" fill="#ACACAC"/>
<path d="M13.1562 10.5981C12.9831 10.7135 12.81 10.8289 12.6369 10.9443C12.5407 11.002 12.4638 11.079 12.4061 11.1751C12.3676 11.2521 12.3676 11.329 12.3676 11.4059C12.3676 11.4829 12.3676 11.5598 12.3676 11.6367C12.3676 11.6944 12.3484 11.7329 12.3484 11.7906C12.3484 11.8099 12.3484 11.8483 12.3484 11.8676C12.3484 11.8868 12.3676 11.9253 12.3869 11.9445C12.4061 11.9637 12.4446 11.983 12.483 12.0022C12.5215 12.0214 12.5407 12.0214 12.5792 12.0214C12.7331 12.0599 12.8677 12.1561 13.0024 12.2715C13.1178 12.3869 13.2332 12.5023 13.3678 12.5984C13.714 12.887 14.1564 13.0024 14.5988 13.0024C15.0412 13.0024 15.4836 12.9254 15.9067 12.8293C16.2529 12.7523 16.5799 12.6754 16.9069 12.56C17.407 12.3676 17.8686 12.0984 18.2726 11.7522C18.4457 11.5983 18.6188 11.4252 18.8303 11.2905C19.0034 11.1751 19.215 11.0982 19.4074 11.002C19.4266 10.9828 19.4458 10.9828 19.4458 10.9635C19.4651 10.9443 19.4651 10.9443 19.4843 10.9251C19.5035 10.8866 19.5035 10.8674 19.4843 10.8289C19.4651 10.7904 19.4651 10.7712 19.4266 10.7327C19.4074 10.7135 19.3689 10.675 19.3497 10.6558C19.1573 10.4827 18.888 10.425 18.638 10.4058C18.3879 10.3865 18.1379 10.4057 17.8879 10.348C17.6571 10.3096 17.4262 10.2134 17.1954 10.1557C16.9646 10.0788 16.7146 10.0211 16.4645 9.98259C15.8875 9.88642 15.2912 9.90567 14.7142 10.0211C14.1564 10.1172 13.6371 10.3096 13.1562 10.5981Z" fill="#454545"/>
<path d="M13.0986 10.0018C12.8293 10.1749 12.5985 10.3865 12.4062 10.6365C12.2908 10.7711 12.1946 10.925 12.1369 11.0981C12.0984 11.2328 12.0792 11.3674 12.0407 11.5213C12.0215 11.579 12.0215 11.6174 12.0215 11.6752C12.0215 11.6944 12.0215 11.7329 12.0407 11.7521C12.0407 11.7713 12.06 11.8098 12.0792 11.829C12.1177 11.8675 12.1561 11.8867 12.1946 11.8867C12.2331 11.8867 12.2908 11.906 12.3292 11.906C12.5216 11.9252 12.7139 12.0214 12.8678 12.1368C13.0217 12.2522 13.1755 12.3868 13.3486 12.483C13.7141 12.7138 14.1565 12.8292 14.5989 12.8292C15.0413 12.8484 15.4644 12.7715 15.9068 12.6946C16.253 12.6176 16.58 12.5407 16.907 12.4253C17.4071 12.233 17.8495 11.9252 18.2726 11.6174C18.465 11.4636 18.6573 11.3289 18.8304 11.1558C18.8881 11.0981 18.9458 11.0404 19.0035 10.9827C19.0612 10.925 19.1382 10.8865 19.2151 10.8673C19.3305 10.8288 19.4651 10.8481 19.5805 10.8673C19.6767 10.8865 19.7729 10.9058 19.8691 10.9058C19.9075 10.9058 19.9652 10.8866 20.0037 10.8866C20.0422 10.8673 20.0806 10.8481 20.1191 10.8096C20.1576 10.7519 20.1768 10.6942 20.1768 10.6365C20.1768 10.5788 20.1576 10.5211 20.1191 10.4634C20.0614 10.348 19.946 10.2903 19.8306 10.2326C19.6767 10.1556 19.5036 10.1364 19.3497 10.0979C18.8496 9.98252 18.3496 9.79019 17.8879 9.55938C17.6571 9.44398 17.4263 9.30933 17.1955 9.19393C16.9647 9.07852 16.7146 8.94389 16.4646 8.86695C15.8876 8.69385 15.2721 8.75153 14.7143 8.94387C14.0796 9.11698 13.5218 9.48243 13.0986 10.0018Z" fill="url(#paint9_linear)"/>
<path d="M17.0992 10.1172C17.0607 10.0788 17.0222 10.0595 16.9838 10.0403C16.9453 10.0211 16.8876 10.0211 16.8299 10.0403C16.7337 10.0595 16.6375 10.1172 16.5606 10.1749C16.3298 10.3288 16.1182 10.5212 15.9451 10.752C15.7143 11.0405 15.522 11.3675 15.445 11.7329C15.4258 11.7906 15.4258 11.8483 15.4258 11.9252C15.4258 11.983 15.4643 12.0407 15.5027 12.0984C15.5412 12.1368 15.5989 12.1561 15.6566 12.1753C15.7143 12.1753 15.772 12.1753 15.8105 12.1561C15.9066 12.1176 16.0028 12.0407 16.0798 11.983C16.5221 11.579 16.9453 11.0982 17.0992 10.5212C17.1184 10.4635 17.1376 10.4058 17.1376 10.348C17.1569 10.2326 17.1376 10.1749 17.0992 10.1172Z" fill="#F7DB4A"/>
<g opacity="0.8">
<path opacity="0.8" d="M16.0222 9.29019C16.0607 9.38636 16.2145 9.36712 16.3107 9.42482C16.3877 9.46329 16.4646 9.55948 16.5608 9.55948C16.6569 9.55948 16.7916 9.52101 16.7916 9.44408C16.8108 9.32867 16.6377 9.25172 16.5223 9.21325C16.3877 9.15555 16.1953 9.13632 16.0799 9.19402C16.0414 9.21326 16.003 9.25172 16.0222 9.29019Z" fill="url(#paint10_radial)"/>
</g>
<g opacity="0.8">
<path opacity="0.8" d="M14.4642 9.23253C14.3488 9.19406 14.1373 9.40564 14.2142 9.50181C14.2334 9.54028 14.2911 9.55952 14.3296 9.55952C14.3873 9.52105 14.4258 9.42488 14.4835 9.38641C14.522 9.34794 14.5219 9.25176 14.4642 9.23253Z" fill="url(#paint11_radial)"/>
</g>
<path d="M20.2152 10.8097C20.1768 11.079 19.9844 11.2906 19.7728 11.2906C19.5613 11.2906 19.4074 11.079 19.4459 10.8097C19.4843 10.5404 19.6767 10.3289 19.8882 10.3289C20.0806 10.3289 20.2345 10.5404 20.2152 10.8097Z" fill="url(#paint12_linear)"/>
<path d="M12.6561 6.94352C13.0216 6.73195 13.464 6.67423 13.8871 6.7127C14.3103 6.75117 14.7142 6.86658 15.1181 6.98198C15.4259 7.05892 15.7144 7.13586 16.0029 7.2705C16.2914 7.40514 16.5415 7.59747 16.6953 7.86675C16.7146 7.90522 16.7338 7.96294 16.7723 8.00141C16.7915 8.03988 16.83 8.07834 16.8684 8.11681C16.9069 8.15528 16.9646 8.1745 17.0031 8.15527C17.0223 8.15527 17.0608 8.15527 17.08 8.13604C17.0993 8.1168 17.1185 8.09756 17.1377 8.07833C17.157 8.05909 17.157 8.02064 17.157 8.00141C17.157 7.98217 17.157 7.9437 17.1377 7.92447C17.0416 7.55901 16.7915 7.23202 16.6184 6.90504C16.503 6.69346 16.4261 6.4819 16.3107 6.28955C15.926 5.59712 15.3105 5.05855 14.5988 4.6931C13.8871 4.34688 13.0985 4.17377 12.2907 4.11607C11.3674 4.05837 10.4442 4.17377 9.54019 4.32764C9.15551 4.40458 8.75158 4.48153 8.40536 4.67387C8.23226 4.77004 8.07839 4.90468 7.94375 5.05856C7.82834 5.21243 7.73217 5.40478 7.69371 5.59712C7.67447 5.78947 7.6937 5.98179 7.77064 6.1549C7.82834 6.32801 7.94374 6.50113 8.05915 6.65501C8.3092 6.96276 8.61695 7.19356 8.90546 7.44361C9.19398 7.69365 9.46326 7.98217 9.771 8.19375C9.92488 8.30916 10.098 8.38608 10.2903 8.44378C10.4827 8.50148 10.675 8.50148 10.8674 8.46301C11.0597 8.42454 11.252 8.32838 11.4059 8.21298C11.5598 8.09757 11.6944 7.94369 11.8291 7.78981C12.0599 7.48206 12.3099 7.1551 12.6561 6.94352Z" fill="url(#paint13_radial)"/>
<path d="M25.466 19.869C26.2931 20.523 26.8124 21.5232 26.9663 22.5618C27.1009 23.3697 27.0048 24.1967 26.8317 25.0046C26.6393 25.8124 26.37 26.5818 26.0815 27.3512C25.9661 27.6589 25.8507 27.9667 25.8123 28.2937C25.7738 28.6206 25.793 28.9669 25.9469 29.2554C26.12 29.5823 26.4662 29.8132 26.8317 29.9286C27.1779 30.0247 27.5626 30.0247 27.928 29.9478C28.2935 29.8516 28.6205 29.6785 28.9282 29.4669C29.6784 28.8899 30.1207 27.9859 30.2938 27.0627C30.467 26.1394 30.39 25.1777 30.2169 24.2545C30.0053 22.985 29.6206 21.754 29.159 20.5615C28.8128 19.6767 28.4089 18.8304 27.8318 18.061C27.2741 17.3301 26.5624 16.6954 26.0238 15.9645C25.6391 15.4451 25.3314 14.8681 24.889 14.4065C24.6582 14.1757 24.3889 13.9834 24.1004 13.868C23.7927 13.7525 23.4657 13.7141 23.1579 13.8102C22.754 13.9256 22.4078 14.2526 22.2347 14.6373C22.0616 15.022 22.0231 15.4644 22.1 15.8876C22.1962 16.4261 22.4463 16.9262 22.7155 17.3878C23.0233 17.9264 23.3887 18.4265 23.8696 18.8304C24.3697 19.1958 24.966 19.4651 25.466 19.869Z" fill="#020204"/>
<path d="M23.5234 18.5996C23.5811 18.6573 23.6581 18.7342 23.735 18.792C24.2351 19.1959 24.5044 19.6575 25.0237 20.0614C25.87 20.7154 26.7163 21.8502 26.8702 22.8888C27.0048 23.6967 26.8317 24.1391 26.6202 25.1008C26.4086 26.0625 25.8315 27.4089 25.5046 28.3321C25.3699 28.6976 25.7546 28.5437 25.7161 28.9284C25.6969 29.1207 25.6969 29.3131 25.7161 29.5054C25.7161 29.467 25.7161 29.4285 25.7354 29.39C25.7931 28.8515 25.9662 28.3514 26.1393 27.8513C26.4855 26.8896 26.8702 25.9471 27.1395 24.9661C27.4088 23.9852 27.3895 23.2735 27.2356 22.4272C27.0625 21.3693 26.4278 20.3884 25.5623 19.7344C24.9275 19.292 24.1966 18.9843 23.5234 18.5996Z" fill="#838383"/>
<g opacity="0.25">
<path opacity="0.25" d="M10.6943 18.0033C10.8289 18.2149 10.6173 18.9266 13.8102 18.465C13.8102 18.465 13.2524 18.5227 12.6946 18.6573C11.8291 18.9458 11.079 19.2728 10.5019 19.6959C9.92491 20.1191 9.50175 20.6577 8.98242 21.1385C8.98242 21.1385 9.82873 19.5805 10.0403 19.1189C10.2519 18.6573 10.0018 18.6765 10.1749 17.9841C10.3481 17.2917 10.752 16.6377 10.752 16.6377C10.752 16.6377 10.425 17.5994 10.6943 18.0033Z" fill="url(#paint14_radial)"/>
</g>
<g opacity="0.42">
<path opacity="0.42" d="M20.9845 17.8109C20.3305 18.2533 19.9458 18.2148 19.1572 18.2918C18.3686 18.388 16.2144 18.3495 16.2144 18.3495C16.2144 18.3495 16.5221 18.3495 17.2145 18.4649C17.907 18.5995 19.3111 18.7149 20.0997 19.0034C20.8883 19.3112 21.1768 19.3881 21.6576 19.6959C22.3501 20.119 22.8502 20.7922 23.5041 21.2731C23.5041 21.2731 23.5426 20.6383 23.2733 20.1767C23.0041 19.7151 22.2924 18.965 22.1 18.2918C21.8885 17.5993 21.7923 16.2529 21.7923 16.2529C21.7923 16.2529 21.6384 17.3493 20.9845 17.8109Z" fill="url(#paint15_radial)"/>
</g>
<g opacity="0.2">
<path opacity="0.2" d="M14.8489 16.8492C14.8297 17.0416 14.7912 17.2339 14.7527 17.4263C14.7335 17.5224 14.7143 17.6186 14.6758 17.7148C14.6373 17.811 14.5796 17.8879 14.5219 17.9648C14.4642 18.0225 14.3873 18.061 14.3103 18.0995C14.0026 18.2341 13.6756 18.3303 13.3486 18.3687C13.4833 18.3687 13.6179 18.388 13.7526 18.4072C13.8295 18.4072 13.9257 18.4264 14.0026 18.4457C14.0795 18.4649 14.1565 18.5034 14.2334 18.5418C14.3104 18.5995 14.368 18.6765 14.4065 18.7534C14.5027 18.9073 14.5219 19.0996 14.5412 19.2728C14.5604 19.5036 14.5604 19.7344 14.5412 19.9652C14.5604 19.8113 14.5989 19.6574 14.6373 19.5036C14.7335 19.2343 14.8681 18.9842 15.0605 18.7727C15.1374 18.6957 15.2144 18.6188 15.3105 18.5418C15.599 18.3495 15.9453 18.2533 16.2915 18.311C15.9453 18.3303 15.599 18.2149 15.3105 18.0033C15.1759 17.8879 15.0413 17.7725 14.9643 17.6186C14.8297 17.3878 14.7912 17.1185 14.8489 16.8492Z" fill="url(#paint16_radial)"/>
</g>
<g opacity="0.11">
<path opacity="0.11" d="M14.0217 21.427C13.8486 22.0617 13.7332 22.6965 13.6755 23.3504C13.5985 24.2737 13.6178 25.1969 13.5601 26.1009C13.5216 26.8895 13.4254 27.6781 13.5601 28.4475C13.6178 28.813 13.7332 29.1784 13.9063 29.5054C13.9255 29.3708 13.9447 29.2553 13.964 29.1207C14.0217 28.5052 13.9255 27.8705 13.887 27.2358C13.8293 26.1394 13.9832 25.043 14.0409 23.9467C14.0794 23.1196 14.0794 22.2733 14.0217 21.427Z" fill="#161616"/>
</g>
<path d="M21.6192 11.9637C21.3307 12.233 21.7539 12.6369 21.9655 13.0986C22.0809 13.3871 22.4463 13.8102 22.7733 13.7333C23.0233 13.6756 23.1772 13.3101 23.158 13.0601C23.1195 12.56 22.6964 12.4446 22.3886 12.2715C22.1578 12.1561 21.8308 11.7906 21.6192 11.9637Z" fill="#838383"/>
<g opacity="0.2">
<path opacity="0.2" d="M31.0057 33.6792C30.948 33.8908 30.8518 34.0832 30.7172 34.2755C30.4479 34.6794 30.044 34.9872 29.64 35.2757C28.9668 35.7565 28.2552 36.1989 27.6204 36.7375C27.1973 37.1029 26.8126 37.5069 26.4472 37.9492C26.1394 38.3147 25.8509 38.6994 25.5047 39.0264C25.1585 39.3533 24.7353 39.6226 24.2929 39.7765C23.7544 39.9496 23.1773 39.9496 22.6388 39.815C22.2733 39.7188 21.9079 39.5649 21.677 39.2572C21.4462 38.9687 21.3693 38.5647 21.3501 38.18C21.3116 37.4876 21.3885 36.776 21.4655 36.0835C21.5232 35.5065 21.5809 34.9102 21.6193 34.3332C21.6578 33.2753 21.6001 32.2367 21.4462 31.198C21.427 31.0249 21.3885 30.8518 21.4078 30.6787C21.427 30.5056 21.4847 30.3132 21.6001 30.1786C21.7155 30.0632 21.8694 29.9863 22.0425 29.9478C22.1964 29.9093 22.3695 29.9093 22.5234 29.9093C22.908 29.8901 23.2927 29.8708 23.6582 29.9093C23.889 29.9285 24.1198 29.967 24.3698 29.9863C24.7545 30.0247 25.1777 30.0055 25.5624 29.8901C25.9855 29.7747 26.3895 29.5246 26.8318 29.4669C27.005 29.4477 27.178 29.4477 27.3704 29.4669C27.5627 29.4862 27.7166 29.5439 27.8512 29.6401C27.9474 29.717 28.0244 29.8324 28.0821 29.9478C28.159 30.1209 28.2167 30.3132 28.2552 30.5248C28.2744 30.6979 28.2936 30.8903 28.3321 31.0634C28.409 31.3519 28.5821 31.5827 28.7937 31.7751C29.0053 31.9674 29.2361 32.1213 29.4862 32.2751C29.7362 32.429 29.967 32.5829 30.2171 32.6983C30.3325 32.756 30.4671 32.8137 30.5825 32.8714C30.6979 32.9483 30.8133 33.0253 30.8903 33.1407C31.0057 33.2946 31.0441 33.4869 31.0057 33.6792Z" fill="url(#paint17_linear)"/>
</g>
<path d="M33.7176 34.1985C33.6214 34.4293 33.506 34.6409 33.3329 34.8333C32.9867 35.2564 32.4866 35.5257 31.9865 35.7757C31.1595 36.1989 30.2747 36.5836 29.4861 37.0837C28.9667 37.4299 28.4667 37.8338 28.0243 38.2569C27.6396 38.6224 27.2741 39.0263 26.8318 39.3341C26.3894 39.661 25.8893 39.8726 25.3507 39.9688C24.6967 40.065 24.0235 39.9303 23.4081 39.6803C22.9849 39.5072 22.581 39.2379 22.3309 38.834C22.0809 38.4493 22.0232 37.9684 22.0232 37.5068C22.0232 36.6797 22.1771 35.8719 22.3117 35.0641C22.4271 34.3909 22.5425 33.7177 22.6195 33.0445C22.7541 31.8135 22.7541 30.5825 22.6579 29.3322C22.6387 29.1207 22.6195 28.9091 22.6579 28.7168C22.6964 28.5052 22.7733 28.3128 22.9272 28.1782C23.0811 28.0628 23.2734 28.0051 23.4658 27.9858C23.6581 27.9858 23.8504 28.0051 24.0428 28.0436C24.4852 28.1013 24.9468 28.1589 25.3892 28.2744C25.6585 28.3513 25.9277 28.4475 26.2162 28.5244C26.6779 28.6398 27.1587 28.7167 27.6396 28.659C28.1397 28.6013 28.6398 28.409 29.1591 28.4282C29.3707 28.4282 29.5822 28.4667 29.7746 28.5436C29.9862 28.6013 30.1785 28.6975 30.3324 28.8514C30.4478 28.9668 30.5247 29.1207 30.5824 29.2553C30.6786 29.4861 30.7171 29.7169 30.7363 29.967C30.7555 30.1786 30.7555 30.3901 30.794 30.6017C30.8517 30.9479 31.0441 31.2749 31.2749 31.5442C31.5057 31.8135 31.775 32.0443 32.0442 32.2751C32.3135 32.5059 32.5828 32.7367 32.8713 32.9291C33.006 33.0252 33.1598 33.1022 33.2752 33.2176C33.4099 33.3137 33.5253 33.4292 33.6022 33.583C33.7369 33.7369 33.7561 33.9677 33.7176 34.1985Z" fill="url(#paint18_linear)"/>
<path d="M33.2944 33.7754C33.2175 33.987 33.102 34.1793 32.9482 34.3524C32.6212 34.7371 32.1788 34.9871 31.7172 35.1987C30.9478 35.5834 30.1592 35.9104 29.4475 36.372C28.9667 36.6798 28.5243 37.0452 28.1012 37.4299C27.7549 37.7569 27.4087 38.1223 27.0048 38.3916C26.6009 38.6801 26.1392 38.8917 25.6392 38.9494C25.0429 39.0456 24.4274 38.9302 23.8696 38.6801C23.4849 38.507 23.1002 38.2762 22.8887 37.93C22.6579 37.5838 22.6194 37.1414 22.6194 36.7182C22.6194 35.9873 22.754 35.2564 22.8887 34.5255C23.0041 33.9293 23.1002 33.3138 23.1772 32.7175C23.2926 31.6019 23.2926 30.4863 23.2156 29.39C23.1964 29.1976 23.1964 29.0245 23.2156 28.8322C23.2349 28.6591 23.3118 28.4667 23.4657 28.3513C23.6003 28.2359 23.7734 28.1974 23.9466 28.1782C24.1197 28.159 24.2928 28.1975 24.4659 28.2167C24.8698 28.2744 25.2929 28.3321 25.6969 28.4283C25.9469 28.486 26.197 28.5821 26.447 28.6398C26.8702 28.7552 27.3125 28.8129 27.7357 28.7552C28.1973 28.6975 28.659 28.5244 29.1206 28.5437C29.3129 28.5437 29.5052 28.5821 29.6784 28.6398C29.8707 28.6975 30.0438 28.7745 30.1977 28.9091C30.2939 29.0053 30.3708 29.1399 30.4285 29.2746C30.5054 29.4862 30.5631 29.6977 30.5824 29.9093C30.5824 30.1401 30.5439 30.3709 30.5631 30.6018C30.5824 30.7941 30.6593 30.9672 30.7747 31.1211C30.8709 31.2749 31.0055 31.4288 31.1209 31.5635C31.3517 31.8327 31.5825 32.1213 31.8711 32.3328C32.198 32.5636 32.602 32.7175 32.9289 32.9291C33.0251 32.9868 33.1405 33.0637 33.1982 33.1791C33.2559 33.2561 33.2944 33.3522 33.3136 33.4676C33.3329 33.5638 33.3136 33.6792 33.2944 33.7754Z" fill="#8F6107"/>
<path d="M33.2367 33.5253C33.1406 33.7369 33.0252 33.9293 32.8905 34.1024C32.5635 34.5063 32.1019 34.7756 31.6403 34.9679C30.8709 35.2564 30.0054 35.2949 29.236 35.6411C28.7744 35.8527 28.3512 36.1604 27.9281 36.4489C27.5819 36.6798 27.2357 36.9106 26.851 37.0644C26.4278 37.2568 25.9662 37.353 25.5238 37.4299C25.2353 37.4684 24.9468 37.5068 24.6583 37.4876C24.3697 37.4684 24.0812 37.4107 23.812 37.2568C23.6196 37.1414 23.4465 36.9875 23.3311 36.7759C23.2157 36.5451 23.1965 36.2758 23.1965 36.0066C23.1965 35.2949 23.3503 34.6025 23.3503 33.91C23.3503 33.2945 23.2157 32.6983 23.1965 32.0828C23.1195 30.9095 23.3888 29.7169 23.158 28.5629C23.1195 28.3705 23.0811 28.1975 23.0811 28.0051C23.0811 27.9089 23.1003 27.8128 23.1388 27.7358C23.1772 27.6397 23.2349 27.5627 23.2926 27.505C23.3503 27.4665 23.4273 27.4281 23.5042 27.4088C23.5811 27.3896 23.6581 27.3896 23.735 27.4088C23.8889 27.4281 24.0235 27.4858 24.1582 27.5243C24.5621 27.6397 25.0045 27.6397 25.4084 27.7358C25.6584 27.7935 25.9277 27.8897 26.1778 27.9474C26.6202 28.0628 27.0625 28.1205 27.5049 28.0628C27.9858 28.0051 28.4474 27.832 28.9283 27.8512C29.1206 27.8512 29.313 27.8897 29.5053 27.9474C29.6976 28.0051 29.89 28.082 30.0246 28.2359C30.1208 28.3321 30.1977 28.4667 30.2554 28.6014C30.3516 28.813 30.4093 29.0245 30.4093 29.2361C30.4093 29.3515 30.3901 29.4669 30.3708 29.5823C30.3516 29.6977 30.3516 29.8131 30.3901 29.9285C30.4285 30.0439 30.4862 30.1401 30.5439 30.2363C30.6016 30.3325 30.6786 30.4094 30.7555 30.5056C30.9479 30.7556 31.0825 31.0441 31.2364 31.3326C31.3903 31.6211 31.5634 31.8904 31.7942 32.102C32.1211 32.3713 32.5251 32.4867 32.8905 32.6983C32.9867 32.756 33.1021 32.8329 33.179 32.9483C33.2367 33.0252 33.2752 33.1214 33.2944 33.2368C33.2752 33.333 33.2752 33.4292 33.2367 33.5253Z" fill="#F6C021"/>
<path d="M23.0619 28.6398C23.5043 28.5244 23.889 28.8514 24.1968 29.1015C24.4083 29.2746 24.6969 29.2361 24.9661 29.2361C25.3893 29.2169 25.8124 29.313 26.2356 29.2553C27.0627 29.1784 27.8897 28.986 28.7168 28.9476C29.1207 28.9283 29.5631 28.8899 29.9093 29.1399C30.044 29.2361 30.2556 29.64 30.3902 29.4861C30.3325 29.063 30.0055 28.6398 29.5823 28.5244C29.2554 28.4667 28.9092 28.5629 28.5629 28.5244C27.5628 28.5052 26.5626 28.3128 25.5624 28.3706C24.87 28.3706 24.1583 28.3513 23.4659 28.3129C23.1966 28.2552 23.1004 28.5052 22.9465 28.6014" fill="url(#paint19_linear)"/>
<g opacity="0.75">
<path opacity="0.75" d="M25.0429 20.5037C25.1967 20.4845 26.1969 21.3116 26.0623 21.6386C25.9277 21.9463 25.6776 21.754 25.4853 21.7732C25.2929 21.7732 24.8121 22.004 24.7159 21.8501C24.639 21.7155 24.9275 21.3693 25.1006 21.1C25.2352 20.8692 24.889 20.523 25.0429 20.5037Z" fill="#7C7C7C"/>
</g>
<g opacity="0.25">
<path opacity="0.25" d="M11.0596 15.2144C11.0404 15.022 10.7711 14.9836 10.6365 15.0797C10.5403 15.1567 10.4249 15.4452 10.521 15.5414C10.6749 15.7337 11.0788 15.4837 11.0596 15.2144Z" fill="#7C7C7C"/>
</g>
<g opacity="0.35">
<path opacity="0.35" d="M29.0437 29.313C28.9668 29.1592 28.8321 29.063 28.6782 28.9861C28.5244 28.9284 28.3513 28.9091 28.1974 28.9091C27.8704 28.9091 27.5242 29.0053 27.1972 28.9668C26.9087 28.9476 26.6394 28.8322 26.3701 28.7745C26.0816 28.7168 25.7931 28.6783 25.5046 28.7552C25.1968 28.8322 24.9276 29.0438 24.7737 29.2938C24.6198 29.5246 24.5621 29.7939 24.5429 30.0632C24.5236 30.3325 24.5429 30.6017 24.5621 30.8903C24.5813 31.0826 24.6006 31.2942 24.6583 31.4865C24.716 31.6789 24.7737 31.8712 24.9083 32.0251C25.0814 32.2559 25.3315 32.4098 25.6008 32.5252C26.0432 32.679 26.524 32.679 26.9664 32.5059C27.7358 32.1789 28.3705 31.5827 28.7744 30.8518C28.9091 30.5825 29.0245 30.3132 29.1014 30.0247C29.1399 29.9093 29.1591 29.7939 29.1591 29.6785C29.1206 29.5439 29.1014 29.4092 29.0437 29.313Z" fill="url(#paint20_radial)"/>
</g>
<g opacity="0.35">
<path opacity="0.35" d="M29.0437 29.1591C28.9668 29.0437 28.8321 28.9668 28.6782 28.9283C28.5244 28.8898 28.3513 28.8706 28.1974 28.8706C27.8704 28.8706 27.5242 28.9283 27.1972 28.9091C26.9087 28.8898 26.6394 28.8129 26.3701 28.7744C26.0816 28.7167 25.7931 28.6975 25.5046 28.7552C25.1968 28.8129 24.9276 28.9667 24.7737 29.1399C24.6198 29.313 24.5621 29.5053 24.5429 29.6977C24.5236 29.89 24.5429 30.0823 24.5621 30.2939C24.5813 30.4286 24.6006 30.5824 24.6583 30.7171C24.716 30.8517 24.7737 30.9864 24.9083 31.1018C25.0814 31.2749 25.3315 31.3903 25.6008 31.4672C26.0432 31.5826 26.524 31.5826 26.9664 31.448C27.7358 31.1979 28.3705 30.7748 28.7744 30.2555C28.9091 30.0631 29.0245 29.8708 29.1014 29.6592C29.1399 29.5823 29.1591 29.4861 29.1591 29.4091C29.1206 29.313 29.1014 29.236 29.0437 29.1591Z" fill="url(#paint21_radial)"/>
</g>
<path d="M29.6785 27.9282C29.6208 27.7743 29.5247 27.6397 29.4093 27.5435C29.2939 27.4281 29.1592 27.3511 29.0053 27.2934C28.7168 27.178 28.3898 27.1203 28.0821 27.0626C27.7936 27.0049 27.4858 26.9472 27.1973 26.8895C26.8896 26.8318 26.5626 26.8126 26.2741 26.8703C26.0048 26.928 25.7548 27.0626 25.5624 27.255C25.3508 27.4281 25.197 27.6589 25.1008 27.9089C24.9084 28.3513 24.8315 28.8322 24.87 29.313C24.9084 29.6593 24.9854 30.0247 25.2162 30.294C25.4085 30.5056 25.6778 30.6402 25.9471 30.7364C26.428 30.871 26.9473 30.871 27.4089 30.7171C28.1975 30.4479 28.8707 29.9478 29.3516 29.2746C29.5054 29.0438 29.6401 28.8129 29.6978 28.5437C29.7362 28.3321 29.7555 28.1205 29.6785 27.9282Z" fill="#2E2E2E"/>
<path d="M26.4278 26.7356C26.3508 26.7356 26.2739 26.7549 26.2162 26.7549C25.7545 26.8318 25.3122 27.1395 25.0814 27.5435C24.9083 27.832 24.8313 28.1782 24.8505 28.5052C24.8505 28.2744 24.9275 28.0435 25.0429 27.832C25.2352 27.4858 25.5814 27.2165 25.9854 27.1395C26.2354 27.1011 26.4855 27.1203 26.7163 27.1588C26.9471 27.1972 27.1779 27.2165 27.4279 27.2742C27.7934 27.3511 28.1396 27.4665 28.4474 27.6781C28.5243 27.7358 28.582 27.7743 28.6397 27.8512C28.6974 27.9089 28.7359 27.9858 28.7551 28.082C28.7743 28.1974 28.7359 28.3321 28.6782 28.4475C28.6205 28.5629 28.5243 28.659 28.4474 28.736C28.3704 28.8129 28.2935 28.8706 28.2165 28.9475C28.5628 28.8898 28.909 28.7937 29.1975 28.5821C29.3129 28.5052 29.4283 28.3898 29.5052 28.2743C29.5822 28.1397 29.6014 27.9858 29.5822 27.8512C29.5629 27.755 29.5052 27.6589 29.4283 27.5819C29.3514 27.505 29.2744 27.4473 29.1975 27.3896C28.832 27.1395 28.4089 26.9664 27.9665 26.9279C27.678 26.8702 27.4087 26.8318 27.1202 26.7933C26.8894 26.7356 26.6586 26.7164 26.4278 26.7356Z" fill="url(#paint22_radial)"/>
<path d="M26.4278 26.7356C26.3508 26.7356 26.2739 26.7549 26.2162 26.7549C25.7545 26.8318 25.3122 27.1395 25.0814 27.5435C24.9083 27.832 24.8313 28.1782 24.8505 28.5052C24.8505 28.2744 24.9275 28.0435 25.0429 27.832C25.2352 27.4858 25.5814 27.2165 25.9854 27.1395C26.2354 27.1011 26.4855 27.1203 26.7163 27.1588C26.9471 27.1972 27.1779 27.2165 27.4279 27.2742C27.7934 27.3511 28.1396 27.4665 28.4474 27.6781C28.5243 27.7358 28.582 27.7743 28.6397 27.8512C28.6974 27.9089 28.7359 27.9858 28.7551 28.082C28.7743 28.1974 28.7359 28.3321 28.6782 28.4475C28.6205 28.5629 28.5243 28.659 28.4474 28.736C28.3704 28.8129 28.2935 28.8706 28.2165 28.9475C28.5628 28.8898 28.909 28.7937 29.1975 28.5821C29.3129 28.5052 29.4283 28.3898 29.5052 28.2743C29.5822 28.1397 29.6014 27.9858 29.5822 27.8512C29.5629 27.755 29.5052 27.6589 29.4283 27.5819C29.3514 27.505 29.2744 27.4473 29.1975 27.3896C28.832 27.1395 28.4089 26.9664 27.9665 26.9279C27.678 26.8702 27.4087 26.8318 27.1202 26.7933C26.8894 26.7356 26.6586 26.7164 26.4278 26.7356Z" fill="url(#paint23_linear)"/>
<path d="M11.0404 14.3295C10.6557 14.7911 10.2903 15.272 9.9056 15.7336C9.52091 16.2144 9.13623 16.6953 8.75154 17.1761C8.27069 17.7724 7.78982 18.3687 7.48207 19.0611C7.21279 19.6574 7.09739 20.3113 6.90505 20.9268C6.69347 21.6385 6.40495 22.3309 6.0972 22.9849C5.80869 23.6004 5.48172 24.1966 5.15473 24.8121C4.92392 25.2545 4.67387 25.6969 4.59693 26.197C4.53923 26.5817 4.5777 26.9856 4.67388 27.3703C4.77005 27.755 4.92392 28.1204 5.11626 28.4667C5.88563 29.9669 7.03968 31.2364 8.40532 32.2173C9.02081 32.6597 9.69402 33.0444 10.3865 33.3714C10.7711 33.5445 11.1558 33.6984 11.579 33.6984C11.7905 33.6984 12.0021 33.6599 12.1752 33.583C12.3676 33.506 12.5407 33.3714 12.6561 33.1983C12.7907 32.9867 12.8484 32.7174 12.81 32.4674C12.7907 32.2173 12.6753 31.9673 12.5599 31.7557C12.2329 31.2364 11.7328 30.8517 11.2328 30.467C10.1749 29.6399 9.13622 28.7936 8.15527 27.8704C7.88599 27.6203 7.59749 27.3511 7.40514 27.0241C7.2128 26.7163 7.11663 26.3509 7.03969 25.9855C6.84735 25.0045 6.90505 23.9466 7.23203 23.0041C7.36667 22.6387 7.53978 22.2732 7.71289 21.927C8.0014 21.3115 8.28992 20.6768 8.6746 20.119C9.15546 19.4073 9.79019 18.8111 10.1749 18.0609C10.5019 17.4262 10.6365 16.7145 10.7711 16.0029C10.8481 15.4451 10.9442 14.8873 11.0404 14.3295Z" fill="#2E2E2E"/>
<g opacity="0.95">
<g opacity="0.95" filter="url(#filter0_f)">
<path d="M8.84783 19.6959C8.54008 19.9844 8.2708 20.3114 8.03998 20.6769C7.67453 21.2731 7.46296 21.9463 7.21291 22.6003C7.02057 23.0812 6.78975 23.562 6.77052 24.0813C6.75128 24.3506 6.78975 24.6199 6.80899 24.8892C6.80899 25.1585 6.78976 25.4277 6.65512 25.6585C6.53971 25.8509 6.36661 26.0048 6.15503 26.0817C6.44354 26.1779 6.69359 26.351 6.88593 26.601C7.0398 26.8126 7.13597 27.0434 7.27061 27.255C7.38602 27.4281 7.50142 27.6012 7.67453 27.7166C7.8284 27.8513 8.02075 27.9282 8.23233 27.9667C8.36697 27.9859 8.52084 27.9667 8.65548 27.9282C8.79012 27.8897 8.90552 27.8128 9.02093 27.7166C8.77088 25.2739 9.0017 22.8119 9.71337 20.4653C9.75184 20.3114 9.80954 20.1768 9.80954 20.0229C9.82877 19.869 9.7903 19.7152 9.69413 19.5805C9.63642 19.5228 9.57872 19.4651 9.50178 19.4266C9.42485 19.3882 9.34791 19.3882 9.25174 19.3882C9.1748 19.3882 9.09786 19.4267 9.02093 19.4844C8.94399 19.5613 8.8863 19.619 8.84783 19.6959Z" fill="#7C7C7C"/>
</g>
</g>
<path d="M5.50099 27.3512C5.71257 27.255 5.96261 27.255 6.19342 27.2934C6.42423 27.3319 6.63582 27.4281 6.82816 27.5627C7.21285 27.832 7.50136 28.1975 7.77064 28.5821C8.40537 29.4477 9.02086 30.3324 9.55942 31.2557C10.0018 32.0058 10.425 32.7752 10.9443 33.4676C11.2905 33.9293 11.656 34.3524 12.0022 34.7948C12.3484 35.2564 12.6369 35.7373 12.7908 36.2951C12.9831 37.0068 12.9062 37.7953 12.5792 38.4493C12.3484 38.9109 11.9829 39.2956 11.5213 39.5649C11.0789 39.8342 10.5596 39.9688 10.021 39.9496C9.19397 39.9111 8.44384 39.5072 7.67446 39.1995C6.11649 38.584 4.40465 38.3724 2.78897 37.8915C2.28888 37.7376 1.80802 37.5646 1.30793 37.4299C1.07712 37.3722 0.865535 37.3145 0.653958 37.2183C0.442381 37.1221 0.250036 36.9875 0.13463 36.7759C0.0384591 36.6221 0 36.4489 0 36.2566C0 36.0835 0.0384685 35.9104 0.0961713 35.7373C0.211577 35.4103 0.403917 35.1026 0.538557 34.7756C0.750134 34.237 0.788605 33.6407 0.769371 33.0637C0.730902 32.4867 0.653956 31.9097 0.615487 31.3326C0.596253 31.0826 0.59626 30.8133 0.634728 30.5633C0.692431 30.3132 0.7886 30.0632 0.980943 29.8901C1.15405 29.717 1.38486 29.6208 1.61567 29.5823C1.84648 29.5246 2.09653 29.5246 2.32734 29.5439C2.55815 29.5439 2.8082 29.5631 3.03901 29.5439C3.26982 29.5246 3.51986 29.4669 3.73144 29.3515C3.92378 29.2361 4.0969 29.063 4.23154 28.8899C4.36618 28.7168 4.48158 28.5052 4.57775 28.3129C4.69316 28.1205 4.80856 27.9089 4.9432 27.7358C5.1163 27.582 5.28942 27.4281 5.50099 27.3512Z" fill="url(#paint24_linear)"/>
<path d="M5.84718 27.7166C6.03952 27.6396 6.27033 27.6204 6.48191 27.6781C6.69349 27.7165 6.88583 27.832 7.03971 27.9474C7.36669 28.1974 7.61673 28.5629 7.82831 28.9283C8.36687 29.7938 8.8862 30.6786 9.38629 31.5634C9.77098 32.2366 10.1172 32.929 10.5788 33.5445C10.8866 33.9484 11.2328 34.3331 11.5405 34.7371C11.8483 35.141 12.1368 35.5834 12.2714 36.0642C12.4445 36.6989 12.3868 37.3914 12.0598 37.9876C11.829 38.4108 11.5021 38.757 11.0789 39.0071C10.675 39.2571 10.1941 39.3533 9.71327 39.334C8.96314 39.2956 8.2707 38.9301 7.55903 38.6608C6.1934 38.1607 4.71236 38.1031 3.30826 37.7184C2.80816 37.5837 2.30808 37.3914 1.80799 37.276C1.57717 37.2183 1.3656 37.1798 1.15403 37.0836C0.94245 36.9875 0.750105 36.8528 0.6347 36.6605C0.557763 36.5066 0.519287 36.3335 0.519287 36.1604C0.519287 35.9873 0.576997 35.8142 0.6347 35.6603C0.750105 35.3333 0.942446 35.0448 1.07709 34.7371C1.26943 34.2562 1.28867 33.7176 1.2502 33.2176C1.21173 32.6982 1.13478 32.1981 1.09632 31.6788C1.07708 31.448 1.07708 31.2172 1.13479 30.9864C1.17325 30.7556 1.28867 30.544 1.44254 30.3709C1.61565 30.1978 1.86569 30.1016 2.11574 30.0631C2.36579 30.0247 2.61582 30.0439 2.86587 30.0631C3.11592 30.0824 3.36597 30.1208 3.61601 30.1016C3.86606 30.0824 4.1161 30.0247 4.32768 29.89C4.52002 29.7554 4.65466 29.5823 4.77007 29.3707C4.88547 29.1784 4.9624 28.9668 5.03934 28.7552C5.11628 28.5436 5.21245 28.332 5.34709 28.1589C5.4625 27.9666 5.6356 27.7935 5.84718 27.7166Z" fill="#B17E05"/>
<path d="M5.65492 27.2358C5.84726 27.1396 6.07807 27.1204 6.27042 27.1588C6.48199 27.1973 6.67434 27.3127 6.84745 27.4281C7.17443 27.6974 7.386 28.0821 7.57834 28.4475C8.02073 29.2938 8.44388 30.1786 8.98244 30.9865C9.36713 31.5635 9.80952 32.1213 10.2134 32.6983C10.752 33.4869 11.1752 34.3524 11.3675 35.2757C11.4829 35.9104 11.4829 36.5836 11.1752 37.1414C10.9828 37.5069 10.6558 37.8146 10.2711 38.007C9.88646 38.1993 9.44407 38.2762 9.02091 38.2378C8.34772 38.1801 7.73223 37.8531 7.11673 37.6223C6.00114 37.2184 4.78938 37.1222 3.63532 36.8144C3.15446 36.6798 2.67361 36.5259 2.17352 36.4105C1.96194 36.372 1.73113 36.3336 1.51955 36.2566C1.30797 36.1797 1.11563 36.0451 1.00022 35.8527C0.923287 35.7181 0.904053 35.5642 0.904053 35.4103C0.923287 35.2565 0.961763 35.1026 1.01947 34.9679C1.13487 34.6794 1.30798 34.4294 1.40415 34.1409C1.53879 33.7177 1.48108 33.2369 1.38491 32.8137C1.28874 32.3713 1.13486 31.9482 1.0964 31.5058C1.07716 31.3134 1.07717 31.1019 1.11564 30.9095C1.15411 30.7172 1.25028 30.5248 1.40415 30.3902C1.59649 30.2171 1.86578 30.1209 2.11582 30.1017C2.3851 30.0824 2.63514 30.1209 2.90442 30.1401C3.1737 30.1786 3.42374 30.2171 3.69302 30.1978C3.9623 30.1786 4.23159 30.1209 4.42393 29.9478C4.63551 29.7939 4.75091 29.5439 4.82785 29.3131C4.90478 29.0823 4.92402 28.813 4.96249 28.5629C5.00096 28.3129 5.03942 28.0628 5.13559 27.8128C5.27023 27.5628 5.42411 27.3319 5.65492 27.2358Z" fill="#F6BE0C"/>
<path d="M8.05908 29.3516C8.4053 29.9863 8.63611 30.7172 8.98232 31.3519C9.30931 31.9482 9.67477 32.5444 10.0017 33.083C10.1556 33.333 10.4826 33.6985 10.8288 34.2755C11.1366 34.7949 11.4443 35.5257 11.6367 35.7758C11.5405 35.4873 11.3289 34.7179 11.0789 34.1794C10.8481 33.66 10.5788 33.3715 10.4057 33.1022C10.0787 32.5637 9.73247 32.0636 9.38625 31.5442C8.90539 30.8326 8.55917 30.044 8.05908 29.3516Z" fill="url(#paint25_linear)"/>
<defs>
<filter id="filter0_f" x="3.89103" y="17.1242" width="8.18732" height="13.114" filterUnits="userSpaceOnUse" color-interpolation-filters="sRGB">
<feFlood flood-opacity="0" result="BackgroundImageFix"/>
<feBlend mode="normal" in="SourceGraphic" in2="BackgroundImageFix" result="shape"/>
<feGaussianBlur stdDeviation="1.132" result="effect1_foregroundBlur"/>
</filter>
<radialGradient id="paint0_radial" cx="0" cy="0" r="1" gradientUnits="userSpaceOnUse" gradientTransform="translate(13.4993 8.019) rotate(-2.39785) scale(1.60905 2.44883)">
<stop stop-color="#FEFEFE"/>
<stop offset="0.757" stop-color="#FEFEFE"/>
<stop offset="1" stop-color="#D4D4D4"/>
</radialGradient>
<radialGradient id="paint1_radial" cx="0" cy="0" r="1" gradientUnits="userSpaceOnUse" gradientTransform="translate(18.4535 8.03565) rotate(-1.80085) scale(2.1422 2.44975)">
<stop stop-color="#FEFEFE"/>
<stop offset="0.757" stop-color="#FEFEFE"/>
<stop offset="1" stop-color="#D4D4D4"/>
</radialGradient>
<radialGradient id="paint2_radial" cx="0" cy="0" r="1" gradientUnits="userSpaceOnUse" gradientTransform="translate(15.2281 9.38707) rotate(-35.8694) scale(1.79261 1.6245)">
<stop stop-color="#020202"/>
<stop offset="0.734" stop-color="#020202"/>
<stop offset="1" stop-color="#5C5C5C"/>
</radialGradient>
<linearGradient id="paint3_linear" x1="18.4214" y1="7.3815" x2="19.3251" y2="8.4567" gradientUnits="userSpaceOnUse">
<stop stop-color="#949494" stop-opacity="0.392"/>
<stop offset="0.5" stop-color="#949494"/>
<stop offset="1" stop-color="#949494" stop-opacity="0.392"/>
</linearGradient>
<linearGradient id="paint4_linear" x1="17.8051" y1="5.37815" x2="20.69" y2="7.07269" gradientUnits="userSpaceOnUse">
<stop stop-color="#747474"/>
<stop offset="0.125" stop-color="#8C8C8C"/>
<stop offset="0.25" stop-color="#A4A4A4"/>
<stop offset="0.5" stop-color="#D4D4D4"/>
<stop offset="0.619" stop-color="#D4D4D4"/>
<stop offset="1" stop-color="#7C7C7C"/>
</linearGradient>
<linearGradient id="paint5_linear" x1="18.7159" y1="4.83117" x2="20.6319" y2="6.65074" gradientUnits="userSpaceOnUse">
<stop stop-color="#646464" stop-opacity="0"/>
<stop offset="0.306" stop-color="#646464" stop-opacity="0.583"/>
<stop offset="0.47" stop-color="#646464"/>
<stop offset="0.728" stop-color="#646464" stop-opacity="0.257"/>
<stop offset="1" stop-color="#646464" stop-opacity="0"/>
</linearGradient>
<linearGradient id="paint6_linear" x1="13.185" y1="4.92356" x2="14.9895" y2="6.67003" gradientUnits="userSpaceOnUse">
<stop stop-color="#646464" stop-opacity="0"/>
<stop offset="0.306" stop-color="#646464" stop-opacity="0.583"/>
<stop offset="0.47" stop-color="#646464"/>
<stop offset="0.728" stop-color="#646464" stop-opacity="0.257"/>
<stop offset="1" stop-color="#646464" stop-opacity="0"/>
</linearGradient>
<linearGradient id="paint7_linear" x1="13.1708" y1="7.27349" x2="13.954" y2="8.68143" gradientUnits="userSpaceOnUse">
<stop stop-color="#757575" stop-opacity="0"/>
<stop offset="0.263" stop-color="#757575"/>
<stop offset="0.5" stop-color="#757575"/>
<stop offset="1" stop-color="#757575" stop-opacity="0"/>
</linearGradient>
<radialGradient id="paint8_radial" cx="0" cy="0" r="1" gradientUnits="userSpaceOnUse" gradientTransform="translate(17.1258 11.0523) rotate(-22.3401) scale(4.24536 2.9719)">
<stop stop-color="#D2940A"/>
<stop offset="0.751" stop-color="#D89C08"/>
<stop offset="0.866" stop-color="#B67E07"/>
<stop offset="1" stop-color="#946106"/>
</radialGradient>
<linearGradient id="paint9_linear" x1="12.1847" y1="10.8641" x2="19.822" y2="10.8037" gradientUnits="userSpaceOnUse">
<stop stop-color="#AD780A"/>
<stop offset="0.12" stop-color="#D89E08"/>
<stop offset="0.255" stop-color="#EDB80B"/>
<stop offset="0.392" stop-color="#EBC80D"/>
<stop offset="0.527" stop-color="#F5D838"/>
<stop offset="0.769" stop-color="#F6D811"/>
<stop offset="1" stop-color="#F5CD31"/>
</linearGradient>
<radialGradient id="paint10_radial" cx="0" cy="0" r="1" gradientUnits="userSpaceOnUse" gradientTransform="translate(16.3403 9.33212) scale(0.437099 0.253685)">
<stop stop-color="#2A2A2A"/>
<stop offset="0.555" stop-color="#545454"/>
<stop offset="1" stop-color="#878787"/>
</radialGradient>
<radialGradient id="paint11_radial" cx="0" cy="0" r="1" gradientUnits="userSpaceOnUse" gradientTransform="translate(14.3734 9.35919) scale(0.207731 0.222204)">
<stop stop-color="#2A2A2A"/>
<stop offset="0.555" stop-color="#545454"/>
<stop offset="1" stop-color="#878787"/>
</radialGradient>
<linearGradient id="paint12_linear" x1="19.7676" y1="10.5554" x2="19.8828" y2="11.0921" gradientUnits="userSpaceOnUse">
<stop stop-color="#C8C8C8"/>
<stop offset="1" stop-color="#9D9D9D"/>
</linearGradient>
<radialGradient id="paint13_radial" cx="0" cy="0" r="1" gradientUnits="userSpaceOnUse" gradientTransform="translate(13.2388 6.82018) rotate(-9.30291) scale(0.980786 0.90218)">
<stop stop-color="#C8C8C8"/>
<stop offset="1" stop-color="#797979"/>
</radialGradient>
<radialGradient id="paint14_radial" cx="0" cy="0" r="1" gradientUnits="userSpaceOnUse" gradientTransform="translate(9.51593 18.9361) rotate(180) scale(2.98841 2.81521)">
<stop/>
<stop offset="1" stop-opacity="0.249"/>
</radialGradient>
<radialGradient id="paint15_radial" cx="0" cy="0" r="1" gradientUnits="userSpaceOnUse" gradientTransform="translate(19.6536 20.5615) scale(3.70673 2.81521)">
<stop/>
<stop offset="1" stop-opacity="0.249"/>
</radialGradient>
<radialGradient id="paint16_radial" cx="0" cy="0" r="1" gradientUnits="userSpaceOnUse" gradientTransform="translate(14.6995 19.9052) scale(1.46761 1.56126)">
<stop/>
<stop offset="1" stop-opacity="0.249"/>
</radialGradient>
<linearGradient id="paint17_linear" x1="25.7882" y1="32.7531" x2="26.2709" y2="36.4711" gradientUnits="userSpaceOnUse">
<stop/>
<stop offset="1" stop-opacity="0"/>
</linearGradient>
<linearGradient id="paint18_linear" x1="23.3415" y1="39.3131" x2="29.8003" y2="28.7862" gradientUnits="userSpaceOnUse">
<stop stop-color="#2C2C2C"/>
<stop offset="1" stop-color="#7C7C7C"/>
</linearGradient>
<linearGradient id="paint19_linear" x1="26.7092" y1="28.6346" x2="26.5188" y2="30.3483" gradientUnits="userSpaceOnUse">
<stop stop-color="#C3C3C3"/>
<stop offset="1" stop-color="#C3C3C3" stop-opacity="0"/>
</linearGradient>
<radialGradient id="paint20_radial" cx="0" cy="0" r="1" gradientUnits="userSpaceOnUse" gradientTransform="translate(26.5707 30.3823) rotate(14.9271) scale(3.08649 3.22563)">
<stop stop-color="#0A0A0A"/>
<stop offset="0.591" stop-color="#676767" stop-opacity="0.8"/>
<stop offset="1" stop-color="#A6A6A6" stop-opacity="0"/>
</radialGradient>
<radialGradient id="paint21_radial" cx="0" cy="0" r="1" gradientUnits="userSpaceOnUse" gradientTransform="translate(26.5469 29.9334) rotate(10.9087) scale(3.03721 2.36974)">
<stop stop-color="#0A0A0A"/>
<stop offset="0.591" stop-color="#676767" stop-opacity="0.8"/>
<stop offset="1" stop-color="#A6A6A6" stop-opacity="0"/>
</radialGradient>
<radialGradient id="paint22_radial" cx="0" cy="0" r="1" gradientUnits="userSpaceOnUse" gradientTransform="translate(28.9063 27.6023) rotate(23.4152) scale(1.09111 0.502546)">
<stop stop-color="#7C7C7C"/>
<stop offset="1" stop-color="#7C7C7C" stop-opacity="0.329"/>
</radialGradient>
<linearGradient id="paint23_linear" x1="25.9581" y1="27.8844" x2="26.3659" y2="27.8671" gradientUnits="userSpaceOnUse">
<stop stop-color="#7C7C7C"/>
<stop offset="1" stop-color="#7C7C7C" stop-opacity="0.329"/>
</linearGradient>
<linearGradient id="paint24_linear" x1="2.93707" y1="30.4679" x2="9.34766" y2="41.2795" gradientUnits="userSpaceOnUse">
<stop stop-color="#868686"/>
<stop offset="1" stop-color="#282828"/>
</linearGradient>
<linearGradient id="paint25_linear" x1="10.0698" y1="32.8702" x2="12.0873" y2="36.6882" gradientUnits="userSpaceOnUse">
<stop stop-color="#BBBBBB"/>
<stop offset="1" stop-color="#BBBBBB" stop-opacity="0"/>
</linearGradient>
</defs>
</svg>
