<svg width="26" height="40" viewBox="0 0 26 40" fill="none" xmlns="http://www.w3.org/2000/svg">
<path d="M24.6921 16.1875C24.6921 22.8583 19.405 28.2693 12.8788 28.2693C6.35252 28.2693 1.06543 22.8583 1.06543 16.1875C1.06543 9.51666 6.35252 4.10565 12.8788 4.10565C19.405 4.085 24.6921 9.496 24.6921 16.1875Z" fill="#D33833"/>
<path d="M1.56134 19.1821C1.56134 19.1821 0.693917 6.58394 12.3214 6.21219L11.5159 4.84912L5.21687 6.97633L3.42008 9.0416L1.85048 12.0569L0.962402 15.5679L1.2309 17.9223" fill="#EF3D3A"/>
<path d="M4.80369 7.92638C2.73842 10.0536 1.45795 12.9863 1.45795 16.2287C1.45795 19.4712 2.73842 22.4039 4.80369 24.5311C6.88961 26.6583 9.71904 27.9595 12.8995 27.9595C16.0594 27.9595 18.9095 26.6583 20.9954 24.5311C23.0607 22.4039 24.3411 19.4712 24.3411 16.2287C24.3411 12.9863 23.0607 10.0536 20.9954 7.92638C18.9095 5.79915 16.0801 4.49801 12.8995 4.49801C9.73969 4.49801 6.88961 5.79915 4.80369 7.92638ZM4.28737 25.0268C2.07754 22.7756 0.735107 19.6571 0.735107 16.2287C0.735107 12.8004 2.09819 9.68186 4.28737 7.41006C6.49721 5.15892 9.53316 3.75452 12.8995 3.75452C16.2659 3.75452 19.3019 5.15892 21.5117 7.41006C23.7216 9.6612 25.064 12.7797 25.064 16.2287C25.064 19.6571 23.7009 22.7756 21.5117 25.0268C19.3019 27.2779 16.2659 28.6823 12.8995 28.6823C9.53316 28.6823 6.47656 27.2779 4.28737 25.0268Z" fill="#202020"/>
<path d="M17.8563 16.2494L16.0595 16.5179L13.6225 16.7864L12.0529 16.8277L10.5246 16.7864L9.34738 16.4146L8.31475 15.2787L7.50929 12.9863L7.32342 12.4906L6.24948 12.1189L5.6299 11.0862L5.17554 9.59925L5.67121 8.29812L6.8484 7.88506L7.79843 8.33944L8.25279 9.33075L8.78976 9.24813L8.97564 9.02096L8.78976 7.98832L8.74845 6.68722L9.01693 4.89042V3.85779L9.84304 2.53601L11.2887 1.50337L13.8084 0.429443L16.5965 0.842497L19.0335 2.59798L20.1487 4.39475L20.8716 5.69588L21.0575 8.93834L20.5205 11.7265L19.5292 14.2048L18.5998 15.5266" fill="#F0D6B7"/>
<path d="M16.3279 24.0355L9.90489 24.3039V25.3779L10.4419 29.1573L10.1734 29.4671L5.67109 27.9388L5.3613 27.4018L4.90693 22.3006L3.85364 19.244L3.62646 18.5212L7.22004 16.0429L8.33528 15.5885L9.3266 16.807L10.1734 17.5712L11.1647 17.8809L11.6191 18.0049L12.156 20.3593L12.5691 20.8549L13.6017 20.4832L12.8789 21.8876L16.7822 23.7463L16.3279 24.0355Z" fill="#335061"/>
<path d="M5.67109 8.3188L6.84828 7.90574L7.79832 8.36012L8.25268 9.35143L8.78964 9.26884L8.91355 8.73185L8.64507 7.69921L8.91355 5.22089L8.68638 3.85782L9.49184 2.9078L11.2473 1.52408L10.7516 0.842529L8.27333 2.06104L7.24069 2.8665L6.66242 4.12631L5.77435 5.34483L5.50586 6.79052L5.67109 8.3188Z" fill="#6C6C6C"/>
<path d="M7.50917 4.08504C7.50917 4.08504 8.19071 2.41217 10.8756 1.60672C13.5811 0.801261 10.9995 1.02846 10.9995 1.02846L8.0668 2.14371L6.95155 3.2796L6.45589 4.16766L7.50917 4.08504ZM6.16675 8.00905C6.16675 8.00905 5.21673 4.84921 8.83095 4.4155L8.70703 3.87851L6.2287 4.4568L5.50586 6.79056L5.69174 8.31884L6.16675 8.00905Z" fill="#DADADA"/>
<path d="M7.61245 12.2014L8.21138 11.6232C8.21138 11.6232 8.47987 11.6438 8.52117 11.9743C8.56248 12.2841 8.70705 15.1341 10.6277 16.6624C10.8136 16.807 9.18206 16.4352 9.18206 16.4352L7.73637 14.1841L7.61245 12.2014ZM15.8735 11.334C15.8735 11.334 15.9768 9.97094 16.3485 10.0742C16.7203 10.1775 16.7203 10.5492 16.7203 10.5492C16.7203 10.5492 15.8322 11.1275 15.8735 11.334ZM19.6117 6.33607C19.6117 6.33607 18.8682 6.48064 18.8062 7.14153C18.7443 7.80242 19.6117 7.26545 19.7562 7.22415L19.6117 6.33607ZM14.18 6.37739C14.18 6.37739 13.1887 6.52195 13.1887 7.14153C13.1887 7.76111 14.3039 7.7198 14.6344 7.45132L14.18 6.37739ZM8.06681 9.31006C8.06681 9.31006 6.35264 8.27744 6.18742 9.26877C6.00155 10.2601 5.60914 10.9829 6.4559 12.0156L5.87763 11.8297L5.34065 10.446L5.15479 9.10354L6.18742 8.02961L7.36461 8.1122L8.04616 8.64919L8.06681 9.31006ZM8.87227 6.48065C8.87227 6.48065 9.63641 2.51533 13.4985 1.75118C16.679 1.1316 18.3519 1.89574 18.9921 2.61858C18.9921 2.61858 16.1627 -0.74781 13.4572 0.264172C10.7517 1.29681 8.78966 3.19685 8.83096 4.39471C8.89292 6.48063 8.87227 6.48065 8.87227 6.48065ZM19.3019 3.05229C19.3019 3.05229 18.0008 3.01099 17.9595 4.16754C17.9595 4.16754 17.9594 4.35342 18.0421 4.53929C18.0421 4.53929 19.0747 3.3621 19.7149 4.00233" fill="#F7E4CD"/>
<path d="M13.6016 4.66327C13.6016 4.66327 13.3745 2.86649 11.8462 3.89913C10.8548 4.58066 10.9581 5.51003 11.1233 5.6959C11.3092 5.88177 11.2472 6.23288 11.3918 5.98504C11.5157 5.73721 11.4951 4.93174 11.9907 4.70456C12.4658 4.49803 13.2712 4.25021 13.6016 4.66327Z" fill="#F7E4CD"/>
<path d="M9.36786 16.8277L5.13406 18.7071C5.13406 18.7071 6.88954 25.6877 6.00148 27.8562L5.3819 27.629L5.34059 24.9648L4.16338 19.9256L3.66772 18.5418L8.08739 15.5679L9.36786 16.8277ZM9.80158 20.6897L10.4005 21.4332V24.1387H9.67765C9.67765 24.1387 9.59505 22.2593 9.59505 22.0115C9.59505 21.7637 9.67765 20.9789 9.67765 20.9789L9.80158 20.6897ZM9.82223 24.5311L7.79826 24.6137L8.37654 25.0268L9.82223 25.254" fill="#49728B"/>
<path d="M16.741 24.0768L18.4138 24.0355L18.8269 28.1661L17.1127 28.3932L16.741 24.0768Z" fill="#494949"/>
<path d="M17.1953 24.0768L19.7149 23.9322C19.7149 23.9322 20.7476 21.33 20.7476 21.1854C20.7476 21.0615 21.6356 17.4059 21.6356 17.4059L19.6117 15.2994L19.1986 14.9276L18.1247 16.0016V20.194L17.1953 24.0768Z" fill="#335061"/>
<path d="M18.3106 23.7669L16.741 24.0767L16.9681 25.3365C17.5464 25.605 18.5378 24.8822 18.5378 24.8822L18.3106 23.7669ZM18.3519 15.8776L21.5117 18.232L21.5944 17.1581L19.2193 14.9482L18.3519 15.8776Z" fill="#49728B"/>
<path d="M11.3713 32.9368L10.4419 29.1573L9.96689 26.3692L9.88428 24.304L14.0974 24.0768H16.741L16.4931 28.8063L16.9062 32.4618L16.8649 33.1433L13.4365 33.4118L11.3713 32.9368Z" fill="white"/>
<path d="M16.1627 24.0355C16.1627 24.0355 15.9355 28.7236 16.6171 32.0487C16.6171 32.0487 15.2747 32.9161 13.292 33.1226L17.0714 32.9987L17.5258 32.7302L16.9888 25.3572L16.8443 23.767" fill="#DADADA"/>
<path d="M18.8888 27.8149L20.6443 27.3192L23.9694 27.1333L24.4651 25.605L23.577 22.9408L22.5444 22.7963L21.0987 23.2506L19.7356 23.9322L18.9921 23.8082L18.4138 24.0354" fill="white"/>
<path d="M18.8474 26.9062C18.8474 26.9062 20.0246 26.3693 20.1898 26.4106L19.6942 23.9323L20.2724 23.7051C20.2724 23.7051 20.6855 26.0595 20.6855 26.328C20.6855 26.328 23.2051 26.4725 23.4323 26.4725C23.4323 26.4725 23.9693 25.4399 23.8454 24.3453L24.341 25.791L24.3823 26.5965L23.6595 27.6704L22.854 27.8563L21.5116 27.815L21.0573 27.2367L19.4876 27.4639L18.992 27.6498" fill="#DADADA"/>
<path d="M17.0713 23.7257L16.08 21.2061L15.0474 19.7191C15.0474 19.7191 15.2746 19.0789 15.5843 19.0789H16.617L17.6083 19.4506L17.5257 21.1235L17.0713 23.7257Z" fill="white"/>
<path d="M17.2778 22.8583C17.2778 22.8583 16.018 20.4213 16.018 20.0702C16.018 20.0702 16.2452 19.5332 16.555 19.6571C16.8647 19.8017 17.5463 20.1528 17.5463 20.1528V19.2854L16.018 18.9756L14.9854 19.1201L16.7408 23.2713L17.1126 23.3127" fill="#DADADA"/>
<path d="M11.7843 16.9103L10.5451 16.7864L9.36792 16.4147V16.8277L9.94619 17.4473L11.743 18.2528" fill="white"/>
<path d="M9.76029 17.0548C9.76029 17.0548 11.144 17.6331 11.5984 17.5092L11.6397 18.0461L10.3799 17.7777L9.61572 17.2407L9.76029 17.0548Z" fill="#DADADA"/>
<path d="M18.8888 19.244C18.1247 19.2233 17.4225 19.1407 16.8236 18.9548C16.8649 18.707 16.7823 18.4592 16.8442 18.294C17.0094 18.1701 17.2986 18.1701 17.5464 18.1494C17.3192 18.0462 17.0094 18.0048 16.7616 18.0668C16.7616 17.9016 16.679 17.7983 16.6377 17.6537C17.0714 17.5092 18.0834 16.4972 18.641 16.8276C18.9095 16.9929 19.0334 17.8809 19.0541 18.3353C19.0747 18.6657 19.0334 19.0375 18.8888 19.244Z" fill="#666666"/>
<path d="M18.8888 19.244C18.1247 19.2233 17.4225 19.1407 16.8236 18.9548C16.8649 18.707 16.7823 18.4592 16.8442 18.294C17.0094 18.1701 17.2986 18.1701 17.5464 18.1494C17.3192 18.0462 17.0094 18.0048 16.7616 18.0668C16.7616 17.9016 16.679 17.7983 16.6377 17.6537C17.0714 17.5092 18.0834 16.4972 18.641 16.8276C18.9095 16.9929 19.0334 17.8809 19.0541 18.3353C19.0747 18.6657 19.0334 19.0375 18.8888 19.244Z" fill="#D33833" stroke="#EF3D3A"/>
<path d="M15.2333 17.9843C15.2333 18.0462 15.2333 18.1082 15.2333 18.1495C14.9854 18.2941 14.6137 18.2941 14.3452 18.4386C14.7169 18.4593 15.0267 18.5626 15.2952 18.6865C15.2952 18.831 15.2952 18.9756 15.2746 19.1202C14.8409 19.4093 14.4278 19.8637 13.9321 20.1528C13.6843 20.2974 12.8376 20.6278 12.5897 20.5659C12.4452 20.5246 12.4245 20.3387 12.3625 20.1735C12.2386 19.8017 11.9495 19.2234 11.9288 18.6658C11.9082 17.9636 11.8256 16.7864 12.5691 16.931C13.1886 17.0549 13.8908 17.3234 14.3452 17.5712C14.6343 17.7571 14.7996 17.943 15.2333 17.9843Z" fill="#666666"/>
<path d="M15.2333 17.9843C15.2333 18.0462 15.2333 18.1082 15.2333 18.1495C14.9854 18.2941 14.6137 18.2941 14.3452 18.4386C14.7169 18.4593 15.0267 18.5626 15.2952 18.6865C15.2952 18.831 15.2952 18.9756 15.2746 19.1202C14.8409 19.4093 14.4278 19.8637 13.9321 20.1528C13.6843 20.2974 12.8376 20.6278 12.5897 20.5659C12.4452 20.5246 12.4245 20.3387 12.3625 20.1735C12.2386 19.8017 11.9495 19.2234 11.9288 18.6658C11.9082 17.9636 11.8256 16.7864 12.5691 16.931C13.1886 17.0549 13.8908 17.3234 14.3452 17.5712C14.6343 17.7571 14.7996 17.943 15.2333 17.9843Z" fill="#D33833" stroke="#EF3D3A"/>
<path d="M15.6669 18.8104C15.605 18.418 15.5224 18.3147 15.543 17.9843C16.5757 17.3234 16.7409 19.1615 15.6669 18.8104Z" fill="#666666"/>
<path d="M15.6669 18.8104C15.605 18.418 15.5224 18.3147 15.543 17.9843C16.5757 17.3234 16.7409 19.1615 15.6669 18.8104Z" fill="#EB3C39" stroke="#D33833"/>
<path d="M17.1333 19.1202C17.1333 19.1202 16.8235 18.6658 17.0507 18.5419C17.2779 18.418 17.5051 18.5419 17.629 18.3147C17.7529 18.0875 17.629 17.943 17.6703 17.6951C17.7116 17.4266 17.9388 17.3854 18.1659 17.3234C18.3931 17.2821 19.0334 17.1995 19.116 17.406L18.8475 16.6006L18.3105 16.4147L16.5963 17.406L16.5137 17.9017V18.893L17.1333 19.1202ZM12.4038 20.6072C12.3419 19.905 12.2799 19.2028 12.2386 18.5006C12.1354 17.4473 12.4864 17.6332 13.3952 17.6332C13.5397 17.6332 14.2626 17.7984 14.3039 17.9017C14.5517 18.3973 13.8908 18.2941 14.593 18.6658C15.1713 18.9756 16.2039 18.4799 15.9768 17.7571C15.8528 17.5919 15.2952 17.7158 15.0887 17.6125L14.0354 17.0755C13.581 16.8484 12.5691 16.4973 12.0734 16.8277C10.8549 17.6538 12.156 19.6984 12.5691 20.5659" fill="#EB3C39"/>
<path d="M13.6018 4.66326C12.3832 4.37412 11.7637 5.17957 11.3919 6.00568C11.0615 5.92307 11.1854 5.46872 11.268 5.24154C11.4952 4.64261 12.3626 3.83715 13.1061 3.94041C13.3952 3.98172 13.8289 4.27086 13.6018 4.66326ZM19.5704 6.04698H19.6323C19.9008 6.62525 20.1487 7.2242 20.4998 7.74051C20.2519 8.29814 18.7236 8.77313 18.7443 7.80246C19.0747 7.65789 19.653 7.78181 19.9421 7.57528C19.7769 7.12092 19.5291 6.72852 19.5704 6.04698ZM14.2213 6.06765C14.4898 6.56332 14.5724 7.05898 14.9442 7.43072C15.1094 7.59595 15.4399 7.80247 15.2746 8.25683C15.2333 8.3601 14.9648 8.60793 14.7996 8.64924C14.2213 8.81446 12.8583 8.69054 13.3126 7.94704C13.8083 7.96769 14.4485 8.25682 14.7996 7.90572C14.5311 7.47201 14.0355 6.58397 14.2213 6.06765ZM19.3432 10.983C18.4758 11.5406 17.4845 12.1602 16.0388 12.0156C15.729 11.7471 15.6051 11.1482 15.9149 10.7558C16.0594 11.0243 15.9768 11.5199 16.4105 11.6026C17.2366 11.7471 18.1867 11.0862 18.7649 10.8797C19.1367 10.2601 18.7443 10.033 18.3932 9.64055C17.7116 8.8351 16.8236 7.82313 16.8442 6.60462C17.1127 6.39809 17.1334 6.91441 17.1747 6.99702C17.5258 7.82313 18.4138 8.87642 19.0541 9.57861C19.2193 9.74383 19.4671 9.92969 19.5084 10.033C19.6117 10.3634 19.3019 10.7558 19.3432 10.983ZM7.7364 10.384C7.46792 10.2188 7.3853 9.53729 7.07551 9.51664C6.6005 9.49599 6.70377 10.4047 6.70377 10.9623C6.39398 10.6732 6.33201 9.78512 6.55919 9.33076C6.29071 9.18619 6.18744 9.47535 6.02222 9.57861C6.22874 8.17423 8.04619 8.9177 7.7364 10.384ZM19.9008 11.5613C19.4878 12.3461 18.9095 13.1928 17.7116 13.2341C17.691 12.9863 17.6703 12.5939 17.7116 12.4493C18.641 12.3461 19.1986 11.8711 19.9008 11.5613ZM14.1387 12.0569C14.9029 12.4493 16.3073 12.5113 17.3606 12.47C17.4225 12.6972 17.4225 12.9863 17.4225 13.2548C16.0801 13.3167 14.4898 12.9863 14.1387 12.0569ZM13.9942 12.8004C14.5311 14.1428 16.3486 13.9776 17.8769 13.9363C17.8149 14.1015 17.6703 14.3287 17.4845 14.3907C16.9888 14.5972 15.6464 14.7418 14.9442 14.37C14.5105 14.1428 14.2213 13.6265 13.9942 13.3167C13.8909 13.1928 13.3333 12.8211 13.9942 12.8004Z" fill="#202020"/>
<path d="M19.2813 20.1527C18.6618 21.2267 18.0628 22.3212 17.3193 23.2506C17.6291 22.3419 17.753 20.8136 17.815 19.657C18.4552 19.3473 19.0129 19.719 19.2813 20.1527Z" fill="#81B0C4"/>
<path d="M22.6271 23.9941C21.9249 24.1387 21.4498 24.8203 20.7683 24.7583C21.1401 24.242 21.7803 24.0148 22.6271 23.9941ZM22.9368 25.0681C22.3586 25.1301 21.6977 25.2127 21.1194 25.1714C21.3879 24.7583 22.4412 24.9029 22.9368 25.0681ZM23.1227 26.0181C22.4825 26.0181 21.6977 26.0181 21.0781 25.9768C21.4498 25.5844 22.7097 25.8322 23.1227 26.0181Z" fill="#202020"/>
<path d="M18.0833 28.5997C18.1865 29.4052 18.4963 30.2107 18.455 31.0781C18.1039 31.202 17.8974 31.3052 17.4224 31.3052C17.4017 30.5617 17.2985 29.4258 17.3191 28.703C17.5463 28.7237 17.8974 28.5378 18.0833 28.5997Z" fill="#DADADA"/>
<path d="M17.0507 16.7657C16.7203 16.9723 16.4518 17.2408 16.142 17.4679C15.4604 17.5092 15.0887 17.4266 14.593 17.0342C14.593 17.0136 14.655 17.0136 14.655 16.9723C15.3778 17.3027 16.3278 16.8277 17.0507 16.7657Z" fill="#DADADA"/>
<path d="M13.23 21.7637C13.4365 20.8963 14.2213 20.4419 14.9442 19.9669C15.6876 20.8963 16.1214 22.0941 16.617 23.2714C15.4398 22.8996 14.242 22.342 13.23 21.7637Z" fill="#81B0C4"/>
<path d="M17.3191 28.703C17.2985 29.4258 17.3811 30.5617 17.4224 31.3052C17.8974 31.3052 18.1039 31.202 18.455 31.0781C18.4963 30.19 18.1865 29.3845 18.0833 28.5997C17.8974 28.5378 17.5463 28.7236 17.3191 28.703ZM9.96676 24.6551C10.2766 27.5258 10.7309 29.9215 11.557 32.4618C13.3951 33.0194 15.605 33.0814 17.2365 32.565C16.9474 31.14 17.0713 29.3845 16.8854 27.8562C16.7615 26.6997 16.8235 25.5431 16.6376 24.3866C14.6756 23.9942 11.8875 24.304 9.96676 24.6551ZM17.1126 24.4072C17.0919 25.6257 17.1746 26.8649 17.2572 28.0834C17.7322 28.0215 18.042 27.9595 18.4757 27.8562C18.3311 26.679 18.3518 25.3366 18.0626 24.2833C17.7322 24.304 17.443 24.304 17.1126 24.4072ZM19.5083 24.2213C19.2811 24.18 19.0126 24.2213 18.8061 24.2213C18.9094 25.2127 19.1572 26.3279 19.2398 27.3812C19.5703 27.4019 19.7561 27.2366 20.0246 27.1747C20.0453 26.266 19.942 24.9855 19.5083 24.2213ZM23.1225 27.5258C23.8247 27.3605 24.2584 26.4932 24.0725 25.6051C23.9486 25.0062 23.7008 23.8909 23.453 23.5192C23.2671 23.2507 22.7714 22.8789 22.3584 23.1268C21.6975 23.5398 20.5409 23.6637 20.0659 24.18C20.3138 24.9855 20.3757 26.0594 20.479 27.0714C21.3051 27.1127 22.2964 26.8443 22.978 27.1334C22.5029 27.278 21.8834 27.2779 21.491 27.5051C21.8421 27.691 22.6062 27.6497 23.1225 27.5258ZM16.5963 23.2507C16.1006 22.0941 15.6463 20.8963 14.9234 19.9462C14.2006 20.4213 13.4364 20.8756 13.2092 21.743C14.2419 22.3419 15.4397 22.8996 16.5963 23.2507ZM17.8148 19.6571C17.7735 20.8137 17.6289 22.342 17.3191 23.2507C18.0626 22.3007 18.6615 21.2267 19.2811 20.1528C19.0126 19.7191 18.455 19.3473 17.8148 19.6571ZM16.4311 19.1821C16.1626 19.1615 15.9147 19.5125 15.5636 19.3473C15.481 19.4506 15.3984 19.5332 15.3158 19.6365C16.1213 20.6071 16.493 21.9909 17.1126 23.1268C17.443 22.0322 17.4017 20.8343 17.4843 19.6365C17.0093 19.6571 16.7615 19.2028 16.4311 19.1821ZM15.543 18.0049C15.5223 18.3353 15.5843 18.4386 15.6669 18.831C16.7408 19.1614 16.5756 17.3233 15.543 18.0049ZM14.3451 17.5918C13.8701 17.3233 13.1679 17.0549 12.569 16.9516C11.8255 16.807 11.8875 17.9842 11.9288 18.6864C11.9494 19.2441 12.2386 19.8223 12.3625 20.1941C12.4244 20.3593 12.4451 20.5452 12.5897 20.5865C12.8375 20.6484 13.7049 20.318 13.9321 20.1734C14.4484 19.9049 14.8408 19.4506 15.2745 19.1408C15.2745 18.9962 15.2745 18.8517 15.2952 18.7071C15.0267 18.5832 14.7375 18.4799 14.3451 18.4799C14.593 18.3353 14.9854 18.3353 15.2332 18.1908C15.2332 18.1288 15.2332 18.0668 15.2332 18.0255C14.7995 17.9429 14.6343 17.7571 14.3451 17.5918ZM9.8635 16.7864C9.4711 17.1788 10.9581 17.7158 11.4331 17.7571C11.4331 17.5092 11.5777 17.282 11.557 17.0962C10.9787 16.9929 10.2352 17.0549 9.8635 16.7864ZM14.6549 16.9722C14.6549 17.0136 14.6136 16.9929 14.593 17.0342C15.0886 17.4266 15.4604 17.5092 16.1419 17.4679C16.4517 17.2407 16.7202 16.9929 17.0506 16.7657C16.3278 16.8277 15.3778 17.3027 14.6549 16.9722ZM19.0539 18.3147C19.0333 17.881 18.93 16.9723 18.6409 16.807C18.0626 16.4766 17.0506 17.4886 16.6376 17.6332C16.6789 17.7777 16.7615 17.881 16.7615 18.0462C17.0093 17.9842 17.3191 18.0255 17.5463 18.1288C17.2985 18.1494 17.0093 18.1495 16.8441 18.2734C16.7821 18.4593 16.8648 18.6864 16.8235 18.9343C17.4224 19.0995 18.1246 19.2027 18.8887 19.2234C19.0333 19.0375 19.0746 18.6658 19.0539 18.3147ZM9.20261 17.1788C9.07869 17.0962 8.25258 16.0222 8.12867 16.0635C6.64167 16.6625 5.2373 17.6744 3.97748 18.6451C5.17534 21.206 5.65035 24.3453 5.73296 27.3606C7.09604 28.0008 8.29389 28.9302 10.1526 29.0128C9.92545 27.5051 9.73958 26.1421 9.61566 24.6964C9.14065 24.4898 8.47977 24.6964 8.04607 24.6344C8.04607 24.1181 8.70695 24.4072 8.76891 24.0561C8.81021 23.7877 8.39716 23.767 8.52107 23.3539C8.87217 23.4779 9.03739 23.7463 9.40914 23.8496C9.73958 23.1268 9.40914 21.8463 9.45045 21.2267C9.45045 21.1028 9.5124 20.5865 9.76024 20.6897C9.98742 20.7723 9.76024 22.0735 9.76024 22.6517C9.78089 23.1887 9.69828 23.6844 9.90481 24.0355C11.7016 23.7877 13.519 23.6431 15.4604 23.5811C15.0267 23.3952 14.531 23.23 13.9734 22.9202C13.6636 22.755 12.7342 22.4039 12.631 22.1148C12.4864 21.6604 13.0027 21.4126 13.0853 21.0202C12.1766 21.5158 12.0114 20.5452 11.7842 19.8636C11.5983 19.244 11.4744 18.769 11.4331 18.4179C10.7103 18.0255 9.8635 17.6538 9.20261 17.1788ZM18.2691 16.1875C19.5083 15.5885 19.7355 18.4386 19.2605 19.368C19.3431 19.6364 19.5909 19.7397 19.6942 19.9875C18.992 21.2267 18.2278 22.4039 17.505 23.6224C18.0213 23.292 18.7855 23.5605 19.405 23.3126C19.6322 23.23 19.7974 22.7137 19.9627 22.28C20.4377 21.1441 20.9333 19.6778 21.1605 18.6038C21.2018 18.356 21.3464 17.819 21.3051 17.5918C21.2431 17.1994 20.7062 16.8896 20.4377 16.6625C19.942 16.2081 19.6116 15.8157 19.0953 15.382C18.9094 15.7124 18.4344 15.919 18.2691 16.1875ZM6.35254 5.1176C5.75361 5.77848 5.87752 6.997 5.96014 7.86442C7.03408 7.18288 8.45911 7.92638 8.43846 9.06228C8.95478 9.06228 8.62433 8.42203 8.54172 8.00898C8.23193 6.6872 9.05804 5.26218 8.58303 4.04367C7.65366 4.12628 6.88951 4.49802 6.35254 5.1176ZM10.607 1.29685C9.26457 1.6686 7.55039 2.65993 6.99277 3.87844C7.42648 3.81648 7.71561 3.60995 8.12867 3.56865C8.29389 3.56865 8.50042 3.63062 8.68629 3.58932C9.05804 3.48605 9.36783 2.68059 9.63631 2.3708C9.9048 2.08167 10.2352 1.93709 10.4418 1.66861C10.5863 1.60665 10.7929 1.60664 10.8135 1.40011C10.7516 1.33815 10.6896 1.29685 10.607 1.29685ZM17.6083 1.66861C16.2039 0.883805 13.8495 0.284882 12.3625 1.02838C11.1646 1.62731 9.53305 2.61862 8.99608 3.87844C9.5124 5.09694 8.85152 6.19155 8.78956 7.43071C8.7689 8.0916 9.09934 8.64923 9.12 9.37207C8.93412 9.66121 8.39715 9.70252 8.0254 9.68186C7.90149 9.04163 7.67431 8.33943 7.03408 8.27747C6.12536 8.17421 5.44382 8.93836 5.40251 9.72316C5.3612 10.6525 6.12536 12.2015 7.1993 12.0982C7.61235 12.0569 7.71561 11.6439 8.19062 11.6439C8.43846 12.1395 7.81889 12.2841 7.73627 12.6352C7.71562 12.7384 7.77758 13.0895 7.83954 13.2548C8.04607 14.0602 8.47976 15.1342 8.91347 15.7537C9.47109 16.5385 10.545 16.6625 11.7016 16.7451C11.9081 16.2907 12.6723 16.332 13.1679 16.4559C12.569 16.2081 12.0114 15.6505 11.557 15.1342C11.0407 14.5559 10.5037 13.9363 10.4624 13.1721C11.4537 14.5559 12.2799 15.7744 14.0973 16.3733C15.4604 16.8277 17.0713 16.1668 18.1246 15.4233C18.5583 15.1135 18.8268 14.6178 19.1366 14.1841C20.2931 12.5113 20.8507 10.1156 20.7268 7.80245C20.6855 6.85242 20.6855 5.90242 20.3551 5.26218C20.0246 4.6013 18.8887 3.9817 18.2278 4.60128C18.1039 3.94039 18.7855 3.54799 19.5703 3.77517C19.0126 2.99037 18.4137 2.12297 17.6083 1.66861ZM20.2105 23.23C21.3051 22.6931 23.3497 21.7637 24.0106 23.23C24.2584 23.767 24.5682 24.6757 24.6921 25.2333C24.878 26.0181 24.4856 27.6703 23.6801 27.9388C22.9573 28.166 22.1312 28.166 21.2844 27.9801C21.1812 27.8975 21.0779 27.753 20.9953 27.6084C20.3757 27.5877 19.7974 27.629 19.3224 27.8975C19.3637 28.3519 19.0746 28.4138 18.7648 28.5171C18.5583 29.3639 19.1985 30.4791 19.0333 31.2433C18.93 31.8009 18.2485 31.8835 17.7528 31.9868C17.7322 32.2966 17.7735 32.5444 17.8148 32.8129C17.6909 33.2259 17.1952 33.4738 16.6995 33.5357C15.1093 33.7216 12.6929 33.8042 11.1853 33.2672C10.7516 32.2139 10.4211 30.9541 10.07 29.7563C8.58303 29.9215 7.36452 29.116 6.24928 28.5791C5.85688 28.3932 5.31991 28.2899 5.15469 27.9801C5.01012 27.6704 5.07207 27.0921 5.03076 26.5551C4.94815 25.1507 4.86555 23.8083 4.4938 22.3626C4.32858 21.7224 4.03944 21.1441 3.83291 20.5245C3.64704 19.9463 3.31659 19.2441 3.23398 18.6658C3.11006 17.819 3.91552 17.7777 4.41118 17.406C5.19599 16.8277 5.81557 16.5179 6.68298 16.0016C6.93081 15.857 7.69496 15.4646 7.77757 15.2787C7.94279 14.9276 7.48843 14.432 7.36452 14.1635C7.15799 13.7298 7.05473 13.358 7.03408 12.9243C6.31123 12.8004 5.77426 12.3874 5.44382 11.9123C4.90685 11.1069 4.51444 9.64054 4.98946 8.52529C5.03076 8.44268 5.21664 8.25683 5.23729 8.13291C5.29925 7.86443 5.13403 7.51333 5.11338 7.22419C5.07207 5.75785 5.3612 4.51867 6.33188 4.06432C6.72428 2.47406 8.16998 1.95775 9.5124 1.15229C10.0081 0.863152 10.5657 0.677273 11.144 0.450093C13.1886 -0.293404 16.3484 -0.148825 18.042 1.13164C18.7648 1.66861 19.9214 2.82515 20.3344 3.67191C21.429 5.88175 21.3464 9.55793 20.5822 12.2428C20.479 12.6145 20.3344 13.1308 20.1279 13.5646C19.9833 13.8743 19.529 14.4733 19.5909 14.7418C19.6529 15.0103 20.6235 15.7537 20.8301 15.9603C21.2018 16.332 21.9247 16.807 21.966 17.2614C22.0279 17.7571 21.7594 18.4179 21.6149 18.893C21.2018 20.38 20.7475 21.8256 20.2105 23.23Z" fill="#202020"/>
<path d="M12.9202 12.3873C12.9822 12.3047 13.292 12.1808 13.767 12.408C13.767 12.408 13.23 12.4906 13.2713 13.3993L13.0441 13.358C13.0441 13.358 12.817 12.5525 12.9202 12.3873Z" fill="#F7E4CD"/>
<path d="M16.8648 20.1321C16.8648 20.2767 16.7409 20.3799 16.617 20.3799C16.4931 20.3799 16.3691 20.2767 16.3691 20.1321C16.3691 19.9876 16.4931 19.8843 16.617 19.8843C16.7615 19.8843 16.8648 20.0082 16.8648 20.1321ZM17.1126 21.2887C17.1126 21.4126 16.9887 21.5365 16.8648 21.5365C16.7409 21.5365 16.617 21.4126 16.617 21.2887C16.617 21.1441 16.7409 21.0408 16.8648 21.0408C17.0094 21.0408 17.1126 21.1441 17.1126 21.2887Z" fill="#1A1A1A"/>
<path d="M4.1428 35.8695C4.06019 35.8901 3.99823 35.8901 3.93628 35.8901C3.87432 35.9108 3.81235 35.9108 3.7504 35.9315C3.66779 35.9521 3.62649 35.9934 3.60584 36.0554C3.58518 36.1173 3.56453 36.1793 3.56453 36.2413V38.575C3.56453 38.7815 3.52322 38.9881 3.44061 39.1739C3.35799 39.3598 3.23409 39.5044 3.08952 39.6283C2.94495 39.7522 2.75908 39.8348 2.5732 39.8968C2.38733 39.9587 2.1808 40 1.97427 40C1.60252 40 1.31339 39.9174 1.08621 39.7316C0.859026 39.5457 0.735107 39.3185 0.735107 38.988C0.735107 38.8022 0.776415 38.6576 0.879679 38.5337C0.982942 38.4098 1.12751 38.3478 1.31338 38.3478C1.4786 38.3478 1.62317 38.3891 1.72643 38.4924C1.8297 38.5957 1.87101 38.7196 1.87101 38.8641C1.87101 38.9881 1.82971 39.112 1.74709 39.2152C1.66448 39.3185 1.56122 39.4218 1.4373 39.5044V39.5457C1.45796 39.587 1.49926 39.6283 1.56122 39.6489C1.62317 39.6696 1.68514 39.6902 1.74709 39.6902C1.99493 39.6902 2.18079 39.6076 2.30471 39.4218C2.42862 39.2566 2.51123 38.9881 2.51123 38.6576V36.2825C2.51123 36.2206 2.51124 36.1586 2.49059 36.0967C2.46993 36.0554 2.40798 36.0141 2.32537 35.9728C2.26341 35.9521 2.20144 35.9315 2.09818 35.9108C2.01557 35.8902 1.95361 35.8901 1.89165 35.8695V35.6423H4.1428V35.8901V35.8695ZM7.67441 39.1533C7.61245 39.2772 7.52985 39.3805 7.42659 39.4837C7.32332 39.587 7.22005 39.6696 7.09614 39.7522C6.97222 39.8348 6.82766 39.8968 6.70374 39.9174C6.57982 39.9587 6.41459 39.9794 6.22872 39.9794C5.93958 39.9794 5.69176 39.9381 5.46458 39.8555C5.25805 39.7729 5.07218 39.6696 4.94826 39.525C4.80369 39.3805 4.70043 39.2152 4.63847 39.0294C4.57651 38.8228 4.53521 38.6163 4.53521 38.4098C4.53521 38.2033 4.57651 38.0174 4.65912 37.8315C4.74173 37.6456 4.84499 37.4804 4.96891 37.3358C5.09283 37.1913 5.2787 37.088 5.48523 36.9847C5.71241 36.9021 5.93958 36.8402 6.16676 36.8608C6.43525 36.8608 6.66243 36.9021 6.8483 36.9641C7.03417 37.0261 7.17875 37.1293 7.28201 37.2326C7.40593 37.3565 7.46789 37.4804 7.52985 37.625C7.57115 37.7695 7.61245 37.9348 7.61245 38.1206V38.3065H5.58849C5.58849 38.7196 5.6711 39.0294 5.83633 39.2359C5.98089 39.4424 6.24937 39.5457 6.57982 39.5457C6.76569 39.5457 6.93092 39.5044 7.07549 39.4011C7.22006 39.2978 7.36462 39.1739 7.44723 39.0087L7.67441 39.1533ZM6.53851 38.0174C6.53851 37.8935 6.53851 37.7695 6.51786 37.6456C6.51786 37.5217 6.49721 37.4184 6.45591 37.3358C6.4146 37.2326 6.37329 37.1706 6.31134 37.1293C6.24938 37.088 6.18742 37.0674 6.08416 37.0674C5.93959 37.0674 5.81567 37.15 5.7124 37.2945C5.60914 37.4391 5.56784 37.6869 5.56784 38.0174H6.53851ZM11.8669 39.8555H10.0701V39.6283C10.1114 39.6283 10.1527 39.6283 10.194 39.6076C10.256 39.6076 10.2973 39.587 10.318 39.587C10.3593 39.5663 10.3799 39.525 10.4006 39.4837C10.4212 39.4424 10.4212 39.3804 10.4212 39.2978V37.9141C10.4212 37.7076 10.3799 37.563 10.2973 37.4598C10.2147 37.3565 10.1114 37.3152 9.96686 37.3152C9.88425 37.3152 9.82229 37.3359 9.73968 37.3565C9.67772 37.3772 9.61576 37.4185 9.53315 37.4598C9.47119 37.5011 9.4299 37.5424 9.38859 37.5837C9.34729 37.625 9.32663 37.6663 9.30598 37.6869V39.2772C9.30598 39.3391 9.30597 39.4011 9.32662 39.4424C9.34728 39.4837 9.38858 39.525 9.42989 39.5457C9.45054 39.5663 9.49185 39.587 9.55381 39.587L9.69838 39.6076V39.8348H7.88093V39.6076C7.92224 39.6076 7.9842 39.6076 8.02551 39.587C8.06681 39.5663 8.12878 39.5663 8.14943 39.5663C8.21139 39.5457 8.25269 39.5044 8.27334 39.4631C8.29399 39.4218 8.31465 39.3598 8.31465 39.2772V37.5424C8.31465 37.4804 8.29399 37.4185 8.27334 37.3565C8.25269 37.2945 8.19074 37.2532 8.14943 37.2119C8.10812 37.1913 8.06681 37.1706 8.02551 37.15C7.96355 37.1293 7.9016 37.1293 7.83964 37.1293V36.9021L9.26467 36.8195L9.30598 36.8608V37.2945C9.36793 37.2326 9.45054 37.1706 9.5125 37.1087C9.57446 37.0467 9.65707 36.9848 9.73968 36.9434C9.82229 36.9021 9.9049 36.8608 10.0288 36.8195C10.1527 36.7782 10.2767 36.7782 10.4006 36.7782C10.731 36.7782 10.9582 36.8815 11.1234 37.0467C11.2886 37.2326 11.3712 37.4804 11.3712 37.7902V39.2565C11.3712 39.3392 11.3712 39.4011 11.3919 39.4218C11.4125 39.4631 11.4539 39.5044 11.5158 39.525C11.5365 39.5457 11.5778 39.5457 11.6397 39.5663C11.681 39.5663 11.743 39.587 11.8049 39.587L11.8669 39.8555ZM15.9561 39.8555H14.5518C14.4072 39.587 14.242 39.3391 14.0767 39.0913C13.9322 38.8848 13.8083 38.6783 13.6844 38.513L13.5191 38.6576V39.2978C13.5191 39.3598 13.5191 39.4424 13.5398 39.4631C13.5604 39.5044 13.6017 39.5457 13.6637 39.5663C13.705 39.587 13.7463 39.587 13.7876 39.6076C13.8289 39.6283 13.8909 39.6283 13.9322 39.6283V39.8555H12.0941V39.6283C12.1354 39.6283 12.1974 39.6283 12.2387 39.6076C12.28 39.6076 12.3419 39.587 12.3626 39.587C12.4245 39.5663 12.4658 39.525 12.4865 39.4837C12.5071 39.4424 12.5278 39.3804 12.5278 39.2978V35.9728C12.5278 35.9108 12.5071 35.8282 12.4865 35.7662C12.4658 35.7043 12.4245 35.6423 12.3626 35.601C12.3213 35.5804 12.2593 35.5597 12.1974 35.5391C12.1147 35.5184 12.0528 35.5184 11.9908 35.5184V35.2912L13.4572 35.2086L13.4985 35.2499V38.3272C13.643 38.2033 13.8083 38.038 13.9941 37.8728C14.18 37.7076 14.3246 37.563 14.4278 37.4391C14.4898 37.3771 14.5311 37.3152 14.5311 37.2945C14.5311 37.2532 14.5311 37.2326 14.5311 37.2326C14.5311 37.1913 14.5105 37.1706 14.4278 37.15C14.3452 37.1293 14.2833 37.1087 14.1387 37.088V36.8815H15.6464V37.088C15.4398 37.15 15.2953 37.1913 15.192 37.2326C15.0887 37.2739 14.9648 37.3565 14.8409 37.4184C14.7583 37.4804 14.6757 37.5217 14.5931 37.5837C14.5105 37.6456 14.4278 37.7282 14.3246 37.8109C14.5105 38.1 14.6963 38.3478 14.8616 38.5957C15.0268 38.8228 15.192 39.0913 15.3779 39.3598C15.4398 39.4631 15.5018 39.5044 15.605 39.5457C15.7083 39.5663 15.7909 39.587 15.8735 39.6076V39.8348H15.9561V39.8555ZM17.8768 39.8555H15.9975V39.6283C16.0388 39.6283 16.1007 39.6283 16.142 39.6076C16.1833 39.6076 16.2453 39.587 16.2659 39.587C16.3279 39.5663 16.3692 39.525 16.3898 39.4837C16.4105 39.4424 16.4312 39.3804 16.4312 39.2978V37.563C16.4312 37.5011 16.4105 37.4185 16.3898 37.3772C16.3692 37.3152 16.3279 37.2739 16.2659 37.2532C16.2246 37.2326 16.1833 37.2119 16.1007 37.1913C16.0181 37.1706 15.9561 37.15 15.8942 37.15V36.9228L17.3605 36.8402L17.4018 36.8815V39.2359C17.4018 39.2979 17.4225 39.3598 17.4431 39.4218C17.4638 39.4631 17.5257 39.5044 17.5671 39.525C17.6084 39.5457 17.6497 39.5663 17.691 39.5663C17.7323 39.587 17.7942 39.587 17.8355 39.587L17.8768 39.8555ZM17.4431 35.8076C17.4431 35.9521 17.3812 36.076 17.2779 36.1793C17.154 36.2825 17.0301 36.3445 16.8649 36.3445C16.6996 36.3445 16.5757 36.2825 16.4518 36.1793C16.3279 36.076 16.2866 35.9315 16.2866 35.8076C16.2866 35.663 16.3485 35.5391 16.4518 35.4151C16.5757 35.3119 16.6996 35.2499 16.8649 35.2499C17.0301 35.2499 17.154 35.3119 17.2779 35.4151C17.3812 35.5184 17.4431 35.663 17.4431 35.8076ZM22.0693 39.8555H20.2726V39.6283C20.3139 39.6283 20.3552 39.6283 20.3965 39.6076C20.4584 39.6076 20.4997 39.587 20.5204 39.587C20.5617 39.5663 20.5823 39.525 20.603 39.4837C20.6237 39.4424 20.6236 39.3804 20.6236 39.2978V37.9141C20.6236 37.7076 20.5823 37.563 20.4997 37.4598C20.4171 37.3565 20.3139 37.3152 20.1693 37.3152C20.0867 37.3152 20.0247 37.3359 19.9421 37.3565C19.8595 37.3772 19.8182 37.4185 19.7356 37.4598C19.6736 37.5011 19.6323 37.5424 19.591 37.5837C19.5497 37.625 19.5291 37.6663 19.5084 37.6869V39.2772C19.5084 39.3391 19.5084 39.4011 19.5291 39.4424C19.5497 39.4837 19.591 39.525 19.6323 39.5457C19.653 39.5663 19.6943 39.587 19.7562 39.587L19.9008 39.6076V39.8348H18.0834V39.6076C18.1247 39.6076 18.1866 39.6076 18.2279 39.587C18.2692 39.5663 18.3312 39.5663 18.3519 39.5663C18.4138 39.5457 18.4551 39.5044 18.4758 39.4631C18.4964 39.4218 18.5171 39.3598 18.5171 39.2772V37.5424C18.5171 37.4804 18.4964 37.4185 18.4758 37.3565C18.4551 37.2945 18.3932 37.2532 18.3519 37.2119C18.3105 37.1913 18.2692 37.1706 18.2279 37.15C18.166 37.1293 18.104 37.1293 18.0421 37.1293V36.9021L19.4671 36.8195L19.5084 36.8608V37.2945C19.5704 37.2326 19.653 37.1706 19.7149 37.1087C19.7769 37.0467 19.8595 36.9848 19.9421 36.9434C20.0247 36.9021 20.1073 36.8608 20.2313 36.8195C20.3552 36.7782 20.4791 36.7782 20.603 36.7782C20.9334 36.7782 21.1606 36.8815 21.3258 37.0467C21.4911 37.2326 21.5737 37.4804 21.5737 37.7902V39.2565C21.5737 39.3392 21.5737 39.4011 21.5943 39.4218C21.615 39.4631 21.6563 39.5044 21.7182 39.525C21.7389 39.5457 21.7802 39.5457 21.8422 39.5663C21.8835 39.5663 21.9454 39.587 22.0074 39.587L22.0693 39.8555ZM23.7216 39.9587C23.5357 39.9587 23.3498 39.9381 23.1639 39.8761C22.9781 39.8142 22.8335 39.7522 22.7302 39.6902L22.6476 39.8968H22.4204L22.3791 38.8022H22.6063C22.627 38.8848 22.6889 38.9881 22.7509 39.112C22.8128 39.2359 22.8954 39.3185 22.9987 39.4218C23.102 39.5044 23.2052 39.587 23.3292 39.6489C23.4531 39.7109 23.577 39.7522 23.7009 39.7522C23.8868 39.7522 24.0107 39.7109 24.0933 39.6489C24.1759 39.587 24.2172 39.4631 24.2172 39.3185C24.2172 39.2359 24.1966 39.1739 24.1553 39.112C24.114 39.0707 24.052 39.0087 23.99 38.9674C23.9074 38.9261 23.8248 38.8848 23.7422 38.8641C23.639 38.8435 23.5357 38.8022 23.3911 38.7609C23.2672 38.7196 23.1433 38.6783 23.04 38.637C22.9368 38.5957 22.8335 38.5337 22.7509 38.4511C22.6683 38.3685 22.5857 38.2859 22.5443 38.1826C22.4824 38.0793 22.4617 37.9554 22.4617 37.7902C22.4617 37.5217 22.5857 37.2739 22.8128 37.1087C23.0607 36.9434 23.3498 36.8608 23.7422 36.8608C23.9281 36.8608 24.0933 36.8815 24.2379 36.9228C24.3824 36.9641 24.5064 37.0054 24.6096 37.0467L24.6716 36.8815H24.8988L24.9401 37.8935H24.7335C24.6716 37.6869 24.5477 37.5217 24.3824 37.3565C24.2172 37.2119 24.0314 37.1293 23.8455 37.1293C23.7009 37.1293 23.577 37.15 23.4737 37.2326C23.3911 37.2945 23.3498 37.3771 23.3498 37.5011C23.3498 37.6456 23.4118 37.7489 23.5357 37.8315C23.6596 37.8935 23.8455 37.9554 24.0727 38.0174C24.4237 38.1206 24.6922 38.2446 24.8575 38.3891C25.0227 38.5544 25.1053 38.7609 25.1053 38.988C25.1053 39.3185 24.9814 39.5663 24.7335 39.7316C24.4651 39.8761 24.1346 39.9587 23.7216 39.9587Z" fill="white"/>
</svg>
