<svg width="40" height="36" viewBox="0 0 40 36" fill="none" xmlns="http://www.w3.org/2000/svg">
<path d="M20.2451 35.7575L27.4306 13.7606H13.0596L20.2451 35.7575Z" fill="#E24329"/>
<path d="M20.2452 35.7575L13.0597 13.7606H2.99194L20.2452 35.7575Z" fill="#FC6D26"/>
<path d="M2.99185 13.7606L0.810165 20.4458C0.710088 20.746 0.710088 21.0662 0.810165 21.3665C0.910242 21.6667 1.09038 21.9269 1.35058 22.107L20.2451 35.7776L2.99185 13.7606Z" fill="#FCA326"/>
<path d="M2.99194 13.7606H13.0597L8.73635 0.510393C8.51618 -0.170131 7.53543 -0.170131 7.31526 0.510393L2.99194 13.7606Z" fill="#E24329"/>
<path d="M20.2451 35.7575L27.4307 13.7606H37.4984L20.2451 35.7575Z" fill="#FC6D26"/>
<path d="M37.4784 13.7606L39.6601 20.4458C39.7601 20.746 39.7601 21.0662 39.6601 21.3665C39.56 21.6667 39.3798 21.9269 39.1196 22.107L20.2451 35.7575L37.4784 13.7606Z" fill="#FCA326"/>
<path d="M37.4784 13.7606H27.4106L31.734 0.510393C31.9541 -0.170131 32.9149 -0.170131 33.1551 0.510393L37.4784 13.7606Z" fill="#E24329"/>
</svg>
