<svg width="40" height="33" viewBox="0 0 40 33" fill="none" xmlns="http://www.w3.org/2000/svg">
<path fill-rule="evenodd" clip-rule="evenodd" d="M6.63432 26.5571V24.0604C6.63432 23.7383 6.83566 23.4765 7.17795 23.4765H7.27862C7.6209 23.4765 7.82224 23.7383 7.82224 24.0604V29.3154C7.82224 30.604 7.19808 31.6107 6.0907 32.2752C5.58734 32.5772 5.00345 32.7383 4.41955 32.7383H4.17795C2.88936 32.7383 1.88264 32.1141 1.21821 31.0067C0.916198 30.5034 0.755127 29.9195 0.755127 29.3356V29.094C0.755127 27.8054 1.37929 26.7987 2.48667 26.1342C2.99003 25.8322 3.57392 25.6711 4.15781 25.6711H4.39942C5.2652 25.6711 6.01016 26.0134 6.63432 26.5571ZM1.94305 29.1946C1.94305 30.1208 2.386 30.8255 3.2115 31.2685C3.53365 31.4497 3.89607 31.5503 4.27862 31.5503C5.18466 31.5503 5.86922 31.1275 6.3323 30.3423C6.55378 29.9799 6.65445 29.5973 6.65445 29.1745C6.65445 28.3691 6.2719 27.745 5.62761 27.2819C5.24506 27 4.8021 26.8591 4.31888 26.8591C3.3323 26.8591 2.60748 27.3624 2.18466 28.2483C2.00345 28.5503 1.94305 28.8725 1.94305 29.1946ZM11.9095 25.6711H12.0706C13.4397 25.6711 14.4867 26.3356 15.1511 27.5235C15.4128 28.0067 15.5538 28.5302 15.5538 29.0738V29.3154C15.5538 30.604 14.9296 31.6107 13.8222 32.2752C13.3189 32.5772 12.7551 32.7383 12.1511 32.7383H11.9095C10.6209 32.7383 9.61418 32.1141 8.94975 31.0067C8.64774 30.5034 8.48667 29.9195 8.48667 29.3356V29.094C8.48667 27.8054 9.13096 26.7987 10.2182 26.1342C10.7417 25.8322 11.3256 25.6711 11.9095 25.6711ZM9.69472 29.1946C9.69472 30.1007 10.1377 30.745 10.9028 31.2282C11.2652 31.4497 11.6477 31.5503 12.0706 31.5503C12.9565 31.5503 13.6209 31.1074 14.0639 30.3423C14.2853 29.9799 14.386 29.5973 14.386 29.1745C14.386 28.3289 13.9833 27.7047 13.2988 27.2416C12.9162 26.9799 12.4934 26.8591 12.0504 26.8591C11.0639 26.8591 10.339 27.3624 9.9162 28.2483C9.75512 28.5503 9.69472 28.8725 9.69472 29.1946ZM20.4665 26.9597C20.2853 26.8792 19.9632 26.8389 19.7618 26.8389C18.7753 26.7987 18.0504 27.3624 17.6477 28.2282C17.5068 28.5302 17.4464 28.8524 17.4464 29.1745C17.4464 30.1812 17.9699 30.906 18.8759 31.3289C19.1981 31.4899 19.641 31.5101 19.9833 31.5101C20.3055 31.5101 20.7484 31.3087 21.0303 31.1879L21.0706 31.1678H21.292H21.3122C21.5739 31.2282 21.7753 31.3893 21.7753 31.6913V31.8121C21.7753 32.5369 20.4665 32.698 19.9632 32.7383C18.1914 32.8591 16.8625 31.8926 16.3591 30.2013C16.2786 29.8993 16.2383 29.6174 16.2383 29.3154V29.0738C16.2383 27.7852 16.8826 26.7785 17.9699 26.1141C18.4732 25.8121 19.037 25.651 19.641 25.651H19.8826C20.5068 25.651 21.0907 25.8322 21.6142 26.1946L21.6545 26.2148L21.6746 26.255C21.735 26.3557 21.7753 26.4564 21.7753 26.5571V26.6779C21.7753 26.9799 21.5538 27.1409 21.2719 27.2013H21.2518H21.1914C21.0303 27.2013 20.6276 27.0201 20.4665 26.9597ZM24.292 27.745C24.7551 27.2819 25.2182 26.8188 25.6813 26.3758C25.8021 26.255 26.3055 25.7114 26.4867 25.7114H26.7081H26.7283C26.99 25.7718 27.1914 25.9329 27.1914 26.2349V26.3557C27.1914 26.5571 26.9498 26.7785 26.8289 26.9195C26.5672 27.2013 26.2652 27.4832 26.0035 27.7651L24.5739 29.2148C25.1981 29.8389 25.8021 30.443 26.4061 31.0671C26.5672 31.2483 26.7484 31.4094 26.9095 31.5906C26.9699 31.651 27.0504 31.7315 27.1108 31.8121C27.1712 31.8926 27.1914 31.9732 27.1914 32.0738V32.1946V32.2148C27.131 32.4765 26.9498 32.698 26.6477 32.698H26.5471C26.3457 32.698 26.1243 32.4765 26.0035 32.3557C25.7216 32.094 25.4598 31.8121 25.1981 31.5503L24.292 30.6644V32.094C24.292 32.4161 24.0907 32.6779 23.7484 32.6779H23.6477C23.3055 32.6779 23.1041 32.4161 23.1041 32.094V24.0604C23.1041 23.7383 23.3055 23.4765 23.6477 23.4765H23.7484C24.0907 23.4765 24.292 23.7383 24.292 24.0604V27.745ZM39.0303 25.7114H39.1511C39.5135 25.7114 39.735 25.953 39.735 26.2953C39.735 26.7785 39.2719 26.9195 38.8692 26.9195C38.3457 26.9195 37.8222 27.2416 37.4598 27.604C36.9967 28.047 36.7954 28.6309 36.7954 29.255V32.1141C36.7954 32.4362 36.5941 32.698 36.2518 32.698H36.1712C35.829 32.698 35.6276 32.4362 35.6276 32.1141V29.094C35.6276 27.9262 36.1914 26.9799 37.1377 26.3154C37.7014 25.9329 38.3457 25.7114 39.0303 25.7114ZM30.6343 31.3893C31.0571 31.5302 31.5605 31.5101 32.0034 31.4497C32.2249 31.349 32.8088 31.1074 33.0102 31.1477H33.0504L33.0907 31.1678C33.2115 31.2282 33.3524 31.3289 33.4128 31.4497C33.5739 31.7517 33.4934 32.0738 33.1914 32.255L33.0907 32.3154C31.9632 32.9597 30.7753 32.8792 29.6679 32.2752C29.1243 31.9933 28.7216 31.5503 28.4196 31.0268L28.339 30.906C27.6142 29.6577 27.7149 28.349 28.5202 27.1611C28.8021 26.7584 29.1645 26.4362 29.5873 26.1946L29.7484 26.094C30.7954 25.4899 31.9431 25.5302 33.0303 26.0537C33.6142 26.3356 34.0773 26.7785 34.4196 27.3423L34.48 27.443C34.7216 27.8456 34.4196 28.2081 34.0974 28.4497C33.735 28.7315 33.3524 29.0738 33.0102 29.3758C32.2048 30.0403 31.4196 30.7248 30.6343 31.3893ZM29.6276 30.6846C30.5135 29.9396 31.3793 29.1745 32.2652 28.4295C32.5672 28.1678 32.8894 27.906 33.1914 27.6242C32.9498 27.3222 32.5471 27.1007 32.2249 26.9799C31.5404 26.7181 30.8759 26.7987 30.2518 27.1611C29.4263 27.6242 29.084 28.3893 29.1243 29.3154C29.1444 29.6779 29.2451 30.0403 29.4263 30.3624C29.4665 30.4832 29.5269 30.5839 29.6276 30.6846ZM23.2451 6.98658H26.7283V10.5503H28.5001C29.3055 10.5503 30.1511 10.4094 30.9162 10.1477C31.2988 10.0269 31.7216 9.84564 32.1041 9.62416C31.6209 8.97986 31.3592 8.17449 31.2786 7.36912C31.1779 6.28187 31.3994 4.87249 32.1444 4.00672L32.5068 3.58389L32.9498 3.92617C34.0571 4.81208 34.9833 6.04027 35.1444 7.44967C36.4733 7.06711 38.0236 7.14766 39.1914 7.83222L39.6746 8.11409L39.4128 8.59732C38.4263 10.5302 36.3524 11.1141 34.339 11.0134C31.3189 18.5436 24.735 22.1074 16.7618 22.1074C12.6343 22.1074 8.86922 20.557 6.71486 16.9128L6.67459 16.8524L6.35244 16.2081C5.62761 14.5973 5.386 12.8456 5.54707 11.0738L5.58734 10.5503H8.58734V6.98658H12.0706V3.50336H19.0571V0H23.2451V6.98658Z" fill="#EDEDED"/>
<path fill-rule="evenodd" clip-rule="evenodd" d="M34.5405 8.29532C34.7821 6.48323 33.413 5.0537 32.5673 4.36914C31.6009 5.49666 31.4398 8.43625 32.97 9.68457C32.1244 10.4497 30.3324 11.1342 28.4801 11.1342H6.13108C5.94987 13.047 6.29216 14.8188 7.05726 16.3289L7.319 16.792C7.48007 17.0738 7.66128 17.3356 7.84248 17.5772C8.76866 17.6376 9.6143 17.6577 10.3794 17.6376C11.9096 17.5973 13.1378 17.4161 14.0841 17.094C14.1445 17.0738 14.225 17.0738 14.2854 17.1141C14.3458 17.1544 14.3861 17.1946 14.4264 17.2752C14.4465 17.3356 14.4465 17.4161 14.4062 17.4765C14.3861 17.5369 14.3257 17.5973 14.2653 17.6175C14.1445 17.6577 14.0036 17.698 13.8828 17.7383C13.1378 17.9597 12.3525 18.1007 11.3257 18.1611C11.3861 18.1611 11.2653 18.1611 11.2653 18.1611C11.225 18.1611 11.1848 18.1611 11.1445 18.1611C10.7418 18.1812 10.2989 18.1812 9.85591 18.1812C9.37269 18.1812 8.88946 18.1812 8.34584 18.1409H8.32571C10.1982 20.2349 13.0975 21.4832 16.7619 21.4832C24.4935 21.4832 31.0371 18.0604 33.9566 10.3691C36.0103 10.5906 38.0036 10.047 38.8895 8.29532C37.4398 7.51008 35.6076 7.77183 34.5405 8.29532Z" fill="#22A0C8"/>
<path fill-rule="evenodd" clip-rule="evenodd" d="M34.5405 8.29532C34.7821 6.48323 33.4129 5.0537 32.5673 4.36914C31.6009 5.49666 31.4398 8.43625 32.97 9.68457C32.1244 10.4497 30.3324 11.1342 28.4801 11.1342H7.45993C7.35926 14.0738 8.46665 16.3087 10.3794 17.6577C11.9096 17.6175 13.1378 17.4363 14.0841 17.1141C14.1445 17.094 14.225 17.094 14.2854 17.1342C14.3458 17.1745 14.3861 17.2148 14.4264 17.2953C14.4465 17.3557 14.4465 17.4363 14.4062 17.4967C14.3861 17.5571 14.3257 17.6175 14.2653 17.6376C14.1445 17.6779 14.0036 17.7181 13.8827 17.7584C13.1378 17.9799 12.272 18.141 11.2452 18.2014L11.225 18.1812C13.8626 19.5302 17.668 19.5302 22.0371 17.8389C26.9297 15.9463 31.5002 12.3624 34.6814 8.25504C34.6411 8.25504 34.5807 8.27518 34.5405 8.29532Z" fill="#37B1D9"/>
<path fill-rule="evenodd" clip-rule="evenodd" d="M6.17139 13.4697C6.31233 14.4966 6.61434 15.463 7.0573 16.3288L7.31904 16.7919C7.48011 17.0738 7.66132 17.3355 7.84253 17.5771C8.7687 17.6375 9.61435 17.6576 10.3794 17.6375C11.9096 17.5972 13.1378 17.416 14.0841 17.0939C14.1445 17.0738 14.2251 17.0737 14.2855 17.114C14.3459 17.1543 14.3862 17.1946 14.4264 17.2751C14.4466 17.3355 14.4466 17.416 14.4063 17.4764C14.3862 17.5368 14.3258 17.5972 14.2653 17.6174C14.1445 17.6576 14.0036 17.6979 13.8828 17.7382C13.1378 17.9597 12.2721 18.1006 11.2452 18.161C11.2049 18.161 11.1445 18.161 11.1043 18.161C10.7016 18.1811 10.2788 18.2013 9.81568 18.2013C9.33246 18.2013 8.82911 18.2013 8.28548 18.161C10.158 20.255 13.0774 21.5234 16.7217 21.5234C23.3459 21.5234 29.0841 19.0066 32.4264 13.4697H6.17139Z" fill="#1B81A5"/>
<path fill-rule="evenodd" clip-rule="evenodd" d="M7.66138 13.4697C8.06406 15.2818 9.01037 16.6912 10.3795 17.6576C11.9097 17.6174 13.1379 17.4362 14.0842 17.114C14.1446 17.0939 14.2251 17.0939 14.2855 17.1341C14.3459 17.1744 14.3862 17.2147 14.4265 17.2952C14.4466 17.3556 14.4466 17.4362 14.4063 17.4966C14.3862 17.557 14.3258 17.6174 14.2654 17.6375C14.1446 17.6778 14.0037 17.718 13.8828 17.7583C13.1379 17.9798 12.2721 18.1207 11.2453 18.1811C13.8829 19.5301 17.6681 19.51 22.0574 17.8388C24.6949 16.8321 27.252 15.3019 29.5271 13.4899H7.66138V13.4697Z" fill="#1D91B4"/>
<path fill-rule="evenodd" clip-rule="evenodd" d="M9.17139 7.57049H12.1915V10.5906H9.17139V7.57049ZM9.41299 7.8121H9.6546V10.3289H9.41299V7.8121ZM9.87608 7.8121H10.1177V10.3289H9.87608V7.8121ZM10.319 7.8121H10.5606V10.3289H10.319V7.8121ZM10.7821 7.8121H11.0237V10.3289H10.7821V7.8121ZM11.2452 7.8121H11.4868V10.3289H11.2452V7.8121ZM11.7083 7.8121H11.9499V10.3289H11.7083V7.8121ZM12.6546 4.06714H15.6747V7.08727H12.6546V4.06714ZM12.9163 4.32888H13.158V6.84566H12.9163V4.32888ZM13.3593 4.32888H13.6009V6.84566H13.3593V4.32888ZM13.8224 4.32888H14.064V6.84566H13.8224V4.32888ZM14.2653 4.32888H14.507V6.84566H14.2653V4.32888ZM14.7284 4.32888H14.97V6.84566H14.7284V4.32888ZM15.1915 4.32888H15.4331V6.84566H15.1915V4.32888Z" fill="#23A3C2"/>
<path fill-rule="evenodd" clip-rule="evenodd" d="M12.6545 7.57043H15.6747V10.5906H12.6545V7.57043ZM12.9163 7.81205H13.1579V10.3288H12.9163V7.81205ZM13.3592 7.81205H13.6009V10.3288H13.3592V7.81205ZM13.8223 7.81205H14.0639V10.3288H13.8223V7.81205ZM14.2653 7.81205H14.5069V10.3288H14.2653V7.81205ZM14.7284 7.81205H14.97V10.3288H14.7284V7.81205ZM15.1914 7.81205H15.4331V10.3288H15.1914V7.81205Z" fill="#34BBDE"/>
<path fill-rule="evenodd" clip-rule="evenodd" d="M16.1377 7.57043H19.1578V10.5906H16.1377V7.57043ZM16.3994 7.81205H16.6411V10.3288H16.3994V7.81205ZM16.8424 7.81205H17.084V10.3288H16.8424V7.81205ZM17.3055 7.81205H17.5471V10.3288H17.3055V7.81205ZM17.7686 7.81205H18.0102V10.3288H17.7686V7.81205ZM18.2115 7.81205H18.4531V10.3288H18.2115V7.81205ZM18.6746 7.81205H18.9162V10.3288H18.6746V7.81205Z" fill="#23A3C2"/>
<path fill-rule="evenodd" clip-rule="evenodd" d="M16.1377 4.06714H19.1578V7.08727H16.1377V4.06714ZM16.3994 4.32888H16.6411V6.84566H16.3994V4.32888ZM16.8424 4.32888H17.084V6.84566H16.8424V4.32888ZM17.3055 4.32888H17.5471V6.84566H17.3055V4.32888ZM17.7686 4.32888H18.0102V6.84566H17.7686V4.32888ZM18.2115 4.32888H18.4531V6.84566H18.2115V4.32888ZM18.6746 4.32888H18.9162V6.84566H18.6746V4.32888ZM19.6411 7.57049H22.6612V10.5906H19.6411V7.57049ZM19.8827 7.8121H20.1243V10.3289H19.8827V7.8121ZM20.3256 7.8121H20.5672V10.3289H20.3256V7.8121ZM20.7887 7.8121H21.0303V10.3289H20.7887V7.8121ZM21.2518 7.8121H21.4934V10.3289H21.2518V7.8121ZM21.7149 7.8121H21.9565V10.3289H21.7149V7.8121ZM22.1578 7.8121H22.3994V10.3289H22.1578V7.8121Z" fill="#969696"/>
<path fill-rule="evenodd" clip-rule="evenodd" d="M19.6411 4.06714H22.6612V7.08727H19.6411V4.06714ZM19.8827 4.32888H20.1243V6.84566H19.8827V4.32888ZM20.3257 4.32888H20.5673V6.84566H20.3257V4.32888ZM20.7888 4.32888H21.0304V6.84566H20.7888V4.32888ZM21.2519 4.32888H21.4935V6.84566H21.2519V4.32888ZM21.7149 4.32888H21.9565V6.84566H21.7149V4.32888ZM22.1579 4.32888H22.3995V6.84566H22.1579V4.32888Z" fill="#23A3C2"/>
<path fill-rule="evenodd" clip-rule="evenodd" d="M19.6411 0.583862H22.6612V3.604H19.6411V0.583862ZM19.8827 0.845605H20.1243V3.36238H19.8827V0.845605ZM20.3257 0.845605H20.5673V3.36238H20.3257V0.845605ZM20.7888 0.845605H21.0304V3.36238H20.7888V0.845605ZM21.2519 0.845605H21.4935V3.36238H21.2519V0.845605ZM21.7149 0.845605H21.9565V3.36238H21.7149V0.845605ZM22.1579 0.845605H22.3995V3.36238H22.1579V0.845605Z" fill="#34BBDE"/>
<path fill-rule="evenodd" clip-rule="evenodd" d="M23.1243 7.57043H26.1444V10.5906H23.1243V7.57043ZM23.3659 7.81205H23.6075V10.3288H23.3659V7.81205ZM23.829 7.81205H24.0706V10.3288H23.829V7.81205ZM24.2719 7.81205H24.5135V10.3288H24.2719V7.81205ZM24.735 7.81205H24.9766V10.3288H24.735V7.81205ZM25.1981 7.81205H25.4397V10.3288H25.1981V7.81205ZM25.6612 7.81205H25.9028V10.3288H25.6612V7.81205Z" fill="#23A3C2"/>
<path fill-rule="evenodd" clip-rule="evenodd" d="M15.4935 15.4832C15.5941 15.4832 15.715 15.5033 15.8156 15.5436C15.9163 15.5838 16.017 15.6442 16.0975 15.7248C16.178 15.8053 16.2384 15.8858 16.2787 16.0066C16.319 16.1073 16.3391 16.208 16.3391 16.3288C16.3391 16.4496 16.319 16.5503 16.2787 16.6509C16.2384 16.7516 16.178 16.8523 16.0975 16.9328C16.017 17.0133 15.9163 17.0738 15.8156 17.114C15.715 17.1543 15.5941 17.1744 15.4935 17.1744C15.272 17.1744 15.0707 17.0737 14.9096 16.9328C14.7485 16.7717 14.668 16.5704 14.668 16.3489C14.668 16.1274 14.7485 15.9261 14.9096 15.765C15.0707 15.5838 15.272 15.5033 15.4935 15.4832Z" fill="#E4E4E4"/>
<path fill-rule="evenodd" clip-rule="evenodd" d="M15.4935 15.7248C15.574 15.7248 15.6344 15.7449 15.715 15.765C15.6747 15.7852 15.6344 15.8254 15.6143 15.8858C15.5942 15.9261 15.5942 15.9865 15.6143 16.0469C15.6344 16.1073 15.6546 16.1476 15.6948 16.1677C15.7351 16.1878 15.7955 16.2281 15.8358 16.2281C15.9365 16.2281 16.017 16.1677 16.0573 16.1073C16.0975 16.2281 16.1177 16.3489 16.0774 16.4899C16.0371 16.6107 15.9767 16.7315 15.8761 16.812C15.7754 16.8925 15.6546 16.9328 15.5338 16.953C15.413 16.953 15.272 16.9328 15.1714 16.8523C15.0707 16.7717 14.9901 16.6711 14.9499 16.5503C14.9096 16.4295 14.9096 16.2885 14.9499 16.1677C14.9901 16.0469 15.0707 15.9462 15.1714 15.8657C15.2318 15.765 15.3526 15.7248 15.4935 15.7248ZM0.735107 13.7717H39.5338C38.6881 13.5503 36.8559 13.2684 37.1579 12.161C35.6277 13.9328 31.923 13.4093 30.9767 12.5234C29.9297 14.0335 23.8693 13.4697 23.4465 12.2818C22.1378 13.812 18.0908 13.812 16.7821 12.2818C16.3593 13.4496 10.2989 14.0335 9.25188 12.5234C8.32571 13.4093 4.62102 13.9328 3.07068 12.161C3.41296 13.2684 1.58075 13.5503 0.735107 13.7717Z" fill="#414141"/>
<path fill-rule="evenodd" clip-rule="evenodd" d="M17.7083 21.5034C15.6345 20.5168 14.507 19.1879 13.8828 17.7383C13.1177 17.9598 12.1915 18.1007 11.1244 18.1611C10.7217 18.1812 10.2989 18.2014 9.85597 18.2014C9.33248 18.2014 8.80899 18.1812 8.2251 18.1611C10.1177 20.0537 12.4533 21.5034 16.762 21.5437C17.0842 21.5235 17.3862 21.5235 17.7083 21.5034Z" fill="#D0D0D0"/>
<path fill-rule="evenodd" clip-rule="evenodd" d="M14.6478 19.0873C14.3659 18.7047 14.084 18.2014 13.8827 17.7383C13.1176 17.9598 12.1914 18.1007 11.1243 18.1611C11.8491 18.5638 12.8961 18.9262 14.6478 19.0873Z" fill="#E4E4E4"/>
</svg>
