<svg width="30" height="27" viewBox="0 0 30 27" fill="none" xmlns="http://www.w3.org/2000/svg">
<path d="M28.125 8H1.875C0.977544 8 0.25 7.27246 0.25 6.375V2.625C0.25 1.72754 0.977544 1 1.875 1H28.125C29.0225 1 29.75 1.72754 29.75 2.625V6.375C29.75 7.27246 29.0225 8 28.125 8ZM25.3125 2.84375C24.3978 2.84375 23.6562 3.58527 23.6562 4.5C23.6562 5.41473 24.3978 6.15625 25.3125 6.15625C26.2272 6.15625 26.9688 5.41473 26.9688 4.5C26.9688 3.58527 26.2272 2.84375 25.3125 2.84375ZM21.5625 2.84375C20.6478 2.84375 19.9062 3.58527 19.9062 4.5C19.9062 5.41473 20.6478 6.15625 21.5625 6.15625C22.4772 6.15625 23.2188 5.41473 23.2188 4.5C23.2188 3.58527 22.4772 2.84375 21.5625 2.84375ZM28.125 17.375H1.875C0.977544 17.375 0.25 16.6475 0.25 15.75V12C0.25 11.1025 0.977544 10.375 1.875 10.375H28.125C29.0225 10.375 29.75 11.1025 29.75 12V15.75C29.75 16.6475 29.0225 17.375 28.125 17.375ZM25.3125 12.2188C24.3978 12.2188 23.6562 12.9603 23.6562 13.875C23.6562 14.7897 24.3978 15.5312 25.3125 15.5312C26.2272 15.5312 26.9688 14.7897 26.9688 13.875C26.9688 12.9603 26.2272 12.2188 25.3125 12.2188ZM21.5625 12.2188C20.6478 12.2188 19.9062 12.9603 19.9062 13.875C19.9062 14.7897 20.6478 15.5312 21.5625 15.5312C22.4772 15.5312 23.2188 14.7897 23.2188 13.875C23.2188 12.9603 22.4772 12.2188 21.5625 12.2188ZM28.125 26.75H1.875C0.977544 26.75 0.25 26.0225 0.25 25.125V21.375C0.25 20.4775 0.977544 19.75 1.875 19.75H28.125C29.0225 19.75 29.75 20.4775 29.75 21.375V25.125C29.75 26.0225 29.0225 26.75 28.125 26.75ZM25.3125 21.5938C24.3978 21.5938 23.6562 22.3353 23.6562 23.25C23.6562 24.1647 24.3978 24.9062 25.3125 24.9062C26.2272 24.9062 26.9688 24.1647 26.9688 23.25C26.9688 22.3353 26.2272 21.5938 25.3125 21.5938ZM21.5625 21.5938C20.6478 21.5938 19.9062 22.3353 19.9062 23.25C19.9062 24.1647 20.6478 24.9062 21.5625 24.9062C22.4772 24.9062 23.2188 24.1647 23.2188 23.25C23.2188 22.3353 22.4772 21.5938 21.5625 21.5938Z" stroke="#FFD600" stroke-width="0.5"/>
</svg>
