<svg width="35" height="40" viewBox="0 0 35 40" fill="none" xmlns="http://www.w3.org/2000/svg">
<path d="M26.1717 7.44436C24.1313 6.17163 22.2121 5.67668 20.2828 4.40395C19.0909 3.59587 17.4343 1.66658 16.0505 0.0100098C15.7778 2.66658 14.9697 3.74739 14.0505 4.51506C12.0909 6.06052 10.8586 6.51506 9.16161 7.44436C7.73737 8.17163 0 12.7979 0 22.7373C0 32.6767 8.35353 39.9999 17.6263 39.9999C26.899 39.9999 34.9394 33.2524 34.9394 23.0504C34.9495 12.8383 27.404 8.21203 26.1717 7.44436Z" fill="black"/>
<path d="M7.23233 32.8283C10.1515 32.7879 10.697 32.2929 13.2727 31.1313C27.202 24.8889 29.7778 19.1818 30.2828 17.8788C30.7778 16.5657 31.5151 14.4444 30.7475 12.101C30.5959 11.6465 30.495 11.2828 30.4142 10.9899C28.5657 8.91919 26.7273 7.78788 26.1717 7.43434C24.1717 6.16161 22.2121 5.66667 20.2828 4.39394C19.0909 3.62626 17.4343 1.65657 16.0505 0C15.7778 2.65657 15.0101 3.77778 14.0505 4.50505C12.0909 6.0505 10.8586 6.50505 9.16161 7.43434C7.73737 8.20202 0 12.7879 0 22.7273C0 25.899 0.848475 28.8081 2.31312 31.2929L2.69696 31.2828C3.50505 32.0202 4.76769 32.8687 7.23233 32.8283Z" fill="#0073BA"/>
<path d="M30.7477 12.101C31.5153 14.4545 30.7881 16.5757 30.283 17.8788C29.7881 19.1919 27.2022 24.8889 13.2729 31.1313C10.6971 32.2828 10.1517 32.7878 7.23252 32.8283C4.76787 32.8687 3.49515 32.0202 2.68707 31.2828L2.30322 31.2929C5.41433 36.5959 11.3032 39.9899 17.6163 39.9899C26.8891 39.9899 34.9295 33.2424 34.9295 23.0404C34.9295 17.4343 32.6568 13.5151 30.4042 10.9899C30.4951 11.2828 30.5961 11.6464 30.7477 12.101Z" fill="#00598E"/>
<path d="M23.0507 31.3637C23.6669 31.3637 24.3234 31.4041 24.778 31.7071C25.2426 32.0203 25.5052 32.7071 25.6669 33.091C25.8184 33.4748 25.6669 33.7071 25.3537 33.8586C25.081 34.0102 25.0507 33.9394 24.778 33.4344C24.5052 32.9293 24.2729 32.4344 22.9295 32.4344C21.586 32.4344 21.1618 32.899 20.5052 33.4344C19.8487 33.9697 19.6164 34.1718 19.3941 33.8586C19.1618 33.5455 19.2426 33.2425 19.6669 32.8586C20.0911 32.4748 20.7881 31.8586 21.4345 31.5859C22.0911 31.3233 22.4345 31.3637 23.0507 31.3637Z" fill="white"/>
<path d="M26.1717 7.43434C24.1717 6.16161 22.2121 5.66667 20.2828 4.39394C19.0909 3.62626 17.4343 1.65657 16.0505 0C15.7778 2.65657 15.0101 3.77778 14.0505 4.50505C12.0909 6.0505 10.8586 6.50505 9.16161 7.43434C7.73737 8.20202 0 12.7879 0 22.7273C0 25.899 0.848475 28.8081 2.31312 31.2929C5.42423 36.596 11.3131 39.9899 17.6263 39.9899C26.899 39.9899 34.9394 33.2424 34.9394 23.0404C34.9394 17.4343 32.6667 13.5152 30.4142 10.9899C28.5657 8.91919 26.7273 7.78788 26.1717 7.43434ZM30.8485 11.9495C33.3737 15.1111 34.6566 18.8485 34.6566 23.0404C34.6566 25.4747 34.1919 27.7778 33.2828 29.8788C32.4141 31.8788 31.1717 33.6364 29.5758 35.1313C26.4242 38.0808 22.1818 39.7071 17.6364 39.7071C15.3838 39.7071 13.1818 39.2727 11.0808 38.4242C9.0202 37.5859 7.1515 36.3939 5.54544 34.8788C2.16161 31.6768 0.30303 27.3636 0.30303 22.7273C0.30303 18.596 1.63635 14.9293 4.28282 11.8283C6.29292 9.45454 8.47474 8.14141 9.31313 7.68687C9.71717 7.46464 10.101 7.26262 10.4747 7.08081C11.6364 6.48485 12.7273 5.91919 14.2424 4.73738C15.0505 4.12121 15.899 3.15152 16.2727 0.696972C17.5455 2.21212 19.0202 3.90909 20.1414 4.63637C21.1414 5.29293 22.1717 5.75758 23.1616 6.21212C24.101 6.63636 25.0707 7.0707 26.0303 7.68687L26.0707 7.70707C28.8586 9.45455 30.3535 11.3333 30.8485 11.9495Z" fill="black"/>
<path d="M16.2424 0.7677C16.7778 2.34346 16.7071 3.16164 16.7071 3.50508C16.7071 3.84851 16.5151 4.77781 15.899 5.24245C15.6262 5.43437 15.5555 5.58589 15.5555 5.62629C15.5555 5.77781 15.899 5.89901 15.899 6.24245C15.899 6.66669 15.7071 7.51518 13.6667 9.55558C11.6263 11.596 8.70706 13.4041 6.43433 14.5253C4.1616 15.6465 3.0909 15.5657 2.77777 15.0303C2.46464 14.495 2.88888 13.293 4.31312 11.7172C5.73736 10.1414 10.2424 7.86872 10.2424 7.86872L15.8586 3.93942L16.1717 2.43437" fill="#A0CCE7"/>
<path d="M16.2425 0.727295C15.8991 3.27275 15.1213 4.04043 14.091 4.84851C12.3637 6.16164 10.6667 6.96972 10.2829 7.16164C9.2829 7.66669 5.66673 9.66669 3.77784 12.5556C3.20208 13.4445 3.77785 13.7879 3.88896 13.8687C4.00007 13.9495 5.31319 14.101 8.12127 12.4041C10.9294 10.7071 12.1617 9.70709 13.7374 8.05053C14.5859 7.16164 14.697 6.66669 14.697 6.43437C14.697 6.16164 14.5051 6.05052 14.2021 5.96972C14.0506 5.92931 14.0102 5.85861 14.2021 5.73739C14.394 5.62628 15.2021 5.23234 15.394 5.08083C15.5859 4.92931 16.5051 4.31315 16.5455 3.31315C16.5859 2.31315 16.5051 1.61618 16.2425 0.727295Z" fill="white"/>
<path d="M16.6667 35.7576C17.4344 36.3737 18.596 36.8788 21.0506 36.8788C23.5152 36.8788 25.2425 36.1818 26.0102 35.606C26.3536 35.3333 26.5051 35.5656 26.5455 35.7273C26.5859 35.8788 26.6566 36.1111 26.394 36.3838C26.2021 36.5757 24.4344 37.8081 22.3536 38C20.2728 38.1919 17.4647 38.3131 15.7778 36.7677C15.5051 36.4949 15.5859 36.1111 15.7778 35.9596C15.9698 35.8081 16.1213 35.6869 16.3536 35.6869C16.5859 35.6768 16.5455 35.6768 16.6667 35.7576Z" fill="white"/>
<path d="M8.00198 25.975C8.04213 21.3639 10.8326 17.0623 14.3459 17.0004C18.8228 16.9385 21.9144 23.8397 24.1729 23.7933C26.0902 23.7314 29.754 17.9443 31.5508 17.9443C33.468 17.9443 34 21.0081 34 22.8494C34 24.6753 33.6186 27.9866 32.6951 30.0446C31.7816 32.118 31.2095 32.8762 30.1354 32.7524C28.7602 32.5667 26.0099 25.9596 24.2432 25.8512C22.0248 25.7275 17.2067 33 13.4224 33C11.1237 33 10.4412 32.4739 9.67829 31.7002C8.53398 30.4623 7.96182 28.5746 8.00198 25.975Z" fill="white"/>
</svg>
