<svg width="40" height="40" viewBox="0 0 40 40" fill="none" xmlns="http://www.w3.org/2000/svg">
<path d="M16.7056 38.83C13.2995 38.1377 10.1149 36.5593 7.59489 34.3162C1.17029 28.6116 -0.823548 19.667 2.5826 11.7193C3.41337 9.75317 4.77025 7.78702 6.45948 6.04241L7.92718 4.51933L8.03799 13.4085C8.14876 21.9377 8.14874 22.3531 8.56412 23.4331C9.36719 25.5931 10.2256 26.95 11.721 28.4177C15.5702 32.2393 21.2195 33.2085 26.0102 30.827C30.5241 28.6116 33.3764 23.7654 33.044 18.8916C32.8225 15.6239 31.7148 13.2147 29.3333 10.8055C27.5333 9.00546 25.401 7.8147 23.1026 7.34393C20.7487 6.84547 20.8595 6.79008 20.8595 8.75622V10.4732L22.161 10.6947C27.1456 11.6085 30.441 16.5101 29.3887 21.4393C29.0564 23.0177 28.3087 24.4023 27.1179 25.6762C25.3179 27.6146 22.7703 28.5562 20.5549 28.5562C16.8718 28.5562 13.8257 26.4793 12.3303 23.3777C12.3303 23.3777 11.9426 22.4916 11.8041 21.9654C11.0564 18.7808 11.5272 12.0516 11.5272 12.0516L11.4718 2.22086L12.0534 1.91625C12.3857 1.7501 12.6903 1.61165 12.7457 1.61165C12.8011 1.61165 12.8564 6.12546 12.9118 11.6639C12.9118 11.6639 12.1918 18.9193 13.078 21.6885C13.1887 22.0762 13.438 22.7685 13.438 22.7685C14.2134 24.3193 15.4318 25.7039 17.0103 26.4516C18.2287 27.0331 18.8379 27.2823 20.6102 27.2823C21.7733 27.2823 22.8256 26.9223 24.0164 26.3685C25.4287 25.7316 27.0348 24.0147 27.6441 22.4362C29.2779 18.1439 27.0071 13.4916 22.6041 12.2178C20.8041 11.6916 20.8318 11.6639 20.8318 13.6301V15.347L21.6902 15.5685C24.7918 16.3993 25.761 20.5531 23.3241 22.7131C22.4656 23.4608 21.6902 23.7931 20.3056 23.7931C18.8379 23.7931 17.4533 22.907 16.7333 21.5777C16.2903 20.7747 16.2626 19.9993 16.2626 19.6393C16.2626 16.3993 16.1795 10.5562 16.1795 10.5562L16.1241 0.531641L16.5672 0.420865C16.8164 0.36548 17.8133 0.19934 18.7825 0.0885714C22.0779 -0.326812 26.9241 0.753179 30.1918 2.60856C34.6502 5.15625 38.001 9.50392 39.4133 14.5716C39.9117 16.3162 39.9395 16.8147 39.9395 19.6116C39.9395 22.3808 39.884 22.907 39.4133 24.6239C37.5025 31.4916 32.6564 36.3931 25.7056 38.47C24.2379 38.9131 23.5733 38.9962 20.9979 39.0516C18.9764 39.0792 17.6195 39.0238 16.7056 38.83Z" fill="#C60C30"/>
</svg>
