<svg width="36" height="40" viewBox="0 0 36 40" fill="none" xmlns="http://www.w3.org/2000/svg">
<path d="M23.34 40H23.815L31.7654 36.0351L31.8893 35.8492V4.15075L31.7654 3.9649L23.815 0H23.3193L23.34 40Z" fill="#5294CF"/>
<path d="M13.0145 40H12.5189L4.5891 36.0351L4.42392 35.7666L4.34131 4.33658L4.5891 3.98552L12.5189 0.0206299H13.0145V40Z" fill="#1F5B98"/>
<path d="M12.5396 0H23.8354V40H12.5396V0Z" fill="#2D72B8"/>
<path d="M35.9367 19.1016L35.6682 19.0397L31.8272 18.6886L31.7653 18.7093L23.8148 18.3995H12.519L4.56857 18.7093V12.6587V12.638L12.519 10.8002H23.8148L31.7653 12.638L34.6976 14.1868V13.1956L35.9367 13.0511L35.8128 12.8033L31.9098 10.0154L31.7859 10.0567L23.8355 7.59932H12.5397L4.58922 10.0567V3.96484L0.438477 8.83835V13.0924L0.479793 13.0717L1.67751 13.1956V14.2075L0.438477 14.8683V19.1016H0.479793L1.67751 19.1223V20.8982L0.644981 20.9189L0.459122 20.8982V25.1316L1.69815 25.7924V26.8249L0.521084 26.9488L0.459122 26.9075V31.1615L4.60989 36.035V29.9432L12.5603 32.4006H23.8561L31.8272 29.9225L31.9305 29.9638L35.7921 27.2173L35.9573 26.9488L34.7183 26.8043V25.8131L34.5531 25.7511L31.9098 27.176L31.8066 27.3825L23.8355 29.2204H12.5397L4.58922 27.3825V21.27L12.5397 21.5797H23.8355L31.7859 21.2493L31.9718 21.3319L35.6889 21.0221L35.9573 20.8982L34.7183 20.8776V19.1016H35.9367Z" fill="#1A476F"/>
<path d="M31.7654 29.9432V36.035L35.9161 31.1615V26.9488L31.786 29.9432H31.7654ZM31.7654 27.3618H31.786L35.9161 25.1316V20.8776L31.7654 21.27V27.3618ZM31.8067 12.638H31.786V18.7093L35.9368 19.1016V14.8476L31.8067 12.638ZM31.8067 10.0774L35.9368 13.0511V8.83835L31.786 3.96484V10.0567L31.8067 10.0774Z" fill="#2D72B8"/>
</svg>
