<svg width="39" height="45" viewBox="0 0 39 45" fill="none" xmlns="http://www.w3.org/2000/svg">
<path d="M34.171 8.64622C34.148 8.41627 33.941 8.3013 33.7801 8.2783C33.6191 8.25531 30.2158 8.00236 30.2158 8.00236C30.2158 8.00236 27.8473 5.65684 27.5943 5.40389C27.3414 5.15094 26.8355 5.21993 26.6285 5.28891C26.6055 5.28891 26.0996 5.44988 25.2948 5.70283C24.513 3.4263 23.1103 1.33373 20.6498 1.33373C20.5808 1.33373 20.5118 1.33373 20.4428 1.33373C19.7529 0.413916 18.8791 0 18.1433 0C12.4175 0 9.68101 7.15153 8.83019 10.7848C6.59964 11.4746 5.03597 11.9575 4.82901 12.0265C3.58726 12.4175 3.54127 12.4634 3.38031 13.6362C3.26533 14.533 0 39.6439 0 39.6439L25.2948 44.3809L39 41.4145C39 41.4145 34.194 8.87618 34.171 8.64622ZM23.8921 6.11674L21.7535 6.78361C21.7535 6.62264 21.7535 6.48467 21.7535 6.3237C21.7535 4.89799 21.5466 3.77123 21.2476 2.87441C22.5124 3.03538 23.3632 4.46108 23.8921 6.11674ZM19.684 3.15035C20.0289 4.02417 20.2588 5.28891 20.2588 7.01356C20.2588 7.10554 20.2588 7.17453 20.2588 7.26651C18.8561 7.70342 17.3614 8.16332 15.8437 8.64622C16.6946 5.33491 18.2813 3.74823 19.684 3.15035ZM17.9823 1.54068C18.2353 1.54068 18.4882 1.63267 18.7182 1.79363C16.8785 2.66745 14.9239 4.82901 14.0961 9.17512L10.6008 10.2559C11.5666 6.94457 13.8662 1.54068 17.9823 1.54068Z" fill="#95BF46"/>
<path d="M33.7802 8.2783C33.6192 8.2553 30.2159 8.00235 30.2159 8.00235C30.2159 8.00235 27.8474 5.65683 27.5945 5.40389C27.5025 5.31191 27.3645 5.26592 27.2265 5.24292L25.2949 44.3809L39.0001 41.4145C39.0001 41.4145 34.1941 8.85318 34.1481 8.64622C34.1481 8.41627 33.9411 8.30129 33.7802 8.2783Z" fill="#5E8E3E"/>
<path d="M20.6498 15.8667L18.9481 20.9027C18.9481 20.9027 17.4764 20.1208 15.6598 20.1208C12.9923 20.1208 12.8543 21.7995 12.8543 22.2134C12.8543 24.5129 18.8331 25.3867 18.8331 30.7676C18.8331 34.9988 16.1427 37.7352 12.5324 37.7352C8.18631 37.7352 5.97876 35.0218 5.97876 35.0218L7.15152 31.1815C7.15152 31.1815 9.42805 33.1361 11.3597 33.1361C12.6244 33.1361 13.1303 32.1474 13.1303 31.4115C13.1303 28.4221 8.2093 28.2841 8.2093 23.3632C8.2093 19.224 11.1757 15.1998 17.1775 15.1998C19.5 15.1998 20.6498 15.8667 20.6498 15.8667Z" fill="white"/>
</svg>
