<svg width="39" height="17" viewBox="0 0 39 17" fill="none" xmlns="http://www.w3.org/2000/svg">
<path d="M2.73402 6.35258C2.73402 5.93041 3.07578 5.76959 3.65877 5.76959C4.48299 5.76959 5.52835 6.01083 6.35257 6.45309V3.9C5.44793 3.53814 4.5634 3.39742 3.65877 3.39742C1.46753 3.39742 0 4.5433 0 6.45309C0 9.44845 4.12113 8.96598 4.12113 10.2526C4.12113 10.7552 3.67886 10.916 3.07577 10.916C2.17113 10.916 1.02525 10.5541 0.120614 10.0515V12.6247C1.12577 13.067 2.15103 13.2479 3.07577 13.2479C5.32732 13.2479 6.87526 12.1423 6.87526 10.1923C6.87526 6.99588 2.73402 7.55876 2.73402 6.35258ZM10.0716 1.24639L7.43814 1.80928L7.41805 10.4737C7.41805 12.082 8.62423 13.2479 10.2325 13.2479C11.117 13.2479 11.7804 13.0871 12.1222 12.8861V10.6948C11.7804 10.8356 10.0716 11.3381 10.0716 9.7299V5.89021H12.1222V3.57835H10.0515L10.0716 1.24639ZM15.4794 4.40258L15.2984 3.59845H12.9665V13.067H15.6804V6.65413C16.3237 5.8299 17.4093 5.97062 17.7309 6.09124V3.59845C17.3892 3.47784 16.1227 3.2366 15.4794 4.40258ZM18.3943 3.59845H21.1082V13.067H18.3943V3.59845ZM18.3943 2.77423L21.1082 2.19124V0L18.3943 0.58299V2.77423ZM26.7773 3.41753C25.7119 3.41753 25.0283 3.9201 24.6464 4.26186L24.5057 3.59845H22.1134V16.2232L24.8273 15.6402L24.8474 12.5845C25.2294 12.866 25.8124 13.268 26.7572 13.268C28.6871 13.268 30.4562 11.7 30.4562 8.28247C30.4562 5.12629 28.667 3.41753 26.7773 3.41753ZM26.1139 10.8758C25.4706 10.8758 25.0887 10.6546 24.8273 10.3732L24.8072 6.35258C25.0887 6.03093 25.4706 5.8299 26.0938 5.8299C27.0789 5.8299 27.7624 6.93557 27.7624 8.34278C27.7825 9.79021 27.1191 10.8758 26.1139 10.8758ZM39 8.38299C39 5.60876 37.6531 3.41753 35.0799 3.41753C32.5067 3.41753 30.9387 5.60876 30.9387 8.34278C30.9387 11.5995 32.7881 13.2479 35.4216 13.2479C36.7082 13.2479 37.6933 12.9464 38.417 12.5443V10.3732C37.6732 10.7351 36.8289 10.9763 35.7634 10.9763C34.718 10.9763 33.7732 10.6144 33.6526 9.32783H38.9598C38.9799 9.20722 39 8.64433 39 8.38299ZM33.6526 7.35773C33.6526 6.13144 34.3964 5.62887 35.0799 5.62887C35.7433 5.62887 36.4469 6.13144 36.4469 7.35773H33.6526Z" fill="#6772E5"/>
</svg>
