<svg width="39" height="24" viewBox="0 0 39 24" fill="none" xmlns="http://www.w3.org/2000/svg">
<path d="M3.61852 0H35.36C37.375 0 39 1.62499 39 3.63998V15.7949C39 17.8099 37.375 19.4349 35.36 19.4349H23.9851L25.5451 23.2699L18.6768 19.4349H3.6402C1.62522 19.4349 0.000214175 17.8099 0.000214175 15.7949V3.63998C-0.0214524 1.64665 1.60353 0 3.61852 0Z" fill="#9B5C8F"/>
<path d="M2.23183 3.33659C2.4485 3.03326 2.79516 2.88158 3.22849 2.83825C4.03015 2.77325 4.48515 3.16326 4.61515 3.98659C5.11348 7.32324 5.65513 10.1399 6.21846 12.4365L9.6851 5.80657C10.0101 5.19991 10.4001 4.87492 10.8768 4.85325C11.5701 4.80992 12.0034 5.24324 12.1768 6.19657C12.5668 8.31989 13.0868 10.1182 13.6718 11.6349C14.0834 7.58323 14.7768 4.67991 15.7734 2.88159C16.0118 2.42659 16.3584 2.20992 16.8134 2.18826C17.1817 2.16659 17.5067 2.27492 17.8101 2.51325C18.1134 2.75159 18.2651 3.05492 18.3084 3.42325C18.3301 3.70492 18.2867 3.94325 18.1567 4.18158C17.5501 5.32991 17.0301 7.25823 16.6184 9.92321C16.2284 12.5232 16.0767 14.5382 16.1634 15.9899C16.1851 16.3799 16.1417 16.7265 15.9684 17.0298C15.7734 17.3765 15.4918 17.5715 15.1234 17.5932C14.7118 17.6148 14.2784 17.4415 13.8668 17.0082C12.3934 15.4915 11.2234 13.2382 10.3568 10.2266C9.31679 12.2632 8.55846 13.8015 8.0818 14.8199C7.15014 16.6182 6.34848 17.5498 5.69848 17.5932C5.26515 17.6148 4.8968 17.2682 4.59347 16.4882C3.7918 14.4082 2.90348 10.3782 1.97182 4.39825C1.90682 3.98658 1.9935 3.61826 2.23183 3.33659ZM36.2916 5.82825C35.7283 4.83158 34.8833 4.22492 33.7567 3.98659C33.4533 3.92159 33.1717 3.89992 32.89 3.89992C31.3733 3.89992 30.1383 4.70158 29.1633 6.28324C28.34 7.62656 27.9284 9.12156 27.9284 10.7682C27.9284 12.0032 28.1884 13.0432 28.6867 13.9099C29.25 14.9065 30.095 15.5132 31.2217 15.7515C31.525 15.8165 31.8067 15.8382 32.0667 15.8382C33.605 15.8382 34.84 15.0365 35.7933 13.4549C36.6166 12.0899 37.0283 10.5949 37.0283 8.94822C37.0716 7.71323 36.79 6.69491 36.2916 5.82825ZM34.2983 10.2266C34.0817 11.2882 33.6916 12.0682 33.085 12.5882C32.63 12.9999 32.1967 13.1732 31.8067 13.1082C31.4167 13.0215 31.1133 12.6965 30.875 12.0682C30.68 11.5699 30.5933 11.0932 30.5933 10.6165C30.5933 10.2265 30.6367 9.81488 30.7017 9.44655C30.8317 8.79655 31.1133 8.16823 31.5467 7.56157C32.0667 6.78157 32.63 6.45657 33.1933 6.5649C33.5833 6.65157 33.8866 6.97656 34.125 7.60489C34.32 8.10322 34.4067 8.60156 34.4067 9.05655C34.4067 9.46822 34.3633 9.85822 34.2983 10.2266ZM26.3683 5.82825C25.805 4.83158 24.9384 4.22492 23.8334 3.98659C23.53 3.92159 23.2484 3.89992 22.9884 3.89992C21.4717 3.89992 20.2367 4.70158 19.2617 6.28324C18.4384 7.62656 18.0267 9.12156 18.0267 10.7682C18.0267 12.0032 18.2867 13.0432 18.7851 13.9099C19.3484 14.9065 20.1934 15.5132 21.3201 15.7515C21.6234 15.8165 21.9051 15.8382 22.1867 15.8382C23.725 15.8382 24.96 15.0365 25.9134 13.4549C26.7367 12.0899 27.1484 10.5949 27.1484 8.94822C27.1267 7.71323 26.8667 6.69491 26.3683 5.82825ZM24.3534 10.2266C24.1367 11.2882 23.725 12.0682 23.1401 12.5882C22.6851 12.9999 22.2517 13.1732 21.8617 13.1082C21.4717 13.0215 21.1684 12.6965 20.93 12.0682C20.735 11.5699 20.6484 11.0932 20.6484 10.6165C20.6484 10.2265 20.6917 9.81488 20.7567 9.44655C20.9084 8.79655 21.1684 8.16823 21.6017 7.56157C22.1217 6.78157 22.6851 6.45657 23.2484 6.5649C23.6384 6.65157 23.9417 6.97656 24.18 7.60489C24.375 8.10322 24.4617 8.60156 24.4617 9.05655C24.4834 9.46822 24.44 9.85822 24.3534 10.2266Z" fill="white"/>
</svg>
