<svg width="39" height="11" viewBox="0 0 39 11" fill="none" xmlns="http://www.w3.org/2000/svg">
<path d="M4.67598 0H1.64138C1.42991 0 1.26073 0.148034 1.22901 0.34893L0.00248513 8.09929C-0.0186619 8.25789 0.0976492 8.39536 0.256252 8.39536H1.70481C1.91628 8.39536 2.08546 8.24732 2.11718 8.03585L2.44496 5.9423C2.47668 5.7414 2.65643 5.58281 2.85733 5.58281H3.81951C5.8179 5.58281 6.97042 4.62061 7.27705 2.70681C7.41451 1.87151 7.28762 1.21595 6.88583 0.750715C6.45231 0.264335 5.69103 0 4.67598 0ZM5.02489 2.8337C4.85572 3.92277 4.03099 3.92276 3.2274 3.92276H2.77275L3.08995 1.89266C3.1111 1.76578 3.21682 1.68119 3.34371 1.68119H3.55518C4.105 1.68119 4.62311 1.68119 4.88745 1.98782C5.03548 2.17814 5.08833 2.45306 5.02489 2.8337Z" fill="#283B82"/>
<path d="M13.7479 2.80201H12.2993C12.1725 2.80201 12.0667 2.8866 12.0456 3.01348L11.9821 3.41528L11.8764 3.26725C11.5592 2.81259 10.8613 2.66455 10.1635 2.66455C8.55631 2.66455 7.18177 3.8805 6.91743 5.57226C6.77997 6.41814 6.98087 7.23231 7.45667 7.80328C7.90076 8.32138 8.53518 8.54342 9.28589 8.54342C10.5759 8.54342 11.2949 7.71869 11.2949 7.71869L11.2314 8.12048C11.2103 8.27909 11.3266 8.41653 11.4852 8.41653H12.7963C13.0078 8.41653 13.1769 8.2685 13.2087 8.05703L13.9911 3.09807C14.0228 2.93947 13.8959 2.80201 13.7479 2.80201ZM11.7178 5.61456C11.5803 6.43929 10.9142 6.99968 10.0789 6.99968C9.65597 6.99968 9.31761 6.86223 9.10614 6.60847C8.89467 6.3547 8.81008 5.99521 8.87352 5.59342C9.00041 4.76868 9.67711 4.19771 10.5018 4.19771C10.9142 4.19771 11.2526 4.33517 11.4746 4.58893C11.6966 4.85327 11.7812 5.21277 11.7178 5.61456Z" fill="#283B82"/>
<path d="M21.4879 2.802H20.0287C19.8913 2.802 19.7538 2.87601 19.6798 2.98175L17.6603 5.94232L16.8038 3.09806C16.7509 2.91832 16.5818 2.802 16.402 2.802H14.964C14.7843 2.802 14.668 2.97117 14.7208 3.14035L16.328 7.84555L14.816 9.97083C14.6997 10.14 14.816 10.3726 15.0275 10.3726H16.4866C16.6241 10.3726 16.7509 10.3092 16.8355 10.1929L21.6888 3.2038C21.8051 3.02405 21.6888 2.802 21.4879 2.802Z" fill="#283B82"/>
<path d="M26.32 0H23.2854C23.0739 0 22.9048 0.148034 22.8731 0.34893L21.6465 8.09929C21.6254 8.25789 21.7417 8.39536 21.9003 8.39536H23.4546C23.6026 8.39536 23.7189 8.28962 23.7506 8.15216L24.0996 5.95288C24.1313 5.75199 24.311 5.59338 24.5119 5.59338H25.4741C27.4725 5.59338 28.625 4.63118 28.9317 2.71738C29.0691 1.88208 28.9422 1.22652 28.5404 0.761286C28.0964 0.264332 27.3351 0 26.32 0ZM26.6689 2.8337C26.4998 3.92277 25.675 3.92276 24.8609 3.92276H24.4062L24.7234 1.89266C24.7446 1.76578 24.8503 1.68119 24.9772 1.68119H25.1886C25.7385 1.68119 26.2566 1.68119 26.5209 1.98782C26.6795 2.17814 26.7324 2.45306 26.6689 2.8337Z" fill="#469BDB"/>
<path d="M35.392 2.80201H33.9434C33.8165 2.80201 33.7108 2.8866 33.6896 3.01348L33.6262 3.41528L33.5204 3.26725C33.2032 2.81259 32.5054 2.66455 31.8075 2.66455C30.2004 2.66455 28.8258 3.8805 28.5615 5.57226C28.424 6.41814 28.6249 7.23231 29.1007 7.80328C29.5448 8.32138 30.1792 8.54342 30.9299 8.54342C32.2199 8.54342 32.9389 7.71869 32.9389 7.71869L32.8755 8.12048C32.8543 8.27909 32.9706 8.41653 33.1292 8.41653H34.4403C34.6518 8.41653 34.821 8.2685 34.8527 8.05703L35.6351 3.09807C35.6669 2.93947 35.5506 2.80201 35.392 2.80201ZM33.3618 5.61456C33.2244 6.43929 32.5583 6.99968 31.7229 6.99968C31.3 6.99968 30.9617 6.86223 30.7502 6.60847C30.5387 6.3547 30.4541 5.99521 30.5176 5.59342C30.6444 4.76868 31.3212 4.19771 32.1459 4.19771C32.5583 4.19771 32.8966 4.33517 33.1187 4.58893C33.3407 4.85327 33.4253 5.21276 33.3618 5.61456Z" fill="#469BDB"/>
<path d="M37.1049 0.21147L35.8572 8.10986C35.8361 8.26847 35.9524 8.40593 36.111 8.40593H37.3587C37.5701 8.40593 37.7393 8.25789 37.771 8.04642L38.9976 0.296063C39.0187 0.148034 38.9024 0 38.7438 0H37.3375C37.2318 0 37.126 0.0951614 37.1049 0.21147Z" fill="#469BDB"/>
</svg>
