<svg width="42" height="40" viewBox="0 0 42 40" fill="none" xmlns="http://www.w3.org/2000/svg">
<path d="M1.71436 1.71423H39.344V38.2857H1.71436V1.71423Z" fill="url(#paint0_radial)"/>
<path d="M1.71429 1.71428H39.3439V38.2857H1.71429V1.71428ZM0 40H41.0582V0H0V40ZM27.6825 16.4021C26.328 16.4021 25.8624 17.0794 25.8624 17.6508C25.8624 18.2646 26.1799 18.6878 27.9788 19.6402C30.6667 20.9312 31.5132 22.1799 31.5132 24.0212C31.5132 26.7513 29.418 28.2328 26.6032 28.2328C25.1217 28.2328 23.8307 27.9153 23.0899 27.4921C22.963 27.4497 22.963 27.3651 22.963 27.2169V24.6984C22.963 24.5291 23.0476 24.4868 23.1746 24.5714C24.254 25.2698 25.4815 25.5873 26.6032 25.5873C27.9577 25.5873 28.5291 25.0159 28.5291 24.254C28.5291 23.6402 28.127 23.09 26.4127 22.2011C23.9788 21.037 22.9841 19.8518 22.9841 17.9048C22.9841 15.7037 24.7196 13.8624 27.7037 13.8624C29.1852 13.8624 30.2011 14.0741 30.7725 14.3492C30.8995 14.4339 30.9418 14.5609 30.9418 14.6878V17.037C30.9418 17.164 30.8571 17.2698 30.6878 17.2063C29.9048 16.6984 28.7831 16.4021 27.6825 16.4021ZM12.9735 18.455C13.3757 18.4974 13.672 18.4974 14.3492 18.4974C16.3598 18.4974 18.2434 17.7989 18.2434 15.0899C18.2434 12.9101 16.8889 11.8307 14.6243 11.8307C13.9471 11.8307 13.291 11.873 12.9735 11.873V18.455ZM9.92592 9.37566C9.92592 9.24867 10.1587 9.16402 10.3069 9.16402C11.4074 9.12169 13.037 9.07937 14.7302 9.07937C19.4709 9.07937 21.3122 11.6825 21.3122 14.9841C21.3122 19.3227 18.1587 21.1852 14.3069 21.1852C13.6508 21.1852 13.4392 21.1429 12.9735 21.1429V27.7037C12.9735 27.8307 12.9312 27.9153 12.7619 27.9153H10.1376C10.0106 27.9153 9.92592 27.873 9.92592 27.7037V9.37566Z" fill="#31C5F0"/>
<defs>
<radialGradient id="paint0_radial" cx="0" cy="0" r="1" gradientUnits="userSpaceOnUse" gradientTransform="translate(14.1077 9.90993) scale(28.5985 27.6644)">
<stop stop-color="#34364E" stop-opacity="0.98"/>
<stop offset="1" stop-color="#0C0824"/>
</radialGradient>
</defs>
</svg>
