<svg width="41" height="40" viewBox="0 0 41 40" fill="none" xmlns="http://www.w3.org/2000/svg">
<path d="M0.428711 0H40.4287V40H0.428711V0Z" fill="url(#paint0_linear)"/>
<path d="M13.4393 29.1134L12.0991 31.4433C11.6042 32.2887 10.5114 32.598 9.66606 32.1031C8.8207 31.6083 8.51143 30.5155 9.00627 29.6702L9.99596 27.9382L10.0991 27.7732C10.264 27.5258 10.697 27.1135 11.5217 27.1959C11.5217 27.1959 13.5011 27.4021 13.6454 28.433C13.6454 28.433 13.6661 28.7835 13.4393 29.1134ZM32.5733 23.1547H28.3671C28.0784 23.1341 27.9547 23.031 27.9135 22.9691L23.4186 15.1753L23.1506 14.7835C22.7176 14.1031 21.996 15.8351 21.996 15.8351C21.1506 17.7733 22.1197 19.9588 22.4496 20.6186L28.697 31.464C29.1918 32.3093 30.2846 32.6186 31.13 32.1238C31.9753 31.6289 32.2846 30.5361 31.7898 29.6908L30.2228 26.9691C30.2022 26.9073 30.1403 26.7217 30.4702 26.7217H32.5939C33.5836 26.7217 34.3877 25.9176 34.3877 24.9279C34.3671 23.9588 33.563 23.1547 32.5733 23.1547ZM24.4083 25.5671C24.4083 25.5671 24.6351 26.7011 23.7692 26.7011H22.9032H8.22277C7.23307 26.7011 6.42896 25.897 6.42896 24.9073C6.42896 23.9176 7.23307 23.1134 8.22277 23.1134H12.2228C12.8619 23.0722 13.0269 22.7011 13.0269 22.7011L18.2434 13.6495C18.3465 13.4846 18.264 13.3196 18.2434 13.2784L16.5114 10.2887C16.0166 9.44335 16.3052 8.35056 17.1712 7.85571C18.0372 7.36087 19.1094 7.64954 19.6042 8.51552L20.4083 9.89695L21.2125 8.51552C21.7073 7.67016 22.8001 7.36087 23.6454 7.85571C24.4908 8.35056 24.8001 9.44335 24.3052 10.2887L17.0475 22.866C17.0063 22.9485 17.0063 23.0722 17.2331 23.0928H21.5836V23.1341C21.5424 23.1959 24.0578 23.2372 24.4083 25.5671Z" fill="white"/>
<defs>
<linearGradient id="paint0_linear" x1="20.4287" y1="40" x2="20.4287" y2="0" gradientUnits="userSpaceOnUse">
<stop stop-color="#1D76F2"/>
<stop offset="1" stop-color="#1AC2FB"/>
</linearGradient>
</defs>
</svg>
