<svg width="41" height="35" viewBox="0 0 41 35" fill="none" xmlns="http://www.w3.org/2000/svg">
<path fill-rule="evenodd" clip-rule="evenodd" d="M17.5944 33.6695C17.568 33.6695 17.5417 33.6695 17.5153 33.6432L15.0367 33.0103C15.0104 33.0103 14.984 32.984 14.984 32.984L13.3492 32.1666V32.483C13.3492 32.6148 13.2965 32.7203 13.191 32.7466L12.3472 33.1685C12.2945 33.1949 12.2681 33.1949 12.2154 33.1949C12.1626 33.1949 12.1363 33.1685 12.0835 33.1685L3.80406 29.0024C3.69858 28.9497 3.64582 28.8442 3.64582 28.7387V26.4711L0.903594 25.1C0.798123 25.0472 0.745361 24.9418 0.745361 24.8363V21.5139C0.745361 21.3821 0.798123 21.2766 0.903594 21.2503L2.14287 20.6174C2.19561 20.5911 2.22197 20.5911 2.27471 20.5911C2.32744 20.5911 2.35381 20.6174 2.40655 20.6174L4.30502 21.5667L4.62145 21.4085C4.67419 21.3821 4.70056 21.3821 4.75329 21.3821C4.80603 21.3821 4.8324 21.4085 4.88513 21.4085L5.04333 21.4876L6.9682 19.009L6.70452 18.8772C6.59905 18.8244 6.54629 18.719 6.54629 18.6135V13.92L5.67617 13.4718C5.57069 13.419 5.51797 13.3136 5.51797 13.2081V6.53702C5.51797 6.40518 5.57069 6.29971 5.67617 6.27334L17.278 0.446043C17.3307 0.419675 17.3571 0.419678 17.4099 0.419678C17.4626 0.419678 17.489 0.446043 17.5417 0.446043L24.0282 3.71566L24.2919 3.58382C24.3446 3.55745 24.371 3.55745 24.4237 3.55745C24.4764 3.55745 24.5028 3.58382 24.5555 3.58382L29.5391 6.08876C29.6445 6.1415 29.6973 6.24697 29.6973 6.35244V10.334L36.1574 13.5772C36.2629 13.63 36.3156 13.7354 36.3156 13.8409V15.7394L37.3967 16.2931C37.423 16.3195 37.4494 16.3195 37.4494 16.3459L39.928 18.4289C40.0071 18.4816 40.0334 18.5608 40.0334 18.6662V19.299C40.0334 19.4309 39.9807 19.5364 39.8752 19.5627L38.2141 20.4065C38.1613 20.4329 38.135 20.4329 38.0822 20.4329C38.0295 20.4329 37.9504 20.4065 37.8977 20.3801L36.3156 19.1672V19.7737L37.3967 20.4856L39.8489 21.303C39.9807 21.3557 40.0598 21.4612 40.0598 21.5931V22.2259C40.0598 22.3577 40.0071 22.4632 39.9016 22.4896L38.2404 23.3333C38.1877 23.3597 38.1613 23.3597 38.1086 23.3597C38.0822 23.3597 38.0559 23.3597 38.0295 23.3333L35.5509 22.7005L35.4982 22.6741L33.0987 21.4612L32.9669 21.5139C32.9405 21.5403 32.9141 21.5667 32.8878 21.5931C32.835 21.6194 32.7823 21.6458 32.7296 21.6458C32.6768 21.6458 32.6505 21.6194 32.5977 21.6194L29.7236 20.1692V20.512C29.7236 20.6438 29.6709 20.7493 29.5654 20.7757L17.9636 26.6029C17.9108 26.6293 17.8845 26.6293 17.8317 26.6293C17.779 26.6293 17.7526 26.6029 17.6999 26.6029L16.0387 25.7592C15.9332 25.7064 15.8805 25.601 15.8805 25.4955V25.1263C15.8541 25.1527 15.8014 25.1527 15.775 25.1527C15.7223 25.1527 15.6959 25.1263 15.6432 25.1263L13.982 24.2826C13.8766 24.2298 13.8238 24.1244 13.8238 24.0189V23.7816L13.1646 23.4388C13.0592 23.3861 13.0064 23.2806 13.0064 23.1751V21.9358L9.28855 20.1165L8.02291 21.7249L14.0611 24.7572C14.1666 24.8099 14.2194 24.9154 14.2194 25.0209V25.2846L16.9616 26.6557C16.9879 26.682 17.0143 26.682 17.0143 26.7084L19.4929 28.7915C19.572 28.8442 19.5984 28.9233 19.5984 29.0288V29.6616C19.5984 29.7935 19.5456 29.8989 19.4402 29.9253L17.779 30.7691C17.7263 30.7954 17.6999 30.7954 17.6472 30.7954C17.5944 30.7954 17.5153 30.7691 17.4626 30.7427L15.0104 28.8969L14.2194 28.6069V29.0815L16.9352 30.8482L19.3874 31.6656C19.5193 31.7183 19.5984 31.8238 19.5984 31.9556V32.5884C19.5984 32.7203 19.5456 32.8257 19.4402 32.8521L17.779 33.6959C17.6735 33.6695 17.6472 33.6695 17.5944 33.6695Z" fill="url(#paint0_linear)"/>
<path fill-rule="evenodd" clip-rule="evenodd" d="M17.3832 0.683365L18.6225 1.31619L19.0444 1.52714L20.7056 2.37091L24.0279 4.03208L24.4234 3.82114L29.407 6.32608V10.4922L36.0253 13.8145V15.8976L37.2646 16.5304L39.7432 18.6135V19.2463L38.082 20.0901L36.0253 18.508V19.8792L37.2646 20.6966L39.7432 21.5403V22.1731L38.082 23.0169L35.6034 22.3841L33.0721 21.1184L32.703 21.303V21.3558L29.3806 19.6946V20.5383L17.7788 26.3656L16.1176 25.5219V24.6781L15.6957 24.4672V24.889L14.0345 24.0453V23.6234L13.1908 23.2015V21.7513L9.10374 19.7473L7.44255 21.8304L13.8236 25.0209V25.4691L16.724 26.9194L19.2026 29.0024V29.6353L17.5414 30.479L15.0629 28.6069L13.8236 28.1587V29.2134L16.724 31.0855L19.2026 31.9292V32.5621L17.5414 33.4058L15.0629 32.773L13.0326 31.7447V32.5357L12.1888 32.9576L3.90925 28.7915V26.3393L1.00879 24.889V21.5667L2.2481 20.9339L4.27841 21.9622L4.72668 21.7249L5.09581 21.9095L7.41619 18.9299L6.80972 18.6135V13.7354L5.7814 13.2081V6.53702L17.3832 0.683365ZM17.3832 0.0769043C17.2778 0.0769043 17.1987 0.103271 17.1196 0.129639L5.54408 5.9833C5.33314 6.08877 5.20128 6.29971 5.20128 6.53702V13.2081C5.20128 13.4454 5.33314 13.6563 5.54408 13.7618L6.22964 14.1046V18.6135C6.22964 18.8244 6.3351 19.0354 6.51968 19.1408L4.96397 21.1448C4.91123 21.1184 4.83215 21.1184 4.75304 21.1184C4.67394 21.1184 4.56847 21.1448 4.48936 21.1712L4.30477 21.2503L2.53814 20.3538C2.45903 20.301 2.35356 20.301 2.27446 20.301C2.19536 20.301 2.08988 20.3274 2.01078 20.3538L0.771506 20.9866C0.586931 21.0921 0.428711 21.303 0.428711 21.5403V24.8627C0.428711 25.1 0.560563 25.3109 0.771506 25.4164L3.35553 26.7084V28.7915C3.35553 29.0288 3.48739 29.2397 3.69833 29.3452L11.9778 33.5113C12.0569 33.5641 12.1624 33.5641 12.2415 33.5641C12.3206 33.5641 12.4261 33.5377 12.5052 33.5113L13.349 33.0894C13.4281 33.0631 13.4808 33.0103 13.5335 32.9312C13.5863 32.8785 13.6126 32.7994 13.639 32.7203L14.8519 33.3267C14.9046 33.3531 14.931 33.3531 14.9837 33.3795L17.4623 34.0123C17.5151 34.0387 17.5678 34.0387 17.6205 34.0387C17.6996 34.0387 17.8051 34.0123 17.8842 33.9859L19.5454 33.1422C19.7563 33.0367 19.8882 32.8258 19.8882 32.5884V31.9556C19.8882 31.6919 19.73 31.4546 19.4663 31.3755L18.1215 30.9273L19.5454 30.2153C19.7563 30.1099 19.8882 29.8989 19.8882 29.6616V29.0288C19.8882 28.8442 19.8091 28.686 19.6772 28.5542L17.6996 26.9194C17.7524 26.9457 17.7787 26.9457 17.8315 26.9457C17.9106 26.9457 18.0161 26.9194 18.0952 26.893L29.697 21.0657C29.8552 20.9866 29.9607 20.8284 30.0134 20.6702L32.4656 21.9095C32.5711 21.9622 32.6502 21.9622 32.7293 21.9622C32.8348 21.9622 32.9666 21.9358 33.0457 21.8831C33.0721 21.8567 33.0985 21.8567 33.1248 21.8304L35.3661 22.9642C35.4188 22.9906 35.4452 22.9906 35.4979 23.0169L37.9765 23.6497C38.0293 23.6761 38.0556 23.6761 38.1347 23.6761C38.2138 23.6761 38.3193 23.6497 38.3984 23.6234L40.0596 22.7796C40.2705 22.6741 40.4024 22.4632 40.4024 22.2259V21.5931C40.4024 21.3294 40.2441 21.0921 40.0068 21.013L38.6621 20.5647L40.0859 19.8528C40.2969 19.7473 40.4287 19.5364 40.4287 19.2991V18.6662C40.4287 18.4817 40.3496 18.3235 40.2178 18.1916L37.6865 16.1349C37.6601 16.1085 37.6074 16.0822 37.581 16.0558L36.6581 15.6076V13.7882C36.6581 13.5509 36.5263 13.3399 36.3153 13.2345L30.0398 10.0703V6.29972C30.0398 6.06241 29.908 5.85146 29.697 5.74599L24.7398 3.24104C24.6607 3.18831 24.5553 3.18831 24.4762 3.18831C24.3971 3.18831 24.2916 3.21468 24.2125 3.24104L24.0807 3.32015L21.0483 1.79081L19.3872 0.947044L18.9653 0.7361L17.726 0.103274C17.5678 0.103274 17.4887 0.0769043 17.3832 0.0769043ZM8.44454 21.5931L9.31466 20.4856L12.637 22.1204V23.1751C12.637 23.4124 12.7689 23.6234 12.9798 23.7289L13.4808 23.9662V24.0189C13.4808 24.0716 13.4808 24.098 13.5072 24.1507L8.44454 21.5931ZM14.4828 25.0736V24.9945C14.4828 24.9418 14.4828 24.9154 14.4564 24.8627L15.4584 25.3637C15.4847 25.39 15.5111 25.39 15.5375 25.39V25.4428C15.5375 25.4955 15.5639 25.5746 15.5639 25.601L14.4828 25.0736Z" fill="#333333"/>
<path fill-rule="evenodd" clip-rule="evenodd" d="M29.407 20.4855L17.8052 26.3128V19.6417L29.407 13.7881V20.4855Z" fill="url(#paint1_linear)" stroke="#333333" stroke-width="0.2"/>
<path fill-rule="evenodd" clip-rule="evenodd" d="M26.9021 10.0438V16.7149L35.1816 20.881V14.2099L26.9021 10.0438Z" fill="url(#paint2_linear)" stroke="#333333" stroke-width="0.2"/>
<path fill-rule="evenodd" clip-rule="evenodd" d="M35.1816 14.2363V20.9074L36.0254 20.4855V13.7881L35.1816 14.2363Z" fill="url(#paint3_linear)" stroke="#333333" stroke-width="0.2"/>
<path fill-rule="evenodd" clip-rule="evenodd" d="M26.9021 10.0438L27.7195 9.62195L36.0254 13.7881L35.1816 14.21L26.9021 10.0438Z" fill="url(#paint4_linear)" stroke="#333333" stroke-width="0.2"/>
<path fill-rule="evenodd" clip-rule="evenodd" d="M27.746 11.2832L26.0848 12.1006L32.7295 15.423L34.3907 14.6056L27.746 11.2832ZM23.6063 10.8877L22.3669 11.5205L27.3505 14.0255L28.5898 13.3926L23.6063 10.8877ZM22.3669 11.5205V14.8429L27.3505 17.3478V14.0255L22.3669 11.5205Z" fill="#676767" stroke="#333333" stroke-width="0.2"/>
<path fill-rule="evenodd" clip-rule="evenodd" d="M26.0847 12.1534V17.9807L32.7294 21.3031V15.4758L26.0847 12.1534Z" fill="#676767" stroke="#333333" stroke-width="0.2"/>
<path fill-rule="evenodd" clip-rule="evenodd" d="M34.364 14.6057L32.7029 15.4231V21.2768L34.364 20.433V14.6057Z" fill="#676767" stroke="#333333" stroke-width="0.2"/>
<path fill-rule="evenodd" clip-rule="evenodd" d="M32.7029 19.6417V20.881L35.6033 22.3312V21.4875L32.7029 19.6417Z" fill="url(#paint5_linear)" stroke="#333333" stroke-width="0.2"/>
<path fill-rule="evenodd" clip-rule="evenodd" d="M35.6035 21.5139V22.3577L38.0821 22.9905V22.3577L35.6035 21.5139Z" fill="url(#paint6_linear)" stroke="#333333" stroke-width="0.2"/>
<path fill-rule="evenodd" clip-rule="evenodd" d="M38.082 22.3577V22.9905L39.7432 22.1468V21.5139L38.082 22.3577Z" fill="url(#paint7_linear)" stroke="#333333" stroke-width="0.2"/>
<path fill-rule="evenodd" clip-rule="evenodd" d="M37.2647 20.6702L35.6035 21.5139L38.0821 22.3577L39.7433 21.5139L37.2647 20.6702Z" fill="url(#paint8_linear)" stroke="#333333" stroke-width="0.2"/>
<path fill-rule="evenodd" clip-rule="evenodd" d="M34.364 18.7981L32.7029 19.6419L35.6033 21.514L37.2645 20.6702L34.364 18.7981Z" fill="url(#paint9_linear)" stroke="#333333" stroke-width="0.2"/>
<path fill-rule="evenodd" clip-rule="evenodd" d="M32.7029 15.8712V17.1105L35.6033 18.1652V17.3214L32.7029 15.8712Z" fill="url(#paint10_linear)" stroke="#333333" stroke-width="0.2"/>
<path fill-rule="evenodd" clip-rule="evenodd" d="M35.6035 17.3478V18.1916L38.0821 20.0637V19.4308L35.6035 17.3478Z" fill="url(#paint11_linear)" stroke="#333333" stroke-width="0.2"/>
<path fill-rule="evenodd" clip-rule="evenodd" d="M38.082 19.4308V20.0636L39.7432 19.2199V18.587L38.082 19.4308Z" fill="url(#paint12_linear)" stroke="#333333" stroke-width="0.2"/>
<path fill-rule="evenodd" clip-rule="evenodd" d="M34.364 15.0538L32.7029 15.8712L35.6033 17.3215L37.2645 16.4777L34.364 15.0538Z" fill="url(#paint13_linear)" stroke="#333333" stroke-width="0.2"/>
<path fill-rule="evenodd" clip-rule="evenodd" d="M37.2647 16.5042L35.6035 17.3479L38.0821 19.431L39.7433 18.5872L37.2647 16.5042Z" fill="url(#paint14_linear)" stroke="#333333" stroke-width="0.2"/>
<path fill-rule="evenodd" clip-rule="evenodd" d="M6.83643 6.72156V18.5871L14.5095 22.3577V10.4658L6.83643 6.72156Z" fill="#676767" stroke="#333333" stroke-width="0.2"/>
<path fill-rule="evenodd" clip-rule="evenodd" d="M11.5824 9.43746V15.4757L13.2435 16.504V23.1751L17.3833 25.2318V12.3379L11.5824 9.43746ZM18.649 1.31616L7.25806 7.14346L17.1987 12.1533L28.5896 6.32605L18.649 1.31616Z" fill="#676767" stroke="#333333" stroke-width="0.2"/>
<path fill-rule="evenodd" clip-rule="evenodd" d="M5.80786 6.51064L17.3833 0.68335L24.028 4.00569L12.4262 9.83299L5.80786 6.51064Z" fill="url(#paint15_linear)" stroke="#333333" stroke-width="0.2"/>
<path fill-rule="evenodd" clip-rule="evenodd" d="M17.3835 2.37099L19.0447 1.52722L20.7059 2.37099L19.0447 3.1884L17.3835 2.37099Z" fill="url(#paint16_linear)" stroke="#333333" stroke-width="0.2"/>
<path fill-rule="evenodd" clip-rule="evenodd" d="M17.3833 13.1817L28.9851 7.35437V19.8527L17.3833 25.7064V13.1817ZM9.10376 6.5106L10.7649 7.35437L19.0444 3.18825L17.3833 2.37085L9.10376 6.5106Z" fill="#676767" stroke="#333333" stroke-width="0.2"/>
<path fill-rule="evenodd" clip-rule="evenodd" d="M17.3835 4.00578L18.6492 3.37295L19.0447 3.16201L17.3835 2.3446V4.00578Z" fill="#676767" stroke="#333333" stroke-width="0.2"/>
<path fill-rule="evenodd" clip-rule="evenodd" d="M16.5659 4.42752L16.9878 4.21658L17.8316 3.7947L16.5923 3.16187V4.42752H16.5659Z" fill="#333333" stroke="#333333" stroke-width="0.2"/>
<path fill-rule="evenodd" clip-rule="evenodd" d="M16.5659 3.18848L17.8052 3.82131L18.2007 3.63673L16.9614 3.00391L16.5659 3.18848Z" fill="#676767" stroke="#333333" stroke-width="0.2"/>
<path fill-rule="evenodd" clip-rule="evenodd" d="M15.7222 4.8494L16.1177 4.63845L16.9614 4.21657L15.7222 3.58374V4.8494Z" fill="#333333" stroke="#333333" stroke-width="0.2"/>
<path fill-rule="evenodd" clip-rule="evenodd" d="M15.7222 3.61023L16.9614 4.24306L17.3834 4.03212L16.144 3.39929L15.7222 3.61023Z" fill="#676767" stroke="#333333" stroke-width="0.2"/>
<path fill-rule="evenodd" clip-rule="evenodd" d="M14.9048 5.27139L15.3267 5.06045L16.1441 4.63857L14.9048 4.00574V5.27139Z" fill="#333333" stroke="#333333" stroke-width="0.2"/>
<path fill-rule="evenodd" clip-rule="evenodd" d="M14.9048 4.00586L16.1441 4.63869L16.5659 4.42775L15.3267 3.79492L14.9048 4.00586Z" fill="#676767" stroke="#333333" stroke-width="0.2"/>
<path fill-rule="evenodd" clip-rule="evenodd" d="M14.0608 5.69327L14.4827 5.48233L15.3265 5.06044L14.0608 4.42761V5.69327Z" fill="#333333" stroke="#333333" stroke-width="0.2"/>
<path fill-rule="evenodd" clip-rule="evenodd" d="M14.0608 4.4275L15.3265 5.06032L15.7483 4.84938L14.5091 4.21655L14.0608 4.4275Z" fill="#676767" stroke="#333333" stroke-width="0.2"/>
<path fill-rule="evenodd" clip-rule="evenodd" d="M13.2437 6.08866L13.6655 5.87771L14.483 5.45582L13.2437 4.823V6.08866Z" fill="#333333" stroke="#333333" stroke-width="0.2"/>
<path fill-rule="evenodd" clip-rule="evenodd" d="M13.2437 4.84937L14.483 5.4822L14.9048 5.27125L13.6655 4.63843L13.2437 4.84937Z" fill="#676767" stroke="#333333" stroke-width="0.2"/>
<path fill-rule="evenodd" clip-rule="evenodd" d="M12.4263 6.51077L12.8481 6.3262L13.6919 5.90431L12.4526 5.27148V6.51077H12.4263Z" fill="#333333" stroke="#333333" stroke-width="0.2"/>
<path fill-rule="evenodd" clip-rule="evenodd" d="M12.4263 5.27137L13.6655 5.9042L14.0611 5.69326L12.8218 5.06042L12.4263 5.27137Z" fill="#676767" stroke="#333333" stroke-width="0.2"/>
<path fill-rule="evenodd" clip-rule="evenodd" d="M11.5825 6.93253L12.0044 6.72158L12.8218 6.2997L11.5825 5.66687V6.93253Z" fill="#333333" stroke="#333333" stroke-width="0.2"/>
<path fill-rule="evenodd" clip-rule="evenodd" d="M11.5825 5.69324L12.8218 6.32607L13.2437 6.11513L12.0044 5.4823L11.5825 5.69324Z" fill="#676767" stroke="#333333" stroke-width="0.2"/>
<path fill-rule="evenodd" clip-rule="evenodd" d="M10.7651 7.3544L11.187 7.14346L12.0308 6.72157L10.7651 6.08875V7.3544Z" fill="#333333" stroke="#333333" stroke-width="0.2"/>
<path fill-rule="evenodd" clip-rule="evenodd" d="M10.7651 6.08887L12.0308 6.7217L12.4263 6.51076L11.187 5.87793L10.7651 6.08887Z" fill="#676767" stroke="#333333" stroke-width="0.2"/>
<path fill-rule="evenodd" clip-rule="evenodd" d="M9.94751 7.75003L10.3694 7.53909L11.2132 7.1172L9.97387 6.48438V7.75003H9.94751Z" fill="#333333" stroke="#333333" stroke-width="0.2"/>
<path fill-rule="evenodd" clip-rule="evenodd" d="M9.94751 6.51087L11.1868 7.1437L11.5823 6.93275L10.343 6.29993L9.94751 6.51087Z" fill="#676767" stroke="#333333" stroke-width="0.2"/>
<path fill-rule="evenodd" clip-rule="evenodd" d="M19.0447 16.1084V18.6134L21.9451 17.1631V14.6582L19.0447 16.1084Z" fill="#36A3C9" stroke="#010101" stroke-width="0.2"/>
<path fill-rule="evenodd" clip-rule="evenodd" d="M21.1014 16.715V15.0538L19.0447 16.0822V17.7434L21.1014 16.715Z" fill="#50C8EC"/>
<path fill-rule="evenodd" clip-rule="evenodd" d="M21.9449 17.1369V14.632L19.8618 15.6867L19.0181 16.1086" fill="url(#paint17_linear)"/>
<path d="M19.0447 16.1084V18.6134L21.9451 17.1631V14.6582L19.0447 16.1084Z" stroke="#333333" stroke-width="0.2"/>
<path fill-rule="evenodd" clip-rule="evenodd" d="M24.4233 13.3926V15.8976L27.3238 14.4473V11.9424L24.4233 13.3926Z" fill="#36A3C9" stroke="#010101" stroke-width="0.2"/>
<path fill-rule="evenodd" clip-rule="evenodd" d="M26.5064 13.9992V12.338L24.4233 13.3664V15.0275L26.5064 13.9992Z" fill="#50C8EC"/>
<path fill-rule="evenodd" clip-rule="evenodd" d="M27.3238 14.4473V11.9424L25.2671 12.9971L24.4233 13.419" fill="url(#paint18_linear)"/>
<path d="M24.4233 13.3926V15.8976L27.3238 14.4473V11.9424L24.4233 13.3926Z" stroke="#333333" stroke-width="0.2"/>
<path fill-rule="evenodd" clip-rule="evenodd" d="M12.4262 14.843V9.83309L5.80786 6.51074V13.1818L14.0874 17.3479V24.019L15.7485 24.8628V18.1917L17.4097 19.0355V17.3743L12.4262 14.843Z" fill="url(#paint19_linear)" stroke="#333333" stroke-width="0.2"/>
<path fill-rule="evenodd" clip-rule="evenodd" d="M29.407 20.4855L17.8052 26.3128V19.6417L29.407 13.7881V20.4855Z" fill="url(#paint20_linear)" stroke="#333333" stroke-width="0.2"/>
<path fill-rule="evenodd" clip-rule="evenodd" d="M16.144 18.7981V25.4692L17.8052 26.3129V19.6419L16.144 18.7981Z" fill="url(#paint21_linear)" stroke="#333333" stroke-width="0.2"/>
<path fill-rule="evenodd" clip-rule="evenodd" d="M29.407 11.3097L17.8052 17.137V12.1535L29.407 6.32617V11.3097Z" fill="url(#paint22_linear)" stroke="#333333" stroke-width="0.2"/>
<path fill-rule="evenodd" clip-rule="evenodd" d="M12.8215 9.64858L24.4234 3.79492L29.4069 6.29987L17.8051 12.1272L12.8215 9.64858Z" fill="url(#paint23_linear)" stroke="#333333" stroke-width="0.2"/>
<path fill-rule="evenodd" clip-rule="evenodd" d="M20.2839 9.2266L23.6063 7.56543L25.2674 8.4092L21.9451 10.0704L20.2839 9.2266Z" fill="url(#paint24_linear)" stroke="#333333" stroke-width="0.2"/>
<path fill-rule="evenodd" clip-rule="evenodd" d="M12.8215 9.64844V14.632L17.8051 17.1369V12.1534L12.8215 9.64844Z" fill="url(#paint25_linear)" stroke="#333333" stroke-width="0.2"/>
<path fill-rule="evenodd" clip-rule="evenodd" d="M17.8054 19.6419L29.4073 13.7882L28.9854 13.5773L17.3835 19.4046L17.8054 19.6419Z" fill="url(#paint26_linear)" stroke="#333333" stroke-width="0.2"/>
<path fill-rule="evenodd" clip-rule="evenodd" d="M8.89282 16.3197V18.4028L10.554 19.2202V17.1371L8.89282 16.3197Z" fill="#333333" stroke="#333333" stroke-width="0.2"/>
<path fill-rule="evenodd" clip-rule="evenodd" d="M3.93579 23.3862V24.8364L4.75319 25.2583V23.808L3.93579 23.3862ZM9.3148 16.5042L3.93579 23.3862L4.75319 23.808L10.1322 16.926L9.3148 16.5042ZM4.75319 23.808V25.2583L10.5541 17.9808V17.137L10.1322 16.926L4.75319 23.808Z" fill="#676767" stroke="#333333" stroke-width="0.2"/>
<path fill-rule="evenodd" clip-rule="evenodd" d="M7.2582 21.6723L5.59702 22.516L12.2153 25.8384L13.8765 24.9946L7.2582 21.6723ZM2.27468 20.8812L1.0354 21.5141L6.83632 24.4409L8.0756 23.8081L2.27468 20.8812ZM1.0354 21.5141V24.8364L6.83632 27.7632V24.4409L1.0354 21.5141Z" fill="#676767" stroke="#333333" stroke-width="0.2"/>
<path fill-rule="evenodd" clip-rule="evenodd" d="M5.59692 22.5424V28.396L12.2152 31.7184V25.8647L5.59692 22.5424ZM13.8764 25.0209L12.2152 25.8647V31.692L13.8764 30.8482V25.0209Z" fill="#676767" stroke="#333333" stroke-width="0.2"/>
<path fill-rule="evenodd" clip-rule="evenodd" d="M12.2151 30.0571V31.2964L15.1156 32.7466V31.9029L12.2151 30.0571Z" fill="url(#paint27_linear)" stroke="#333333" stroke-width="0.2"/>
<path fill-rule="evenodd" clip-rule="evenodd" d="M15.1157 31.9294V32.7732L17.5943 33.406V32.7732L15.1157 31.9294Z" fill="url(#paint28_linear)" stroke="#333333" stroke-width="0.2"/>
<path fill-rule="evenodd" clip-rule="evenodd" d="M17.5942 32.7468V33.3797L19.2554 32.5623V31.9294L17.5942 32.7468Z" fill="url(#paint29_linear)" stroke="#333333" stroke-width="0.2"/>
<path fill-rule="evenodd" clip-rule="evenodd" d="M16.7505 31.0856L15.0894 31.903L17.5679 32.7467L19.2291 31.903L16.7505 31.0856Z" fill="url(#paint30_linear)" stroke="#333333" stroke-width="0.2"/>
<path fill-rule="evenodd" clip-rule="evenodd" d="M13.8763 29.2133L12.2151 30.0307L15.1156 31.9028L16.7767 31.0854L13.8763 29.2133Z" fill="url(#paint31_linear)" stroke="#333333" stroke-width="0.2"/>
<path fill-rule="evenodd" clip-rule="evenodd" d="M12.2151 26.3129V27.5522L15.1156 28.5805V27.7631L12.2151 26.3129Z" fill="url(#paint32_linear)" stroke="#333333" stroke-width="0.2"/>
<path fill-rule="evenodd" clip-rule="evenodd" d="M15.1157 27.7632V28.5806L17.5943 30.4791V29.8462L15.1157 27.7632Z" fill="url(#paint33_linear)" stroke="#333333" stroke-width="0.2"/>
<path fill-rule="evenodd" clip-rule="evenodd" d="M17.5942 29.8462V30.479L19.2554 29.6353V29.0024L17.5942 29.8462Z" fill="url(#paint34_linear)" stroke="#333333" stroke-width="0.2"/>
<path fill-rule="evenodd" clip-rule="evenodd" d="M13.8763 25.469L12.2151 26.3128L15.1156 27.763L16.7767 26.9192L13.8763 25.469Z" fill="url(#paint35_linear)" stroke="#333333" stroke-width="0.2"/>
<path fill-rule="evenodd" clip-rule="evenodd" d="M16.7505 26.9193L15.0894 27.7631L17.5679 29.8461L19.2291 29.0024L16.7505 26.9193Z" fill="url(#paint36_linear)" stroke="#333333" stroke-width="0.2"/>
<path fill-rule="evenodd" clip-rule="evenodd" d="M3.93579 22.0941V28.7652L12.2153 32.9313V26.2602L3.93579 22.0941Z" fill="url(#paint37_linear)" stroke="#333333" stroke-width="0.2"/>
<path fill-rule="evenodd" clip-rule="evenodd" d="M12.2151 26.2603V32.9313L13.0589 32.5094V25.8384L12.2151 26.2603Z" fill="url(#paint38_linear)" stroke="#333333" stroke-width="0.2"/>
<path fill-rule="evenodd" clip-rule="evenodd" d="M3.93579 22.0941L4.75319 21.6722L13.0327 25.8384L12.1889 26.2602L3.93579 22.0941Z" fill="url(#paint39_linear)" stroke="#333333" stroke-width="0.2"/>
<path fill-rule="evenodd" clip-rule="evenodd" d="M7.44287 7.35452L9.10406 6.51074L10.7652 7.35452L9.10406 8.19829L7.44287 7.35452Z" fill="url(#paint40_linear)" stroke="#333333" stroke-width="0.2"/>
<defs>
<linearGradient id="paint0_linear" x1="8.10023" y1="4.49235" x2="28.5406" y2="33.1769" gradientUnits="userSpaceOnUse">
<stop stop-color="white"/>
<stop offset="1" stop-color="#F3F3F3"/>
</linearGradient>
<linearGradient id="paint1_linear" x1="20.2793" y1="17.1754" x2="26.9214" y2="22.9238" gradientUnits="userSpaceOnUse">
<stop stop-color="white"/>
<stop offset="1" stop-color="#CCCCCC"/>
</linearGradient>
<linearGradient id="paint2_linear" x1="25.4212" y1="12.1577" x2="36.6803" y2="18.7873" gradientUnits="userSpaceOnUse">
<stop stop-color="#E6E6E6"/>
<stop offset="1" stop-color="#B4B4B4"/>
</linearGradient>
<linearGradient id="paint3_linear" x1="33.8207" y1="17.3186" x2="37.3883" y2="17.3679" gradientUnits="userSpaceOnUse">
<stop stop-color="#E6E6E6"/>
<stop offset="1" stop-color="#B4B4B4"/>
</linearGradient>
<linearGradient id="paint4_linear" x1="30.5152" y1="8.13617" x2="32.4189" y2="15.724" gradientUnits="userSpaceOnUse">
<stop stop-color="white"/>
<stop offset="1" stop-color="#F3F3F3"/>
</linearGradient>
<linearGradient id="paint5_linear" x1="32.7595" y1="19.6001" x2="35.362" y2="22.5789" gradientUnits="userSpaceOnUse">
<stop stop-color="#E6E6E6"/>
<stop offset="1" stop-color="#B4B4B4"/>
</linearGradient>
<linearGradient id="paint6_linear" x1="36.4107" y1="21.0968" x2="37.2281" y2="23.4712" gradientUnits="userSpaceOnUse">
<stop stop-color="#E6E6E6"/>
<stop offset="1" stop-color="#B4B4B4"/>
</linearGradient>
<linearGradient id="paint7_linear" x1="38.6042" y1="21.8375" x2="39.2238" y2="22.6465" gradientUnits="userSpaceOnUse">
<stop stop-color="#E6E6E6"/>
<stop offset="1" stop-color="#B4B4B4"/>
</linearGradient>
<linearGradient id="paint8_linear" x1="35.6009" y1="21.5116" x2="39.7459" y2="21.5116" gradientUnits="userSpaceOnUse">
<stop stop-color="white"/>
<stop offset="1" stop-color="#F3F3F3"/>
</linearGradient>
<linearGradient id="paint9_linear" x1="32.7055" y1="20.1578" x2="37.2566" y2="20.1578" gradientUnits="userSpaceOnUse">
<stop stop-color="white"/>
<stop offset="1" stop-color="#F3F3F3"/>
</linearGradient>
<linearGradient id="paint10_linear" x1="33.1296" y1="15.6029" x2="35.036" y2="18.6344" gradientUnits="userSpaceOnUse">
<stop stop-color="#E6E6E6"/>
<stop offset="1" stop-color="#B4B4B4"/>
</linearGradient>
<linearGradient id="paint11_linear" x1="35.3911" y1="17.58" x2="38.1861" y2="19.9381" gradientUnits="userSpaceOnUse">
<stop stop-color="#E6E6E6"/>
<stop offset="1" stop-color="#B4B4B4"/>
</linearGradient>
<linearGradient id="paint12_linear" x1="38.6068" y1="18.9197" x2="39.2264" y2="19.729" gradientUnits="userSpaceOnUse">
<stop stop-color="#E6E6E6"/>
<stop offset="1" stop-color="#B4B4B4"/>
</linearGradient>
<linearGradient id="paint13_linear" x1="32.7055" y1="16.2024" x2="37.2566" y2="16.2024" gradientUnits="userSpaceOnUse">
<stop stop-color="white"/>
<stop offset="1" stop-color="#F3F3F3"/>
</linearGradient>
<linearGradient id="paint14_linear" x1="35.6009" y1="17.967" x2="39.7459" y2="17.967" gradientUnits="userSpaceOnUse">
<stop stop-color="white"/>
<stop offset="1" stop-color="#F3F3F3"/>
</linearGradient>
<linearGradient id="paint15_linear" x1="13.7398" y1="0.614714" x2="16.0759" y2="9.91729" gradientUnits="userSpaceOnUse">
<stop stop-color="white"/>
<stop offset="1" stop-color="#F3F3F3"/>
</linearGradient>
<linearGradient id="paint16_linear" x1="18.8005" y1="1.3745" x2="19.2831" y2="3.3302" gradientUnits="userSpaceOnUse">
<stop stop-color="white"/>
<stop offset="1" stop-color="#F3F3F3"/>
</linearGradient>
<linearGradient id="paint17_linear" x1="21.7018" y1="14.4994" x2="20.6477" y2="16.9816" gradientUnits="userSpaceOnUse">
<stop stop-color="#FDFEFF" stop-opacity="0"/>
<stop offset="0.9104" stop-color="#FDFEFF" stop-opacity="0.91"/>
<stop offset="1" stop-color="#FDFEFF"/>
</linearGradient>
<linearGradient id="paint18_linear" x1="27.0829" y1="11.8098" x2="26.0222" y2="14.2851" gradientUnits="userSpaceOnUse">
<stop stop-color="#FDFEFF" stop-opacity="0"/>
<stop offset="0.9104" stop-color="#FDFEFF" stop-opacity="0.91"/>
<stop offset="1" stop-color="#FDFEFF"/>
</linearGradient>
<linearGradient id="paint19_linear" x1="2.57218" y1="12.3868" x2="19.5926" y2="19.2232" gradientUnits="userSpaceOnUse">
<stop stop-color="#E6E6E6"/>
<stop offset="1" stop-color="#B4B4B4"/>
</linearGradient>
<linearGradient id="paint20_linear" x1="20.2793" y1="17.1754" x2="26.9214" y2="22.9238" gradientUnits="userSpaceOnUse">
<stop stop-color="white"/>
<stop offset="1" stop-color="#CCCCCC"/>
</linearGradient>
<linearGradient id="paint21_linear" x1="14.5889" y1="22.4357" x2="19.3588" y2="22.6717" gradientUnits="userSpaceOnUse">
<stop stop-color="#E6E6E6"/>
<stop offset="1" stop-color="#B4B4B4"/>
</linearGradient>
<linearGradient id="paint22_linear" x1="21.1101" y1="8.83953" x2="26.091" y2="14.6012" gradientUnits="userSpaceOnUse">
<stop stop-color="white"/>
<stop offset="1" stop-color="#CCCCCC"/>
</linearGradient>
<linearGradient id="paint23_linear" x1="20.1294" y1="4.05741" x2="22.099" y2="11.8923" gradientUnits="userSpaceOnUse">
<stop stop-color="white"/>
<stop offset="1" stop-color="#F3F3F3"/>
</linearGradient>
<linearGradient id="paint24_linear" x1="22.4654" y1="7.58354" x2="23.0772" y2="10.0308" gradientUnits="userSpaceOnUse">
<stop stop-color="white"/>
<stop offset="1" stop-color="#F3F3F3"/>
</linearGradient>
<linearGradient id="paint25_linear" x1="11.5654" y1="11.7209" x2="19.0698" y2="15.0567" gradientUnits="userSpaceOnUse">
<stop stop-color="#E6E6E6"/>
<stop offset="1" stop-color="#B4B4B4"/>
</linearGradient>
<linearGradient id="paint26_linear" x1="22.9165" y1="14.7199" x2="23.8683" y2="18.514" gradientUnits="userSpaceOnUse">
<stop stop-color="white"/>
<stop offset="1" stop-color="#F3F3F3"/>
</linearGradient>
<linearGradient id="paint27_linear" x1="12.2744" y1="30.0028" x2="14.8611" y2="32.9939" gradientUnits="userSpaceOnUse">
<stop stop-color="#E6E6E6"/>
<stop offset="1" stop-color="#B4B4B4"/>
</linearGradient>
<linearGradient id="paint28_linear" x1="15.9217" y1="31.507" x2="16.7417" y2="33.8811" gradientUnits="userSpaceOnUse">
<stop stop-color="#E6E6E6"/>
<stop offset="1" stop-color="#B4B4B4"/>
</linearGradient>
<linearGradient id="paint29_linear" x1="18.1164" y1="32.2464" x2="18.736" y2="33.0553" gradientUnits="userSpaceOnUse">
<stop stop-color="#E6E6E6"/>
<stop offset="1" stop-color="#B4B4B4"/>
</linearGradient>
<linearGradient id="paint30_linear" x1="15.1131" y1="31.9247" x2="19.2555" y2="31.9247" gradientUnits="userSpaceOnUse">
<stop stop-color="white"/>
<stop offset="1" stop-color="#F3F3F3"/>
</linearGradient>
<linearGradient id="paint31_linear" x1="12.2124" y1="30.5705" x2="16.7661" y2="30.5705" gradientUnits="userSpaceOnUse">
<stop stop-color="white"/>
<stop offset="1" stop-color="#F3F3F3"/>
</linearGradient>
<linearGradient id="paint32_linear" x1="12.6502" y1="26.0129" x2="14.5196" y2="29.057" gradientUnits="userSpaceOnUse">
<stop stop-color="#E6E6E6"/>
<stop offset="1" stop-color="#B4B4B4"/>
</linearGradient>
<linearGradient id="paint33_linear" x1="14.8998" y1="27.9912" x2="17.6948" y2="30.349" gradientUnits="userSpaceOnUse">
<stop stop-color="#E6E6E6"/>
<stop offset="1" stop-color="#B4B4B4"/>
</linearGradient>
<linearGradient id="paint34_linear" x1="18.1116" y1="29.3343" x2="18.7312" y2="30.1434" gradientUnits="userSpaceOnUse">
<stop stop-color="#E6E6E6"/>
<stop offset="1" stop-color="#B4B4B4"/>
</linearGradient>
<linearGradient id="paint35_linear" x1="12.2124" y1="26.6153" x2="16.7661" y2="26.6153" gradientUnits="userSpaceOnUse">
<stop stop-color="white"/>
<stop offset="1" stop-color="#F3F3F3"/>
</linearGradient>
<linearGradient id="paint36_linear" x1="15.1131" y1="28.3874" x2="19.2555" y2="28.3874" gradientUnits="userSpaceOnUse">
<stop stop-color="white"/>
<stop offset="1" stop-color="#F3F3F3"/>
</linearGradient>
<linearGradient id="paint37_linear" x1="2.4385" y1="24.2077" x2="13.7028" y2="30.8171" gradientUnits="userSpaceOnUse">
<stop stop-color="#E6E6E6"/>
<stop offset="1" stop-color="#B4B4B4"/>
</linearGradient>
<linearGradient id="paint38_linear" x1="10.8408" y1="29.3593" x2="14.4111" y2="29.4089" gradientUnits="userSpaceOnUse">
<stop stop-color="#E6E6E6"/>
<stop offset="1" stop-color="#B4B4B4"/>
</linearGradient>
<linearGradient id="paint39_linear" x1="7.53408" y1="20.175" x2="9.44311" y2="27.765" gradientUnits="userSpaceOnUse">
<stop stop-color="white"/>
<stop offset="1" stop-color="#F3F3F3"/>
</linearGradient>
<linearGradient id="paint40_linear" x1="8.85276" y1="6.3706" x2="9.35111" y2="8.33107" gradientUnits="userSpaceOnUse">
<stop stop-color="white"/>
<stop offset="1" stop-color="#F3F3F3"/>
</linearGradient>
</defs>
</svg>
