<svg width="41" height="36" viewBox="0 0 41 36" fill="none" xmlns="http://www.w3.org/2000/svg">
<path d="M40.4285 17.8407C40.4285 15.188 37.1126 12.6865 32.0166 11.1275C33.1917 5.95004 32.6681 1.81973 30.3645 0.50501C29.8293 0.190874 29.2126 0.0512695 28.5378 0.0512695V1.86628C28.9101 1.86628 29.2126 1.93607 29.4686 2.07569C30.5739 2.7156 31.0626 5.13561 30.6786 8.24207C30.5855 9.00995 30.4459 9.81276 30.2598 10.6388C28.6658 10.2432 26.9206 9.94073 25.0823 9.75457C23.977 8.24207 22.8368 6.88081 21.685 5.68244C24.3377 3.21589 26.8392 1.86628 28.5378 1.86628V0.0512695C26.2923 0.0512695 23.3604 1.64522 20.3936 4.41427C17.4267 1.65685 14.4948 0.0745332 12.2493 0.0745332V1.88954C13.9363 1.88954 16.4378 3.23916 19.1021 5.68244C17.9619 6.88081 16.8217 8.24207 15.7397 9.75457C13.9014 9.95236 12.1562 10.2549 10.5506 10.6505C10.3645 9.83603 10.2249 9.04486 10.1318 8.28861C9.74784 5.17052 10.2249 2.75051 11.3185 2.1106C11.5628 1.95935 11.877 1.90117 12.2609 1.90117V0.0745332C11.5745 0.0745332 10.9578 0.225787 10.4227 0.528288C8.13062 1.84301 7.61869 5.96168 8.80543 11.1275C3.73271 12.6865 0.428467 15.1996 0.428467 17.829C0.428467 20.4817 3.74435 22.9948 8.84033 24.5423C7.66523 29.7313 8.18879 33.85 10.4925 35.1647C11.0277 35.4788 11.6443 35.6185 12.3307 35.6185C14.5762 35.6185 17.5082 34.0245 20.475 31.2438C23.4418 34.0012 26.3738 35.5835 28.6193 35.5835C29.3057 35.5835 29.9224 35.4323 30.4576 35.1298C32.7496 33.8151 33.2615 29.6964 32.0748 24.5306C37.1359 22.9948 40.4285 20.4817 40.4285 17.8407ZM29.8176 12.4073C29.5151 13.4544 29.1428 14.5364 28.7124 15.6301C28.3749 14.9785 28.0259 14.327 27.642 13.6755C27.2697 13.0239 26.8624 12.384 26.4669 11.7674C27.6303 11.9303 28.7473 12.1397 29.8176 12.4073ZM26.0829 21.0867C25.443 22.192 24.7915 23.2275 24.1167 24.2048C22.9067 24.3096 21.6734 24.3677 20.4285 24.3677C19.1952 24.3677 17.9619 24.3096 16.7635 24.2165C16.0887 23.2508 15.4256 22.2153 14.7857 21.1217C14.169 20.0513 13.5989 18.9692 13.087 17.8756C13.5873 16.7819 14.169 15.6883 14.774 14.6295C15.4139 13.5242 16.0655 12.4887 16.7403 11.5114C17.9503 11.4067 19.1836 11.3485 20.4285 11.3485C21.6617 11.3485 22.895 11.4067 24.0934 11.4998C24.7682 12.4655 25.4314 13.5009 26.0713 14.5946C26.6879 15.665 27.258 16.747 27.7699 17.8407C27.258 18.9227 26.6996 20.0164 26.0829 21.0867ZM28.7124 20.028C29.1545 21.1217 29.5268 22.2153 29.8409 23.2741C28.7705 23.53 27.642 23.7511 26.4785 23.9256C26.8741 23.2973 27.2813 22.6574 27.6536 21.9943C28.0259 21.3427 28.3866 20.6795 28.7124 20.028ZM20.4517 28.7191C19.6955 27.9396 18.9392 27.067 18.183 26.1129C18.916 26.1478 19.6722 26.1711 20.4285 26.1711C21.1964 26.1711 21.9526 26.1595 22.6972 26.1129C21.9526 27.067 21.1964 27.9396 20.4517 28.7191ZM14.3784 23.914C13.215 23.7395 12.098 23.53 11.0393 23.2741C11.3418 22.2269 11.7141 21.1333 12.1446 20.0513C12.482 20.7028 12.831 21.3543 13.215 22.0059C13.5873 22.6691 13.9829 23.2973 14.3784 23.914ZM20.4052 6.96225C21.1614 7.74178 21.9177 8.61438 22.674 9.56842C21.941 9.53352 21.1847 9.51025 20.4285 9.51025C19.6606 9.51025 18.9043 9.52188 18.1597 9.56842C18.9043 8.61438 19.6606 7.74178 20.4052 6.96225ZM14.3784 11.7557C13.9829 12.384 13.5756 13.0239 13.2033 13.6871C12.831 14.3386 12.482 14.9902 12.1446 15.6417C11.7025 14.5481 11.3302 13.4544 11.016 12.3957C12.0864 12.1513 13.2033 11.9303 14.3784 11.7557ZM6.99042 21.9593C4.10502 20.7261 2.23184 19.1089 2.23184 17.829C2.23184 16.5492 4.09339 14.932 6.99042 13.7104C7.6885 13.4079 8.45639 13.1403 9.24755 12.8843C9.71293 14.4783 10.3296 16.142 11.0858 17.8523C10.3412 19.551 9.73621 21.2031 9.27082 22.7971C8.46803 22.5411 7.70014 22.2618 6.99042 21.9593ZM11.3767 33.6056C10.2714 32.9657 9.78274 30.5457 10.1667 27.4393C10.2598 26.6714 10.3994 25.8686 10.5855 25.0425C12.1795 25.4381 13.9247 25.729 15.763 25.9268C16.8683 27.4393 18.0085 28.8005 19.1603 29.9989C16.5076 32.4655 14.0061 33.8151 12.3075 33.8151C11.9352 33.8267 11.621 33.7453 11.3767 33.6056ZM30.7252 27.4044C31.1091 30.5225 30.6321 32.9425 29.5384 33.5824C29.2941 33.7336 28.98 33.7918 28.596 33.7918C26.909 33.7918 24.4075 32.4422 21.7432 29.9989C22.8834 28.8005 24.0236 27.4393 25.1056 25.9268C26.9439 25.729 28.6891 25.4265 30.2947 25.0309C30.4808 25.857 30.6321 26.6365 30.7252 27.4044ZM33.8665 21.9593C33.1684 22.2618 32.4005 22.5294 31.6094 22.7854C31.144 21.1915 30.5274 19.5277 29.7711 17.8174C30.5157 16.1187 31.1207 14.4666 31.5861 12.8727C32.3889 13.1286 33.1568 13.4079 33.8781 13.7104C36.7635 14.9436 38.6367 16.5492 38.6367 17.829C38.6135 19.1205 36.7519 20.7377 33.8665 21.9593Z" fill="#61DAFB"/>
</svg>
