<svg width="41" height="40" viewBox="0 0 41 40" fill="none" xmlns="http://www.w3.org/2000/svg">
<path d="M37.5009 2.92783C39.3772 4.80412 40.3669 7.17526 40.4287 10V30C40.3669 32.8247 39.3772 35.1959 37.5009 37.0722C35.6246 38.9485 33.2535 39.9381 30.4287 40H10.4287C7.60397 39.9381 5.23284 38.9485 3.35655 37.0722C1.48026 35.1959 0.490567 32.8247 0.428711 30V10C0.490567 7.17526 1.48026 4.80412 3.35655 2.92783C5.23284 1.05155 7.60397 0.0618557 10.4287 0H30.4287C33.2535 0.0618557 35.6246 1.05155 37.5009 2.92783ZM34.738 19.0309C34.1194 18.4124 33.7895 17.6289 33.7483 16.6804V10.0206C33.7277 9.07216 33.3978 8.28866 32.7792 7.6701C32.1607 7.05155 31.3565 6.72165 30.4287 6.70103H27.0885V23.3608L13.7483 6.70103H10.4081C9.45964 6.72165 8.67613 7.05155 8.05758 7.6701C7.43902 8.28866 7.10912 9.09278 7.0885 10.0206V16.701C7.06788 17.6495 6.73799 18.433 6.09881 19.0515C5.48026 19.6701 4.67613 20 3.7483 20.0206C4.69675 20.0412 5.48026 20.3711 6.09881 20.9897C6.71737 21.6082 7.04727 22.3918 7.0885 23.3402V30C7.10912 30.9485 7.43902 31.732 8.05758 32.3505C8.67613 32.9691 9.48026 33.299 10.4081 33.3196H13.7483V16.6598L27.0885 33.3196H30.4287C31.3772 33.299 32.1607 32.9691 32.7792 32.3505C33.3978 31.732 33.7277 30.9278 33.7483 30V23.3402C33.7689 22.3918 34.0988 21.6082 34.738 20.9897C35.3566 20.3711 36.1607 20.0412 37.0885 20.0206C36.1607 19.9794 35.3772 19.6495 34.738 19.0309Z" fill="#3C5AFD"/>
</svg>
