<svg width="30" height="27" viewBox="0 0 30 27" fill="none" xmlns="http://www.w3.org/2000/svg">
<path d="M22.7188 11.5859V11.4126V5.05518C22.7188 4.28091 22.2389 3.58866 21.5097 3.31458L15.6505 1.11738L15.6489 1.11679C15.2322 0.957299 14.7681 0.956911 14.3443 1.11715L14.3436 1.11738L8.48445 3.31458C7.75528 3.58866 7.27539 4.28091 7.27539 5.05518V11.4126V11.5859L7.11312 11.6467L1.45375 13.7675C1.45362 13.7675 1.45349 13.7676 1.45336 13.7676C0.730085 14.0416 0.25 14.7339 0.25 15.5083V21.9595C0.25 22.6618 0.647819 23.3076 1.27782 23.6226L7.13719 26.5523L7.13808 26.5527C7.65901 26.8158 8.27849 26.8158 8.79942 26.5527L8.80022 26.5523L14.8881 23.5054L15 23.4494L15.1119 23.5054L21.1998 26.5523L21.2006 26.5527C21.7215 26.8158 22.341 26.8158 22.8619 26.5527L22.8628 26.5523L28.7222 23.6226C29.3522 23.3076 29.75 22.6618 29.75 21.9595V15.5083C29.75 14.7341 29.2702 14.0419 28.5412 13.7678L22.7188 11.5859ZM22.7188 11.5859L22.881 11.6467L28.5409 13.7677L22.7188 11.5859ZM21.0644 11.6935L21.2266 11.6327V11.4595V7.16455V6.78307L20.8768 6.93533L15.8963 9.1033L15.7461 9.16868V9.33252V13.3286V13.6895L16.0839 13.5627L21.0644 11.6935ZM8.93576 4.73902L8.77344 4.79981V4.97314V5.0083V5.17664L8.92942 5.23995L14.906 7.66573L15 7.70389L15.094 7.66573L21.0706 5.23995L21.2266 5.17664V5.0083V4.97314V4.79981L21.0642 4.73902L15.0877 2.50074L15 2.46791L14.9123 2.50074L8.93576 4.73902ZM14.0571 22.2534L14.1953 22.1843V22.0298V17.6118V17.2229L13.8415 17.3844L8.86103 19.6578L8.71484 19.7246V19.8853V24.52V24.9245L9.07665 24.7436L14.0571 22.2534ZM14.0393 15.6989L14.1953 15.6356V15.4673V15.4321V15.2588L14.033 15.198L8.05643 12.9597L7.96875 12.9269L7.88107 12.9597L1.90451 15.198L1.74219 15.2588V15.4321V15.4673V15.6356L1.89817 15.6989L7.87473 18.1247L7.96875 18.1629L8.06277 18.1247L14.0393 15.6989ZM28.1196 22.2534L28.2578 22.1843V22.0298V17.6118V17.2229L27.904 17.3844L22.9235 19.6578L22.7773 19.7246V19.8853V24.52V24.9245L23.1391 24.7436L28.1196 22.2534ZM28.1018 15.6989L28.2578 15.6356V15.4673V15.4321V15.2588L28.0955 15.198L22.1189 12.9597L22.0312 12.9269L21.9436 12.9597L15.967 15.198L15.8047 15.2588V15.4321V15.4673V15.6356L15.9607 15.6989L21.9372 18.1247L22.0312 18.1629L22.1253 18.1247L28.1018 15.6989Z" stroke="#FFD600" stroke-width="0.5"/>
</svg>
