<svg width="40" height="40" viewBox="0 0 40 40" fill="none" xmlns="http://www.w3.org/2000/svg">
<path d="M37.0502 19.5659C37.0502 17.8515 36.7864 16.185 36.3069 14.6265L28.8977 33.8687C33.7652 30.9674 37.0502 25.6443 37.0502 19.5659Z" fill="white"/>
<path d="M15.2063 35.2954C16.8608 35.8469 18.6231 36.1466 20.4575 36.1466C22.3757 36.1466 24.222 35.8229 25.9364 35.2235L20.8771 22.0956L15.2063 35.2954Z" fill="white"/>
<path d="M4.54811 14.8783C4.10452 16.3649 3.86475 17.9355 3.86475 19.566C3.86475 25.7882 7.29359 31.1952 12.3529 34.0366L4.59608 14.9742L4.54811 14.8783Z" fill="white"/>
<path d="M13.0003 13.7992L12.293 13.7632C10.7344 13.7393 10.9143 15.3458 10.9143 15.3458L16.4292 29.181L20.1337 20.3212L18.0597 15.0461C17.2324 13.6554 15.2063 13.6673 15.2063 13.6673V12.936H26.8116L26.7996 13.7513L25.5887 13.8232C24.0901 13.8232 24.3898 15.2499 24.3898 15.2499L29.4252 28.6895L30.8638 24.9609C33.4175 19.1583 31.8469 14.8662 31.8469 14.8662C29.2813 9.59111 32.5183 8.8358 32.5183 8.8358C32.7221 8.79984 32.914 8.78785 33.1058 8.77586C30.0606 5.20316 25.5288 2.93726 20.4694 2.93726C13.6238 2.93726 7.74917 7.08541 5.20752 12.996L12.9764 12.912L13.0003 13.7992Z" fill="white"/>
<path d="M39.1002 19.506C39.1002 29.7925 30.7319 38.1607 20.4574 38.1607C10.1709 38.1607 1.80265 29.7925 1.80265 19.506C1.80265 9.21948 10.1709 0.863197 20.4574 0.863197C30.7319 0.863197 39.1002 9.21948 39.1002 19.506ZM20.4454 0C9.69137 0 0.939453 8.75191 0.939453 19.506C0.939453 30.26 9.69137 39.012 20.4454 39.012C31.1995 39.012 39.9394 30.26 39.9394 19.506C39.9514 8.75191 31.1995 0 20.4454 0Z" fill="white"/>
</svg>
