<svg width="30" height="30" viewBox="0 0 30 30" fill="none" xmlns="http://www.w3.org/2000/svg">
<path d="M6.68037 18.6804L6.61828 18.7425L6.60865 18.8297L6.18677 22.6534L6.18664 22.6546C6.11654 23.3206 6.67709 23.8902 7.35173 23.8201L7.35331 23.8199L11.177 23.398L11.2642 23.3884L11.3263 23.3263L20.4134 14.2393C20.6671 13.9856 20.6618 13.5756 20.4171 13.3203L20.4171 13.3203L20.4134 13.3165L16.6969 9.60001L16.6969 9.59997L16.6932 9.59644C16.4338 9.34744 16.0236 9.3371 15.7674 9.59331L6.68037 18.6804ZM23.2804 8.73712L23.2795 8.73617L21.2638 6.72054C20.5374 5.99416 19.361 5.99261 18.6398 6.72093C18.6396 6.72112 18.6394 6.72131 18.6392 6.72149L17.0933 8.26742C16.8396 8.52109 16.8449 8.93107 17.0896 9.18637L17.0896 9.18641L17.0933 9.19017L20.8098 12.9067C21.0635 13.1604 21.4735 13.1551 21.7288 12.9104L21.7288 12.9104L21.7326 12.9067L23.2795 11.3598C24.0004 10.6389 23.999 9.46347 23.2804 8.73712ZM26.7857 29.75H3.21429C1.5778 29.75 0.25 28.4222 0.25 26.7857V3.21429C0.25 1.5778 1.5778 0.25 3.21429 0.25H26.7857C28.4222 0.25 29.75 1.5778 29.75 3.21429V26.7857C29.75 28.4222 28.4222 29.75 26.7857 29.75Z" stroke="#FFD600" stroke-width="0.5"/>
</svg>
