<svg width="41" height="40" viewBox="0 0 41 40" fill="none" xmlns="http://www.w3.org/2000/svg">
<path d="M37.0271 0H4.28487C2.28487 0 0.656006 1.62886 0.656006 3.62886V36.3711C0.656006 38.3711 2.28487 40 4.28487 40H37.0271C39.0271 40 40.656 38.3711 40.656 36.3711V3.62886C40.656 1.62886 39.0271 0 37.0271 0Z" fill="#DC395F"/>
<path d="M14.0167 12.5774C15.3569 12.5774 16.4703 11.5259 16.4703 10.1651C16.4703 8.80423 15.3569 7.75269 14.0167 7.75269C12.6971 7.75269 11.5837 8.80423 11.5837 10.1651C11.5837 11.5465 12.6971 12.5774 14.0167 12.5774ZM8.96514 25.4846C8.82081 26.1032 8.75896 26.763 8.75896 27.2991C8.75896 29.4228 9.91357 30.8249 12.3466 30.8249C14.3672 30.8249 16.0167 29.629 17.1919 27.6702L16.4703 30.5774H20.4909L22.8002 21.3609C23.3775 19.031 24.4909 17.8146 26.1816 17.8146C27.5218 17.8146 28.3466 18.6393 28.3466 20.0001C28.3466 20.3919 28.3053 20.8249 28.161 21.2991L26.9651 25.5465C26.7796 26.1651 26.7177 26.763 26.7177 27.3403C26.7177 29.3609 27.9136 30.8249 30.3878 30.8249C32.5115 30.8249 34.2022 29.464 35.1301 26.1857L33.5425 25.5671C32.7589 27.7527 32.0785 28.1444 31.5218 28.1444C30.9857 28.1444 30.6971 27.7939 30.6971 27.0723C30.6971 26.7424 30.7796 26.3919 30.8827 25.9589L32.0373 21.8352C32.3259 20.8661 32.429 20.0001 32.429 19.2166C32.429 16.1238 30.5528 14.5156 28.2847 14.5156C26.161 14.5156 24.0167 16.4331 22.9239 18.4331L23.7074 14.8249H17.5631L16.6971 18.0001H19.5631L17.7899 25.0929C16.4084 28.1857 13.8517 28.2269 13.5218 28.1651C13.0064 28.0413 12.6558 27.8558 12.6558 27.1548C12.6558 26.763 12.7177 26.1857 12.9033 25.5053L15.6043 14.8042H8.77957L7.91357 17.9795H10.7589L8.96514 25.4846Z" fill="white"/>
</svg>
