<svg width="27" height="40" viewBox="0 0 27 40" fill="none" xmlns="http://www.w3.org/2000/svg">
<path d="M6.7179 40C10.388 40 13.3571 37.0103 13.3571 33.3402V26.6804H6.7179C3.04779 26.6804 0.0787193 29.6701 0.0787193 33.3402C0.0581007 37.0103 3.04779 40 6.7179 40Z" fill="#0ACF83"/>
<path d="M0.0581055 19.9999C0.0581055 16.3298 3.02718 13.3401 6.69728 13.3401H13.3365V26.6803H6.69728C3.0478 26.6597 0.0581055 23.67 0.0581055 19.9999Z" fill="#A259FF"/>
<path d="M0.0581055 6.65979C0.0581055 2.98969 3.02718 0 6.69728 0H13.3365V13.3402H6.69728C3.0478 13.3402 0.0581055 10.3505 0.0581055 6.65979Z" fill="#F24E1E"/>
<path d="M13.3572 0H19.9964C23.6665 0 26.6355 2.98969 26.6355 6.65979C26.6355 10.3299 23.6665 13.3196 19.9964 13.3196H13.3572V0Z" fill="#FF7262"/>
<path d="M26.656 19.9999C26.656 23.67 23.687 26.6597 20.0169 26.6597C16.3468 26.6597 13.3777 23.67 13.3777 19.9999C13.3777 16.3298 16.3468 13.3401 20.0169 13.3401C23.6663 13.3401 26.656 16.3298 26.656 19.9999Z" fill="#1ABCFE"/>
</svg>
