<svg width="40" height="40" viewBox="0 0 40 40" fill="none" xmlns="http://www.w3.org/2000/svg">
<path fill-rule="evenodd" clip-rule="evenodd" d="M27.4109 31.8926C27.4657 31.7829 27.5206 31.6914 27.5572 31.6C27.5938 31.5451 27.6303 31.5269 27.6852 31.5269C28.0509 31.5451 28.435 31.5451 28.8007 31.5451C29.1116 31.5451 29.4408 31.5451 29.7516 31.5451C30.1174 31.5451 30.4648 31.5269 30.8306 31.5269C31.306 31.5451 31.7632 31.6366 32.2021 31.8377C32.7141 32.0937 33.0982 32.4778 33.3725 32.9898C33.5371 33.319 33.6468 33.6482 33.6834 34.0139C33.7382 34.5442 33.7016 35.0563 33.5371 35.5683C33.3359 36.1901 32.9336 36.6655 32.385 37.0313C31.9644 37.3056 31.5072 37.4702 31.0134 37.5616C30.4831 37.653 29.9711 37.6347 29.4408 37.6347C28.8556 37.6347 28.2887 37.6164 27.7035 37.6164C27.5938 37.6164 27.5938 37.5982 27.612 37.5067L27.6303 37.4153C27.6852 37.2324 27.7218 37.2324 27.9046 37.1958C28.0326 37.1776 28.1607 37.1227 28.2704 37.0678C28.3252 37.0312 28.3618 36.9215 28.3801 36.8484C28.3984 36.7752 28.3984 36.7021 28.3984 36.629C28.3984 35.4952 28.4167 34.3796 28.4167 33.2458C28.4167 32.9533 28.4167 32.6789 28.3984 32.3863C28.3801 32.1852 28.2887 32.0572 28.0509 32.0023C27.8681 31.9657 27.6852 31.9292 27.5023 31.9109L27.4109 31.8926ZM32.6959 34.6174C32.6776 34.3979 32.6593 34.1602 32.6227 33.9407C32.5313 33.4104 32.2935 32.9532 31.8912 32.5875C31.2329 32.0023 30.4465 31.9109 29.6053 31.984C29.4225 32.0023 29.3676 32.0572 29.3676 32.2583C29.3676 32.5326 29.3493 32.807 29.3493 33.0813C29.3493 33.959 29.3493 34.8368 29.3493 35.7146C29.3493 35.9706 29.3493 36.2083 29.3676 36.4644C29.3676 36.7204 29.459 36.9398 29.7151 37.0313C30.0991 37.1776 30.5197 37.1958 30.9403 37.141C31.5986 37.0313 32.0558 36.6472 32.3667 36.0803C32.6044 35.6415 32.6776 35.1294 32.6959 34.6174ZM34.2868 37.5982C34.2868 37.4519 34.3417 37.3421 34.3965 37.2507C34.4148 37.2324 34.488 37.2324 34.5246 37.2141L34.9086 37.141C35.0366 37.1044 35.1097 37.0312 35.128 36.885C35.1463 36.7935 35.1463 36.7204 35.1463 36.629C35.1463 35.934 35.1646 35.2574 35.1646 34.5625C35.1646 33.8676 35.1646 33.191 35.1646 32.4961V32.3681C35.1463 32.1486 35.0366 32.0389 34.8171 32.0023L34.3417 31.9292C34.2868 31.9292 34.2685 31.8926 34.2868 31.8377C34.3234 31.7463 34.36 31.6549 34.4148 31.5817C34.4331 31.5451 34.5063 31.5451 34.5428 31.5451C34.7623 31.5451 35 31.5634 35.2195 31.5634L37.2128 31.5451C37.5968 31.5451 37.9625 31.6183 38.31 31.8012C38.694 32.0023 38.8952 32.3132 38.9683 32.7338C39.0232 33.1727 38.8952 33.5567 38.566 33.8493C38.438 33.9773 38.2551 34.0505 38.1088 34.1602L38.054 34.1968C38.2003 34.2516 38.3283 34.2882 38.4746 34.3431C38.8586 34.5077 39.1695 34.7454 39.3341 35.1477C39.4621 35.4586 39.4621 35.7877 39.3889 36.1169C39.2609 36.6289 38.9317 36.9764 38.4929 37.2324C38.0905 37.4701 37.6334 37.6165 37.1579 37.6347C36.719 37.653 36.2801 37.653 35.8412 37.653H35.5852C35.1646 37.6347 34.744 37.6347 34.3234 37.6164L34.2868 37.5982ZM36.1155 35.6049C36.1155 35.8243 36.1155 36.0437 36.1155 36.2449C36.1155 36.3912 36.1155 36.5375 36.1521 36.6655C36.1887 36.8667 36.2984 37.0496 36.5178 37.1044C36.8287 37.1776 37.1396 37.1958 37.4505 37.141C37.8345 37.0678 38.1454 36.885 38.31 36.5009C38.438 36.2266 38.4563 35.934 38.4197 35.6414C38.3648 35.2574 38.1637 34.9648 37.8162 34.7819C37.5968 34.6539 37.3408 34.5808 37.0848 34.5808C36.7922 34.5625 36.5178 34.5625 36.2253 34.5625C36.1521 34.5625 36.1338 34.5991 36.1338 34.6722C36.1155 34.9831 36.1155 35.294 36.1155 35.6049ZM36.719 34.1419C36.8836 34.1236 37.0482 34.1236 37.231 34.1053C37.5785 34.0688 37.8162 33.9042 37.926 33.575C37.9808 33.4104 37.9808 33.2458 37.9808 33.063C37.9808 32.6241 37.7248 32.2583 37.3042 32.0938C36.975 31.984 36.6459 31.9657 36.2984 31.984C36.1521 31.984 36.0972 32.0389 36.0972 32.1852L36.079 33.9956C36.079 34.0688 36.1155 34.1053 36.1704 34.1053L36.719 34.1419Z" fill="#94795D"/>
<path fill-rule="evenodd" clip-rule="evenodd" d="M2.19308 37.2508L2.17479 37.5617C1.95535 37.5617 1.75419 37.5617 1.53474 37.5617C1.15071 37.5617 0.766686 37.58 0.36437 37.58H0.327795C0.272934 37.58 0.163213 37.58 0.163213 37.5617C0.144926 37.4703 0.144926 37.3788 0.163213 37.2691C0.163213 37.2508 0.199786 37.2508 0.218073 37.2325L0.528954 37.1594C0.711825 37.1045 0.784972 37.0314 0.784972 36.8302C0.803259 36.6108 0.80326 36.3913 0.80326 36.1719C0.80326 35.6416 0.80326 35.0929 0.80326 34.5626C0.80326 34.4346 0.766686 34.3432 0.638676 34.2883C0.49238 34.2334 0.36437 34.1603 0.218073 34.1054C0.144925 34.0689 0.0717773 34.0689 0.0717773 33.9774C0.0717773 33.886 0.163212 33.8677 0.23636 33.8494C0.565527 33.7763 0.894695 33.7031 1.22386 33.6117C1.33358 33.5934 1.42502 33.5385 1.55303 33.502C1.55303 33.5751 1.57132 33.63 1.57132 33.7031L1.55303 34.014C1.55303 34.0506 1.57132 34.1054 1.5896 34.1237C1.60789 34.142 1.66275 34.1054 1.68104 34.0872C1.95534 33.8677 2.26622 33.6848 2.59539 33.5751C3.12572 33.4105 3.56461 33.5568 3.89377 34.014C4.0035 34.1786 4.0035 34.1786 4.16808 34.0689C4.4241 33.8677 4.71669 33.7031 5.02757 33.5934C5.70419 33.3374 6.36253 33.6666 6.60026 34.3432C6.6917 34.5992 6.72827 34.8552 6.70998 35.1112V36.8485C6.70998 36.9948 6.76484 37.0679 6.89285 37.1228C7.03915 37.1777 7.20373 37.2142 7.3866 37.2508L7.35003 37.5434C7.14887 37.5434 6.966 37.5434 6.78313 37.5434C6.34424 37.5434 5.90535 37.5434 5.46646 37.5617C5.39331 37.5617 5.37503 37.5434 5.35674 37.4703C5.33845 37.2325 5.33845 37.2325 5.5579 37.1777L5.63104 37.1594C5.85049 37.1045 5.90535 37.0314 5.92364 36.8302C5.92364 36.2085 5.94193 35.5867 5.90535 34.9832C5.86878 34.3432 5.37503 33.9957 4.75327 34.1603C4.55211 34.2152 4.36924 34.3066 4.20465 34.4346C4.14979 34.4712 4.13151 34.526 4.14979 34.5992C4.16808 34.8735 4.18637 35.1478 4.18637 35.4221C4.18637 35.8976 4.18637 36.373 4.18637 36.8485C4.18637 37.0497 4.25951 37.1228 4.44239 37.1594L4.73498 37.2142L4.78984 37.2325C4.78984 37.324 4.78984 37.4154 4.78984 37.5068C4.78984 37.5617 4.73498 37.5617 4.6984 37.5617C4.4241 37.5617 4.14979 37.5434 3.87549 37.5434C3.54632 37.5434 3.19887 37.5617 2.8697 37.5617H2.75998C2.75998 37.4703 2.75998 37.3788 2.75998 37.2874C2.75998 37.2691 2.79655 37.2325 2.83312 37.2325L3.16229 37.1594C3.30859 37.1228 3.36345 37.0497 3.38174 36.9034C3.41831 36.245 3.45488 35.5867 3.38174 34.9284C3.36345 34.8003 3.32688 34.6723 3.27201 34.5626C3.10743 34.1786 2.7234 34.0323 2.28451 34.142C2.08335 34.1969 1.8822 34.2883 1.71761 34.4163C1.62618 34.4712 1.5896 34.5443 1.5896 34.654C1.5896 35.3124 1.5896 35.9707 1.5896 36.6291V36.8851C1.5896 37.0679 1.66275 37.1594 1.84562 37.196C1.95534 37.2142 2.06507 37.2325 2.19308 37.2508Z" fill="#4F372B"/>
<path fill-rule="evenodd" clip-rule="evenodd" d="M22.0712 33.5934C22.1261 33.8494 22.1261 34.0689 21.9432 34.2334C21.7604 34.398 21.5409 34.3432 21.3032 34.3066C21.3215 34.4163 21.3398 34.526 21.358 34.6175C21.4312 35.3673 21.1203 35.9341 20.4254 36.245C20.1694 36.373 19.8768 36.4096 19.6025 36.4279C19.4562 36.4462 19.3282 36.5559 19.3282 36.6656C19.3099 36.7753 19.383 36.9034 19.5293 36.9399C19.7122 36.9765 19.8951 36.9948 20.0597 37.0131C20.4437 37.0497 20.8277 37.0679 21.2117 37.1411C21.7969 37.2508 22.1078 37.7446 22.0164 38.3297C21.9249 38.8418 21.6323 39.2258 21.2117 39.5001C20.5168 39.9939 19.7488 40.1219 18.9259 39.8841C18.4504 39.7378 18.1212 39.427 18.0115 38.9332C17.9566 38.6772 18.0115 38.4578 18.1944 38.2932C18.4138 38.092 18.6516 37.9092 18.8893 37.7263L18.9624 37.6531L18.871 37.5983C18.6333 37.4885 18.4504 37.324 18.3772 37.0679C18.359 36.9765 18.3772 36.9216 18.4504 36.8668C18.5784 36.7936 18.7064 36.7022 18.8344 36.6291C18.8893 36.5925 18.9624 36.5559 19.0173 36.501C19.0904 36.4462 19.0904 36.3913 18.999 36.3548C18.7796 36.2816 18.5967 36.1536 18.4504 35.989C18.1944 35.6964 18.1395 35.3489 18.1578 34.9649C18.1944 34.3797 18.5053 33.9957 19.0173 33.758C19.6208 33.4654 20.2425 33.4471 20.8643 33.7214C21.102 33.8128 21.3398 33.8494 21.5775 33.8311C21.7604 33.8128 21.9249 33.7397 22.0712 33.5934ZM19.8219 37.7629C19.3648 37.7629 19.2185 37.8177 18.9441 38.092C18.6516 38.4029 18.6516 38.8235 18.9441 39.1344C19.1636 39.3721 19.4562 39.4818 19.7671 39.5184C20.1328 39.555 20.4985 39.5367 20.8277 39.3538C21.1935 39.1527 21.358 38.7869 21.2849 38.4212C21.2117 38.1103 20.9923 37.9823 20.718 37.8909C20.4254 37.7811 20.0962 37.7629 19.8219 37.7629ZM18.9259 34.8369C18.9441 34.9649 18.9441 35.0929 18.9807 35.2209C19.0539 35.5501 19.2002 35.8244 19.511 35.9707C19.8951 36.1353 20.3705 36.0622 20.5351 35.5318C20.6448 35.1661 20.6266 34.8004 20.4985 34.4529C20.4437 34.2883 20.334 34.1603 20.206 34.0689C19.8768 33.8311 19.2916 33.8128 19.0539 34.3066C18.9624 34.4712 18.9259 34.654 18.9259 34.8369Z" fill="#4F372B"/>
<path fill-rule="evenodd" clip-rule="evenodd" d="M14.2991 33.502C14.3173 33.5568 14.3356 33.63 14.3356 33.6848C14.3356 33.8128 14.3173 33.9226 14.3173 34.0506V34.1603L14.4271 34.0872C14.7014 33.8494 15.0122 33.6665 15.3597 33.5568C15.9998 33.374 16.6398 33.7214 16.841 34.3615C16.9141 34.5992 16.9507 34.8552 16.9507 35.1295C16.9507 35.6964 16.969 36.2816 16.969 36.8485C16.969 37.0497 16.9873 37.0862 17.1884 37.1594C17.2981 37.1959 17.4079 37.2142 17.5359 37.2325C17.5907 37.2508 17.6273 37.2691 17.6273 37.324V37.3788C17.6273 37.6166 17.609 37.6348 17.3713 37.6348C16.8227 37.6348 16.2741 37.6348 15.7254 37.6348C15.5609 37.6348 15.5609 37.6348 15.5426 37.4885V37.3971C15.5609 37.2508 15.5609 37.2508 15.6889 37.2325C15.7803 37.2142 15.8717 37.196 15.9632 37.1777C16.0546 37.1594 16.1095 37.0862 16.1095 36.9948C16.1095 36.9399 16.1278 36.9034 16.1278 36.8485C16.1278 36.2267 16.1278 35.5867 16.0912 34.9649C16.0546 34.4529 15.6706 34.1603 15.1768 34.1969C14.9208 34.2152 14.7014 34.3066 14.5002 34.4346C14.3722 34.526 14.3356 34.6723 14.3356 34.8186C14.3356 35.4038 14.3356 35.989 14.3539 36.5742C14.3539 36.7022 14.3539 36.8302 14.3722 36.9582C14.3905 37.1045 14.4271 37.1594 14.5734 37.1777C14.7014 37.2142 14.8294 37.2325 14.9757 37.2508L14.994 37.3605C14.994 37.6166 14.9757 37.6348 14.7197 37.6348C14.1528 37.6348 13.5859 37.6348 13.0007 37.6348C12.9092 37.6348 12.8727 37.6165 12.8727 37.5251V37.4885C12.8544 37.2691 12.8727 37.2508 13.0738 37.2142L13.1835 37.196C13.4213 37.1411 13.4761 37.0862 13.4761 36.8485C13.4944 36.0987 13.4944 35.3489 13.4944 34.5992C13.4944 34.4895 13.4578 34.4163 13.3481 34.3615C13.2018 34.3066 13.0738 34.2334 12.9275 34.1786C12.8544 34.142 12.7629 34.1237 12.7629 34.014C12.7629 33.9409 12.8361 33.8677 12.9458 33.8494C13.1653 33.7946 13.403 33.758 13.6224 33.7031C13.8419 33.6483 14.0613 33.5751 14.2991 33.502Z" fill="#4F372B"/>
<path fill-rule="evenodd" clip-rule="evenodd" d="M26.6245 35.4586C26.6062 36.1535 26.4417 36.7204 25.9479 37.141C25.3261 37.6713 24.3569 37.8542 23.5523 37.4519C23.2048 37.2873 22.9671 37.013 22.8025 36.6838C22.5465 36.1535 22.4917 35.6049 22.6197 35.038C22.7477 34.4711 23.0951 34.0688 23.5889 33.8128C24.1009 33.5384 24.6495 33.447 25.2347 33.575C25.9662 33.7579 26.4965 34.3431 26.588 35.1111C26.6062 35.2574 26.6245 35.3854 26.6245 35.4586ZM25.7833 35.8426H25.7468C25.7468 35.7695 25.7468 35.7146 25.7468 35.6415C25.7285 35.2391 25.637 34.8368 25.3993 34.4894C25.1799 34.1602 24.869 33.9773 24.4667 33.9408C24.0278 33.9042 23.6437 34.1602 23.5157 34.6174C23.3146 35.3123 23.3877 35.9706 23.7352 36.5924C23.8815 36.8667 24.1192 37.0679 24.4118 37.1776C24.997 37.3787 25.5273 37.1227 25.6736 36.5192C25.7285 36.2998 25.7467 36.0621 25.7833 35.8426Z" fill="#4F372B"/>
<path fill-rule="evenodd" clip-rule="evenodd" d="M12.1413 35.5135C12.123 36.0073 12.0133 36.4828 11.7024 36.8851C11.3732 37.324 10.916 37.5434 10.404 37.6531C9.80053 37.7629 9.21534 37.6531 8.72159 37.2508C8.48386 37.0497 8.33756 36.8119 8.22784 36.5193C8.06326 36.0439 8.0084 35.5684 8.11812 35.093C8.22784 34.5626 8.52043 34.1786 8.97761 33.9043C9.50794 33.5934 10.0748 33.4654 10.6783 33.5934C11.4647 33.7763 11.9035 34.2883 12.0864 35.0564C12.123 35.1844 12.123 35.349 12.1413 35.5135ZM11.3001 35.8427H11.2818V35.7513C11.2635 35.2941 11.1721 34.8552 10.8978 34.4712C10.6966 34.1969 10.4223 34.014 10.0748 33.9591C9.50794 33.886 9.14219 34.2152 9.01418 34.6723C8.8496 35.2758 8.90446 35.861 9.16048 36.4279C9.30678 36.7753 9.5628 37.0497 9.92854 37.196C10.5137 37.3971 11.0441 37.1228 11.1903 36.5193C11.2452 36.2999 11.2635 36.0622 11.3001 35.8427Z" fill="#4F372B"/>
<path fill-rule="evenodd" clip-rule="evenodd" d="M25.8017 10.0214C26.204 11.1917 26.4966 12.3804 26.588 13.6056C26.6977 15.1417 26.6612 16.6596 26.332 18.1591L26.2954 18.2871C26.1857 18.2871 26.0943 18.2688 25.9845 18.2871C25.1433 18.4151 24.3204 18.5614 23.4792 18.6894C22.6197 18.8357 21.7602 18.9637 20.8824 19.11C20.5716 19.1649 20.2058 19.0917 20.0778 19.5306L20.0229 19.5489L20.0595 17.0253L20.0229 10.9357L20.4253 10.8626C21.0836 10.7528 21.7419 10.6431 22.4003 10.5334C23.1866 10.4054 23.973 10.2957 24.7593 10.1676C25.1068 10.1128 25.4542 10.0762 25.8017 10.0214Z" fill="#439934"/>
<path fill-rule="evenodd" clip-rule="evenodd" d="M19.2 26.9002C18.7794 26.5345 18.3405 26.187 17.9382 25.803C15.7437 23.7366 14.1527 21.3044 13.3664 18.3785C13.1469 17.5738 13.0007 16.7509 12.9641 15.928C12.9275 15.3428 12.8909 14.7576 12.9275 14.1724C13.0372 12.6363 13.2567 11.1002 13.7138 9.61896L13.7321 9.5824C13.7687 9.63726 13.8419 9.69212 13.8601 9.76527C14.299 11.0637 14.7379 12.362 15.1768 13.6604C16.5483 17.7567 17.9199 21.853 19.2914 25.931C19.3097 26.0042 19.3828 26.0773 19.4377 26.1505L19.2 26.9002Z" fill="#45A538"/>
<path fill-rule="evenodd" clip-rule="evenodd" d="M25.8017 10.0213C25.4542 10.0762 25.1068 10.131 24.7593 10.1676C23.973 10.2956 23.1866 10.4053 22.4003 10.5333C21.7419 10.6431 21.0836 10.7528 20.4253 10.8625L20.023 10.9357V10.6796C20.0047 10.4602 19.9864 10.259 19.9864 10.0396L19.9498 5.90671C19.9315 5.04722 19.9315 4.18771 19.9132 3.32822C19.8949 2.79789 19.8949 2.26758 19.8584 1.71897C19.8401 1.42638 19.8035 1.15206 19.7852 0.859465C19.7669 0.694881 19.7852 0.530306 19.7852 0.365723C19.9864 0.768038 20.1875 1.17035 20.407 1.55438C20.7362 2.17614 21.2665 2.63331 21.7419 3.14535C23.6255 5.10206 24.9605 7.42454 25.8017 10.0213Z" fill="#46A037"/>
<path fill-rule="evenodd" clip-rule="evenodd" d="M20.023 19.5306L20.0778 19.5123C20.2059 19.0917 20.5716 19.1465 20.8825 19.0917C21.742 18.9454 22.6015 18.7991 23.4792 18.6711C24.3204 18.543 25.1434 18.3968 25.9846 18.2687C26.076 18.2505 26.1857 18.2687 26.2954 18.2687C26.1309 18.8174 26.0211 19.4025 25.82 19.9329C25.6005 20.5546 25.3262 21.1398 25.0336 21.7433C24.5947 22.6211 24.0644 23.444 23.4427 24.1938C22.9672 24.7789 22.4186 25.3093 21.8883 25.8396C21.5957 26.1322 21.2482 26.3699 20.919 26.6259L20.8276 26.5711L20.5167 26.3151L20.2059 25.6201C19.9864 24.8155 19.8767 23.9926 19.8584 23.1514V23.0051L19.895 22.4016C19.9133 22.2005 19.9315 21.981 19.9315 21.7799C19.9681 21.0301 20.0047 20.2803 20.023 19.5306Z" fill="#409433"/>
<path fill-rule="evenodd" clip-rule="evenodd" d="M20.023 19.5306C19.9864 20.2803 19.9681 21.0301 19.9316 21.7798C19.9316 21.981 19.895 22.2005 19.895 22.4016L19.7121 22.4748C19.2915 21.213 18.8526 19.9694 18.4503 18.7259C17.7554 16.6595 17.0788 14.6113 16.3839 12.5449C15.8353 10.8808 15.2684 9.21665 14.7015 7.55252C14.6832 7.47937 14.5917 7.40621 14.5552 7.35135L15.7804 5.10205C15.817 5.1752 15.8718 5.24834 15.9084 5.32149C16.4753 7.0039 17.0422 8.6863 17.6091 10.3687C18.3406 12.5632 19.0721 14.7576 19.8036 16.9521C19.8401 17.0435 19.8767 17.1166 19.9316 17.2264L20.0962 17.0252C20.0596 17.8664 20.0413 18.7076 20.023 19.5306Z" fill="#4FAA41"/>
<path fill-rule="evenodd" clip-rule="evenodd" d="M14.5368 7.35144C14.5916 7.42459 14.6648 7.47947 14.6831 7.55262C15.25 9.21674 15.8169 10.8808 16.3655 12.545C17.0604 14.6114 17.737 16.6596 18.4319 18.726C18.8525 19.9695 19.2731 21.2131 19.6937 22.4749L19.8766 22.4017L19.84 23.0052L19.8034 23.1515C19.7303 23.8281 19.6754 24.4864 19.6023 25.1448C19.5657 25.4739 19.4743 25.8031 19.4011 26.1323C19.3463 26.0591 19.2731 25.986 19.2548 25.9128C17.8833 21.8165 16.5118 17.7202 15.1402 13.6422C14.7013 12.3438 14.2625 11.0454 13.8236 9.74706C13.8053 9.67392 13.7321 9.61905 13.6956 9.56419L14.5368 7.35144Z" fill="#4AA73C"/>
<path fill-rule="evenodd" clip-rule="evenodd" d="M20.0596 17.0252L19.8951 17.2264C19.8402 17.1349 19.8036 17.0435 19.7671 16.9521C19.0356 14.7576 18.3041 12.5632 17.5726 10.3687C17.0057 8.68631 16.4388 7.00391 15.8719 5.3215C15.8536 5.24835 15.7988 5.17521 15.7439 5.10206L17.2617 3.10876C17.3166 3.16363 17.3714 3.23677 17.408 3.30992C17.8286 4.55344 18.2492 5.77868 18.6698 7.0222C19.0539 8.17429 19.4379 9.32637 19.8402 10.4967C19.8585 10.5699 19.9499 10.6247 20.0231 10.6979V10.9539L20.0596 17.0252Z" fill="#57AE47"/>
<path fill-rule="evenodd" clip-rule="evenodd" d="M20.0231 10.6614C19.9682 10.6065 19.8768 10.5516 19.8402 10.4602C19.4562 9.30811 19.0721 8.15602 18.6698 6.98565C18.2492 5.74213 17.8286 4.51691 17.408 3.27339C17.3897 3.20024 17.3166 3.14538 17.2617 3.07224C17.7555 2.59677 18.2309 2.08473 18.743 1.62755C19.2001 1.22524 19.5659 0.768048 19.5842 0.128001L19.6207 0L19.7488 0.329176C19.7488 0.49376 19.7305 0.658334 19.7488 0.822918C19.767 1.11551 19.8219 1.38981 19.8219 1.6824C19.8402 2.21273 19.8585 2.74306 19.8768 3.29167C19.8951 4.15116 19.9133 5.01065 19.9133 5.87014L19.9499 10.003C19.9865 10.2407 20.0048 10.4602 20.0231 10.6614Z" fill="#60B24F"/>
<path fill-rule="evenodd" clip-rule="evenodd" d="M19.4194 26.1505C19.4926 25.8213 19.5657 25.4921 19.6206 25.163C19.6937 24.5046 19.7669 23.828 19.8217 23.1697H19.84H19.8583C19.8766 24.0109 19.9863 24.8338 20.2058 25.6384C20.1692 25.6933 20.096 25.7482 20.0778 25.8213C19.8949 26.3333 19.7303 26.8637 19.5474 27.3757C19.5291 27.4489 19.456 27.5037 19.4011 27.5586L19.2183 26.9185L19.4194 26.1505Z" fill="#A6A6A6"/>
<path fill-rule="evenodd" clip-rule="evenodd" d="M19.3828 27.5404C19.4377 27.4855 19.5108 27.4307 19.5291 27.3575C19.712 26.8455 19.8766 26.3334 20.0594 25.8031C20.0777 25.73 20.1509 25.6934 20.1874 25.6202L20.4983 26.3152C20.4435 26.4066 20.352 26.4797 20.3155 26.5895L19.712 28.3633C19.6937 28.4364 19.6023 28.4913 19.5474 28.5462L19.3828 27.5404Z" fill="#B2B2B2"/>
<path fill-rule="evenodd" clip-rule="evenodd" d="M19.5657 28.5461C19.6205 28.4912 19.712 28.4364 19.7303 28.3632L20.3337 26.5894C20.3703 26.4979 20.4617 26.4065 20.5166 26.3151L20.8275 26.5711C20.6812 26.7174 20.5898 26.8819 20.6446 27.1014L20.5532 27.4123C20.5166 27.4671 20.4435 27.5037 20.4252 27.5769C20.2057 28.1803 20.0229 28.7838 19.8034 29.3873C19.7851 29.4604 19.6937 29.5153 19.6571 29.5885L19.5657 28.5461Z" fill="#BEBEBE"/>
<path fill-rule="evenodd" clip-rule="evenodd" d="M19.6389 29.5885C19.6938 29.5154 19.7669 29.4605 19.7852 29.3874C20.0047 28.7839 20.2058 28.1804 20.407 27.577C20.4253 27.5221 20.4801 27.4672 20.535 27.4307L20.407 28.8205C20.3704 28.8571 20.3155 28.8936 20.3155 28.9485L19.8949 30.1737C19.8584 30.2652 19.8035 30.3383 19.7669 30.4115C19.7304 30.3566 19.6572 30.3017 19.6572 30.2652C19.6389 30.0091 19.6389 29.7897 19.6389 29.5885Z" fill="#CBCBCB"/>
<path fill-rule="evenodd" clip-rule="evenodd" d="M19.7668 30.3748C19.8034 30.3016 19.8766 30.2285 19.8949 30.1371L20.3155 28.9118C20.3337 28.857 20.3886 28.8387 20.4069 28.7838V29.6982L20.096 30.4845L19.7668 30.3748Z" fill="#D8D8D8"/>
<path fill-rule="evenodd" clip-rule="evenodd" d="M20.1145 30.5028L20.4254 29.7164L20.4802 30.6491L20.1145 30.5028Z" fill="#E8E8E8"/>
<path fill-rule="evenodd" clip-rule="evenodd" d="M20.6448 27.1015C20.5899 26.882 20.6813 26.7175 20.8276 26.5712L20.9191 26.626L20.6448 27.1015Z" fill="#CBCBCB"/>
<path fill-rule="evenodd" clip-rule="evenodd" d="M19.84 23.1697H19.8035L19.84 23.0234V23.1697Z" fill="#838383"/>
</svg>
