<svg width="30" height="40" viewBox="0 0 30 40" fill="none" xmlns="http://www.w3.org/2000/svg">
<path d="M0 32.2864L0.244164 31.9446L11.671 10.214L11.6873 9.98615L6.65753 0.496316C6.23432 -0.301286 5.04605 -0.0896691 4.91583 0.78932L0 32.2864Z" fill="#C7C7C7"/>
<path d="M0.146484 32.0422L0.325534 31.6841L11.6385 10.1814L6.60868 0.659022C6.18546 -0.122301 5.12742 0.0730375 4.9972 0.952027L0.146484 32.0422Z" fill="#B1B1B1"/>
<path d="M0.146484 32.0422L0.325534 31.6841L11.6385 10.1814L6.60868 0.659022C6.18546 -0.122301 5.12742 0.0730375 4.9972 0.952027L0.146484 32.0422Z" fill="#F9A312"/>
<path d="M15.3661 17.1646L19.1099 13.3068L15.3661 6.12834C15.008 5.44469 14.015 5.44469 13.6569 6.12834L11.6548 9.95358V10.2791L15.3661 17.1646Z" fill="#C3C3C3"/>
<path d="M15.3009 17.0018L18.9471 13.2579L15.3009 6.29112C14.9591 5.62374 14.1126 5.55862 13.7708 6.226L11.7524 10.1163L11.6873 10.3117L15.3009 17.0018Z" fill="#AFAFAF"/>
<path d="M15.3009 17.0018L18.9471 13.2579L15.3009 6.29112C14.9591 5.62374 14.1126 5.55862 13.7708 6.226L11.7524 10.1163L11.6873 10.3117L15.3009 17.0018Z" fill="#FFA50E"/>
<path d="M0 32.2865L0.113945 32.1725L0.504601 32.0097L15.1382 17.425L15.3172 16.9204L11.671 9.95361L0 32.2865Z" fill="#F6820C"/>
<path d="M15.8381 39.6602L29.0718 32.2702L25.2954 8.94445C25.1814 8.21196 24.2862 7.91896 23.7653 8.45612L0 32.2865L13.1523 39.644C13.9824 40.116 15.0079 40.116 15.8381 39.6602Z" fill="#DBDBDB"/>
<path d="M28.9415 32.205L25.1977 9.05828C25.0837 8.32579 24.335 8.0328 23.8141 8.55368L0.146484 32.2538L13.1523 39.5462C13.9824 40.002 14.9754 40.002 15.8055 39.5462L28.9415 32.205Z" fill="#FCCA3F"/>
<path d="M15.8381 39.4323C15.0079 39.9044 13.9987 39.9044 13.1686 39.4323L0.113945 32.1725L0 32.2865L13.1523 39.6439C13.9824 40.116 14.9917 40.116 15.8218 39.6439L29.0555 32.2539L29.0229 32.0586L15.8381 39.4323Z" fill="#B2B2B2"/>
</svg>
