<svg width="40" height="39" viewBox="0 0 40 39" fill="none" xmlns="http://www.w3.org/2000/svg">
<path d="M19.5718 0C8.80865 0 0.0717773 8.51899 0.0717773 19.0207C0.0717773 25.6006 3.49245 31.3743 8.67792 34.795V19.0207C8.67792 18.9989 8.67792 18.9771 8.67792 18.9553C8.67792 18.9335 8.67792 18.9117 8.67792 18.8899V18.7592C8.78686 12.6369 13.6019 7.71284 19.55 7.71284C25.5634 7.71284 30.4221 12.7458 30.4221 18.9771C30.4221 25.1866 25.5634 30.2413 19.55 30.2413C17.2187 30.2413 15.0399 29.4788 13.2751 28.1715V37.0391C15.2578 37.6927 17.3712 38.0631 19.5718 38.0631C30.3349 38.0631 39.0718 29.5441 39.0718 19.0424C39.0718 8.51899 30.3349 0 19.5718 0Z" fill="url(#paint0_linear)"/>
<path d="M26.1516 19.3474C26.1516 22.9424 23.2321 25.8619 19.6371 25.8619C16.0421 25.8619 13.1226 22.9424 13.1226 19.3474C13.1226 15.7524 16.0421 12.8329 19.6371 12.8329C23.2321 12.8329 26.1516 15.7524 26.1516 19.3474Z" fill="#FCB42F"/>
<defs>
<linearGradient id="paint0_linear" x1="19.5718" y1="0" x2="19.5718" y2="38.0631" gradientUnits="userSpaceOnUse">
<stop stop-color="#FBB32F"/>
<stop offset="0.504739" stop-color="#C11511"/>
<stop offset="1" stop-color="#C11411"/>
</linearGradient>
</defs>
</svg>
