<svg width="39" height="27" viewBox="0 0 39 27" fill="none" xmlns="http://www.w3.org/2000/svg">
<path d="M9.34853 24.1619H7.82868C7.77133 21.6097 7.62795 19.2009 7.39853 16.9641L5.10442 24.1619H3.95736L1.69192 16.9641C1.51986 19.1148 1.40515 21.5236 1.37648 24.1619H0C0.0860294 20.9501 0.315446 17.9391 0.659564 15.1288H2.52353L4.70295 21.753L6.88235 15.1288H8.6603C9.03309 18.4266 9.2625 21.4376 9.34853 24.1619ZM15.8868 17.5089C15.2846 20.8354 14.4529 23.2729 13.4493 24.7928C12.675 25.9685 11.8147 26.542 10.8684 26.542C10.6103 26.542 10.3235 26.456 9.95074 26.3126V25.5097C10.1228 25.5383 10.3235 25.5383 10.5816 25.5383C11.0118 25.5383 11.3559 25.4236 11.6426 25.1655C11.9581 24.8788 12.1302 24.5347 12.1302 24.1619C12.1302 23.9038 12.0154 23.3876 11.7574 22.6133L10.0941 17.4516H11.5853L12.761 21.2942C13.0191 22.1832 13.1338 22.7854 13.1052 23.1295C13.7647 21.3803 14.1949 19.4876 14.4529 17.4516L15.8868 17.5089Z" fill="#5D87A1"/>
<path d="M35.9315 24.1618H31.6587V15.1288H33.0926V23.0435H35.9315V24.1618ZM30.5117 24.3912L28.8484 23.5596C28.9918 23.4449 29.1352 23.3015 29.2499 23.1582C29.9668 22.3265 30.3109 21.0935 30.3109 19.4876C30.3109 16.5052 29.1352 15.014 26.8124 15.014C25.6654 15.014 24.7764 15.3868 24.1455 16.1611C23.4286 16.9927 23.0845 18.2258 23.0845 19.8317C23.0845 21.4089 23.3999 22.5846 24.0308 23.3302C24.6043 23.9898 25.4646 24.3339 26.6117 24.3339C27.0418 24.3339 27.4433 24.2765 27.7874 24.1618L29.9382 25.4236L30.5117 24.3912ZM25.1779 22.3552C24.8051 21.753 24.633 20.8354 24.633 19.5162C24.633 17.2508 25.3212 16.1038 26.6977 16.1038C27.4146 16.1038 27.9595 16.3905 28.2749 16.9067C28.6477 17.5089 28.8198 18.4265 28.8198 19.717C28.8198 22.0111 28.1315 23.1582 26.7551 23.1582C26.0382 23.1868 25.4933 22.9001 25.1779 22.3552ZM22.4823 21.667C22.4823 22.4412 22.1955 23.0721 21.6507 23.5596C21.0771 24.0471 20.3315 24.3052 19.3852 24.3052C18.4962 24.3052 17.6646 24.0184 16.833 23.4736L17.2058 22.6993C17.9227 23.0435 18.5536 23.2442 19.1271 23.2442C19.672 23.2442 20.1021 23.1295 20.3889 22.8714C20.7043 22.642 20.8764 22.2979 20.8764 21.8677C20.8764 21.3229 20.5036 20.864 19.8154 20.4913C19.1845 20.1471 17.9227 19.4302 17.9227 19.4302C17.2345 18.9427 16.8904 18.3979 16.8904 17.5089C16.8904 16.7633 17.1484 16.1898 17.6646 15.7309C18.1808 15.2721 18.8404 15.0427 19.6433 15.0427C20.4749 15.0427 21.2492 15.2721 21.9087 15.7023L21.5646 16.4765C20.9911 16.2185 20.3889 16.1038 19.844 16.1038C19.3852 16.1038 19.0124 16.2184 18.783 16.4479C18.5249 16.6773 18.3815 16.964 18.3815 17.3082C18.3815 17.853 18.7543 18.3118 19.4712 18.6846C20.1021 19.0288 21.3926 19.7743 21.3926 19.7743C22.1095 20.2618 22.4823 20.778 22.4823 21.667Z" fill="#F8981D"/>
<path d="M37.7382 12.1177C36.8779 12.089 36.1896 12.1751 35.6161 12.4332C35.4441 12.4905 35.186 12.4905 35.1573 12.7199C35.2433 12.8059 35.2433 12.9493 35.3293 13.064C35.4727 13.2935 35.6735 13.5802 35.9029 13.7236C36.1323 13.8957 36.3617 14.0677 36.5911 14.2398C37.0213 14.4979 37.4801 14.6412 37.9102 14.928C38.1396 15.0714 38.3977 15.2721 38.6271 15.4442C38.7418 15.5302 38.8279 15.6736 38.9713 15.7309V15.7023C38.8852 15.6163 38.8852 15.4729 38.7992 15.3582L38.4838 14.9854C38.1683 14.5552 37.7668 14.1824 37.3654 13.8957C37.0213 13.6663 36.247 13.3221 36.1036 12.9207L36.0749 12.892C36.3043 12.8633 36.5911 12.7773 36.8205 12.7199C37.1933 12.6339 37.5374 12.6339 37.9102 12.5479C38.0823 12.4905 38.2543 12.4618 38.4264 12.4045V12.3185C38.2257 12.1177 38.0823 11.8596 37.8816 11.6876C37.3367 11.2001 36.7058 10.7412 36.0749 10.3398C35.7308 10.1104 35.3007 9.96699 34.9566 9.79493C34.8132 9.73758 34.6124 9.7089 34.5264 9.59419C34.3257 9.36478 34.211 9.04933 34.0676 8.76257C33.7521 8.16036 33.4367 7.50081 33.1786 6.86993C32.9779 6.43978 32.8632 6.00964 32.6338 5.63684C31.5154 3.77287 30.2823 2.65449 28.4183 1.56478C28.0168 1.33537 27.5293 1.24933 27.0132 1.10595L26.2102 1.04861C26.0382 0.962579 25.8661 0.76183 25.7227 0.675801C25.0918 0.27433 23.5146 -0.557277 23.0558 0.561105C22.7691 1.27802 23.486 1.96626 23.7441 2.33905C23.9161 2.59714 24.1742 2.88389 24.2889 3.17066C24.3749 3.34272 24.3749 3.54345 24.461 3.74419C24.633 4.23169 24.8051 4.74787 25.0345 5.2067C25.1492 5.43611 25.2926 5.66551 25.436 5.89492C25.522 6.00963 25.6654 6.06698 25.6941 6.26771C25.5507 6.49712 25.522 6.81257 25.436 7.09934C25.0345 8.33243 25.2066 9.85228 25.7514 10.7699C25.9235 11.0567 26.3249 11.6302 26.8985 11.4008C27.386 11.2001 27.2713 10.5692 27.4146 10.0243C27.4433 9.88096 27.4146 9.79492 27.5007 9.70889V9.73758C27.6441 10.053 27.8161 10.3398 27.9595 10.6552C28.3036 11.2001 28.8771 11.7449 29.3646 12.1177C29.6227 12.3185 29.8235 12.6626 30.1676 12.7773V12.7486C30.1102 12.6626 29.9955 12.6052 29.9095 12.5192C29.7088 12.3185 29.508 12.089 29.336 11.8596C28.8771 11.2574 28.4757 10.5692 28.1316 9.88096C27.9595 9.53684 27.8161 9.16404 27.6727 8.81993C27.6154 8.67654 27.6154 8.50448 27.5007 8.41845C27.3286 8.64786 27.0992 8.87728 26.9845 9.16405C26.7838 9.62287 26.7551 10.2251 26.6691 10.8273L26.6404 10.8559C26.2963 10.7699 26.1816 10.3971 26.0382 10.1104C25.7227 9.3361 25.6654 8.10301 25.9521 7.18536C26.0382 6.95595 26.3536 6.23905 26.2389 6.00963C26.1816 5.8089 25.9521 5.69419 25.8374 5.52213C25.6941 5.3214 25.5507 5.0633 25.436 4.83389C25.1779 4.23168 25.0345 3.54345 24.7764 2.94125C24.633 2.65448 24.4036 2.36771 24.2316 2.10962C24.0308 1.82286 23.8014 1.59345 23.6294 1.24933C23.572 1.13462 23.486 0.933896 23.6007 0.790514C23.6293 0.704484 23.658 0.675808 23.7441 0.647131C23.8874 0.532425 24.2889 0.675804 24.4323 0.733157C24.8338 0.905216 25.1779 1.04861 25.522 1.27802C25.6654 1.39272 25.8374 1.59345 26.0382 1.65081H26.2676C26.6117 1.73684 27.0132 1.67949 27.3286 1.76552C27.9021 1.93758 28.4183 2.22434 28.9058 2.5111C30.3396 3.42875 31.5154 4.71919 32.2896 6.23904C32.433 6.49713 32.4617 6.72654 32.6051 6.98462C32.8345 7.52948 33.1213 8.07434 33.3507 8.59052C33.5801 9.10669 33.8095 9.62286 34.1249 10.053C34.297 10.2824 34.9279 10.3971 35.2433 10.5118C35.4727 10.5979 35.7882 10.6839 35.9889 10.8273C36.3617 11.0567 36.7345 11.3148 37.0786 11.5729C37.1646 11.6302 37.7095 11.8883 37.7382 12.1177ZM26.6404 2.62581C26.497 2.62581 26.3536 2.65448 26.1816 2.68315V2.71184H26.2102C26.2963 2.8839 26.4396 2.9986 26.5543 3.17066C26.6404 3.34272 26.7264 3.51477 26.8124 3.68683L26.8411 3.65816C26.9845 3.54345 27.0705 3.37139 27.0705 3.1133C27.0132 3.02727 26.9845 2.96992 26.9271 2.88389C26.8698 2.76919 26.7264 2.71184 26.6404 2.62581Z" fill="#5D87A1"/>
<path d="M38.7706 24.1618H39V23.0435H38.6559L38.3691 23.7891L38.0824 23.0435H37.7669V24.1618H37.9677V23.3302L38.2831 24.1618H38.4552L38.7706 23.3302V24.1618ZM36.964 24.1618H37.1934V23.2442H37.5088V23.0435H36.6199V23.2442H36.9353L36.964 24.1618Z" fill="#F8981D"/>
</svg>
