<svg width="27" height="30" viewBox="0 0 27 30" fill="none" xmlns="http://www.w3.org/2000/svg">
<path d="M26 4.28572V6.96428C26 7.44249 25.7022 7.94072 25.0655 8.4318C24.4324 8.92015 23.5006 9.37116 22.3271 9.7547C19.9828 10.5209 16.729 11 13.125 11C9.52101 11 6.26717 10.5209 3.92287 9.7547C2.74935 9.37116 1.81761 8.92015 1.18448 8.4318C0.547795 7.94072 0.25 7.44249 0.25 6.96428V4.28572C0.25 3.80751 0.547795 3.30928 1.18448 2.8182C1.81761 2.32986 2.74935 1.87884 3.92287 1.4953C6.26717 0.729128 9.52101 0.25 13.125 0.25C16.729 0.25 19.9828 0.729128 22.3271 1.4953C23.5006 1.87884 24.4324 2.32986 25.0655 2.8182C25.7022 3.30928 26 3.80751 26 4.28572ZM26 10.7729V16.3393C26 16.8175 25.7022 17.3157 25.0655 17.8068C24.4324 18.2951 23.5006 18.7462 22.3271 19.1297C19.9828 19.8959 16.729 20.375 13.125 20.375C9.52101 20.375 6.26717 19.8959 3.92287 19.1297C2.74935 18.7462 1.81761 18.2951 1.18448 17.8068C0.547795 17.3157 0.25 16.8175 0.25 16.3393V10.7729C1.6633 11.6399 3.53973 12.2778 5.64069 12.7087C7.94592 13.1814 10.5394 13.4085 13.125 13.4085C15.7106 13.4085 18.3041 13.1814 20.6093 12.7087C22.7102 12.2778 24.5867 11.6399 26 10.7729ZM20.6093 22.0837C22.7102 21.6528 24.5867 21.0149 26 20.1479V25.7143C26 26.1925 25.7022 26.6907 25.0655 27.1818C24.4324 27.6701 23.5006 28.1212 22.3271 28.5047C19.9828 29.2709 16.729 29.75 13.125 29.75C9.52101 29.75 6.26717 29.2709 3.92287 28.5047C2.74935 28.1212 1.81761 27.6701 1.18448 27.1818C0.547795 26.6907 0.25 26.1925 0.25 25.7143V20.1479C1.6633 21.0149 3.53973 21.6528 5.64069 22.0837C7.94592 22.5564 10.5394 22.7835 13.125 22.7835C15.7106 22.7835 18.3041 22.5564 20.6093 22.0837Z" stroke="#FFD600" stroke-width="0.5"/>
</svg>
