<svg width="39" height="8" viewBox="0 0 39 8" fill="none" xmlns="http://www.w3.org/2000/svg">
<path d="M3.86634 3.94811C3.86634 4.53081 3.69268 5.02054 3.34534 5.41732C2.98216 5.83121 2.51059 6.04164 1.93381 6.04164C1.35702 6.04164 0.887358 5.83121 0.522273 5.41732C0.174091 5.02054 0 4.53081 0 3.94811C0 3.36541 0.174091 2.87588 0.522273 2.47953C0.889048 2.06754 1.35956 1.86155 1.93381 1.86155C2.51059 1.86155 2.98216 2.06754 3.3447 2.47953C3.69246 2.87504 3.86634 3.36456 3.86634 3.94811ZM2.71722 3.94811C2.72513 3.71182 2.65861 3.47903 2.52707 3.28259C2.46259 3.18529 2.37413 3.10623 2.27022 3.05306C2.1663 2.99988 2.05044 2.97437 1.93381 2.97899C1.81685 2.97465 1.70075 3.00055 1.59671 3.05418C1.49268 3.1078 1.40423 3.18735 1.33991 3.28512C1.20781 3.4813 1.14124 3.71429 1.14976 3.95064C1.1422 4.18926 1.20862 4.42437 1.33991 4.62377C1.40432 4.72146 1.49279 4.80093 1.5968 4.85455C1.70081 4.90816 1.81687 4.93411 1.93381 4.92991C2.05066 4.93413 2.16663 4.90818 2.27054 4.85456C2.37445 4.80093 2.4628 4.72145 2.52707 4.62377C2.65811 4.42334 2.72427 4.18744 2.71658 3.94811H2.71722ZM8.02044 3.94811C8.03031 4.46302 7.86418 4.96589 7.54951 5.37358C7.21232 5.81726 6.77814 6.04164 6.2508 6.04164C5.90669 6.05105 5.57065 5.93656 5.30386 5.71902C5.30386 5.76846 5.30957 5.88825 5.32034 6.07903C5.33112 6.26982 5.33682 6.42764 5.33682 6.55123C5.33682 7.23365 5.13336 7.57465 4.72645 7.57423C4.64932 7.57625 4.57268 7.56155 4.50178 7.53113C4.43088 7.50072 4.36741 7.45531 4.31573 7.39803C4.20896 7.28219 4.15105 7.1296 4.1541 6.9721V2.53531C4.15192 2.37913 4.21136 2.22838 4.31953 2.11571C4.37107 2.05898 4.43417 2.01395 4.50458 1.98366C4.57499 1.95337 4.65108 1.93853 4.72771 1.94014C4.97153 1.94014 5.15005 2.06184 5.2633 2.30523C5.50331 2.00944 5.83184 1.86155 6.2489 1.86155C6.77751 1.86155 7.21084 2.0817 7.54888 2.522C7.86273 2.93037 8.02876 3.43314 8.01981 3.94811H8.02044ZM6.87195 3.94811C6.87952 3.71187 6.81304 3.47917 6.6818 3.28259C6.61441 3.18788 6.52534 3.11065 6.42202 3.05737C6.31871 3.00408 6.20415 2.97628 6.08791 2.97628C5.97166 2.97628 5.8571 3.00408 5.75379 3.05737C5.65048 3.11065 5.56141 3.18788 5.49401 3.28259C5.36274 3.47915 5.29625 3.71186 5.30386 3.94811C5.29721 4.18661 5.36355 4.42146 5.49401 4.62123C5.56141 4.71595 5.65048 4.79317 5.75379 4.84645C5.8571 4.89974 5.97166 4.92754 6.08791 4.92754C6.20415 4.92754 6.31871 4.89974 6.42202 4.84645C6.52534 4.79317 6.61441 4.71595 6.6818 4.62123C6.812 4.42137 6.87812 4.18654 6.87132 3.94811H6.87195ZM12.2012 3.82515C12.2012 4.01529 12.1555 4.14903 12.0649 4.22319C11.9743 4.29735 11.8329 4.33284 11.6415 4.33284H9.57079C9.56898 4.43791 9.59703 4.54133 9.65167 4.63109C9.70631 4.72084 9.7853 4.79325 9.87946 4.8399C10.0678 4.93725 10.2779 4.98502 10.4898 4.97871C10.68 4.97871 10.9006 4.91533 11.1636 4.7949C11.4266 4.67447 11.5946 4.61046 11.6675 4.61046C11.7313 4.60939 11.7946 4.62196 11.8532 4.64732C11.9118 4.67267 11.9643 4.71024 12.0072 4.7575C12.098 4.85189 12.1479 4.97831 12.146 5.10928C12.146 5.42323 11.9109 5.66789 11.4406 5.84325C11.0904 5.9741 10.7198 6.04149 10.346 6.04227C9.74636 6.04227 9.26211 5.84388 8.89322 5.44711C8.52434 5.05033 8.3382 4.55067 8.33482 3.94811C8.32473 3.40034 8.53214 2.87089 8.91161 2.47573C9.09221 2.27728 9.31321 2.1198 9.55974 2.01386C9.80626 1.90793 10.0726 1.85599 10.3409 1.86155C10.5908 1.85658 10.8389 1.90592 11.0679 2.00616C11.297 2.1064 11.5015 2.25515 11.6675 2.44213C12.0174 2.81681 12.2085 3.31254 12.2005 3.82515H12.2012ZM11.0514 3.53675C11.0463 3.44444 11.022 3.3542 10.9803 3.27172C10.9385 3.18924 10.88 3.11633 10.8086 3.05758C10.6763 2.92388 10.4973 2.84664 10.3092 2.84208C10.1186 2.84554 9.93687 2.9228 9.80213 3.05758C9.73147 3.11619 9.67423 3.18931 9.63432 3.27199C9.5944 3.35467 9.57273 3.44497 9.57079 3.53675H11.0514ZM16.0586 5.36344C16.0624 5.52121 16.0049 5.67429 15.8983 5.79064C15.8463 5.84772 15.7827 5.89295 15.7117 5.92325C15.6407 5.95354 15.5641 5.9682 15.4869 5.96621C15.0855 5.96621 14.8848 5.6493 14.8848 5.01547C14.8848 4.89314 14.8937 4.69856 14.9101 4.43615C14.9266 4.17375 14.9361 3.97916 14.9361 3.85684C14.9361 3.18075 14.7181 2.84271 14.282 2.84271C13.8459 2.84271 13.6283 3.18075 13.6292 3.85684C13.6292 3.97916 13.6362 4.17375 13.6482 4.43615C13.6602 4.69856 13.6691 4.89314 13.6691 5.01547C13.6691 5.6493 13.4711 5.96621 13.0752 5.96621C12.9983 5.9683 12.9219 5.95368 12.8512 5.92337C12.7805 5.89306 12.7173 5.84778 12.6658 5.79064C12.5581 5.67484 12.4998 5.52155 12.5035 5.36344V2.5315C12.5015 2.45404 12.5149 2.37694 12.5427 2.30462C12.5706 2.2323 12.6124 2.16617 12.6658 2.11001C12.7179 2.05352 12.7815 2.00889 12.8524 1.97914C12.9232 1.9494 12.9997 1.93523 13.0765 1.93761C13.3516 1.93761 13.5417 2.0593 13.6469 2.30269C13.8328 2.00691 14.161 1.85901 14.6313 1.85901C15.0667 1.85901 15.4134 1.97437 15.6676 2.20382C15.9266 2.44974 16.0561 2.78778 16.0561 3.21794L16.0586 5.36344ZM19.6632 5.24175C19.6632 5.50098 19.4946 5.70698 19.1561 5.85783C18.8884 5.98018 18.5974 6.0429 18.303 6.04164C17.7245 6.04164 17.254 5.83353 16.8915 5.41732C16.5437 5.02054 16.3696 4.53081 16.3692 3.94811C16.3688 3.36541 16.5471 2.87335 16.9042 2.47192C17.2604 2.0667 17.7273 1.8643 18.3049 1.86472C18.5984 1.85771 18.8905 1.90765 19.165 2.01177C19.499 2.1436 19.6651 2.3496 19.6651 2.62975C19.6669 2.76628 19.6202 2.89902 19.5333 3.00434C19.4934 3.05572 19.4421 3.09712 19.3835 3.12528C19.3249 3.15344 19.2605 3.16759 19.1954 3.1666C19.0566 3.15653 18.9202 3.12488 18.7911 3.07279C18.6574 3.01899 18.5159 2.98731 18.3721 2.97899C18.25 2.97316 18.1283 2.99665 18.0172 3.04748C17.906 3.09831 17.8086 3.17502 17.7332 3.27118C17.5912 3.44675 17.5202 3.67239 17.5202 3.95064C17.5118 4.18679 17.5784 4.41954 17.7104 4.61553C17.7734 4.71562 17.8614 4.79752 17.9658 4.85311C18.0702 4.90869 18.1873 4.93604 18.3056 4.93244C18.4643 4.92327 18.6207 4.88927 18.7689 4.83166C18.9055 4.77887 19.0489 4.74538 19.1948 4.73215C19.2585 4.73262 19.3213 4.74739 19.3786 4.77536C19.4359 4.80334 19.4861 4.8438 19.5257 4.89378C19.6129 4.98896 19.6625 5.11267 19.6651 5.24175H19.6632ZM23.8395 5.36344C23.8433 5.52134 23.7856 5.67453 23.6785 5.79064C23.6265 5.84777 23.5627 5.89303 23.4916 5.92332C23.4205 5.95362 23.3438 5.96825 23.2665 5.96621C23.0162 5.96621 22.838 5.84388 22.7303 5.60113C22.4903 5.89691 22.162 6.04375 21.7453 6.04164C21.2123 6.04164 20.7749 5.8179 20.4371 5.37358C20.1276 4.96363 19.9647 4.46167 19.9744 3.94811C19.965 3.4344 20.1279 2.93233 20.4371 2.522C20.7806 2.0817 21.2167 1.86155 21.7453 1.86155C22.162 1.86155 22.4903 2.00944 22.7303 2.30523C22.838 2.06184 23.0162 1.94014 23.2665 1.94014C23.3431 1.93853 23.4192 1.95337 23.4897 1.98366C23.5601 2.01395 23.6232 2.05898 23.6747 2.11571C23.7824 2.2281 23.8416 2.37836 23.8395 2.53404V5.36344ZM22.691 3.94811C22.6989 3.71182 22.6324 3.47903 22.5009 3.28259C22.4356 3.18651 22.3473 3.10835 22.2439 3.05531C22.1406 3.00226 22.0256 2.97602 21.9095 2.97899C21.7925 2.97472 21.6765 3.00064 21.5724 3.05426C21.4684 3.10788 21.38 3.18739 21.3156 3.28512C21.1838 3.48143 21.1172 3.71432 21.1254 3.95064C21.1186 4.18829 21.1826 4.4226 21.3093 4.62377C21.3753 4.72145 21.4651 4.80077 21.5702 4.85431C21.6753 4.90786 21.7923 4.93386 21.9101 4.92991C22.0268 4.93341 22.1424 4.90687 22.2459 4.85281C22.3493 4.79876 22.4371 4.71901 22.5009 4.62123C22.6316 4.42158 22.6979 4.18665 22.691 3.94811ZM26.7728 2.45608C26.7728 2.702 26.6533 2.87102 26.4141 2.96314C26.1927 3.03709 25.9723 3.11315 25.753 3.19132C25.5122 3.32822 25.393 3.58366 25.393 3.95191V5.36344C25.3961 5.52145 25.3379 5.67452 25.2307 5.79064C25.1787 5.84774 25.1149 5.89297 25.0439 5.92326C24.9728 5.95356 24.896 5.9682 24.8188 5.96621C24.7415 5.96858 24.6646 5.95411 24.5934 5.92379C24.5223 5.89347 24.4586 5.84804 24.4068 5.79064C24.2987 5.67505 24.2402 5.52167 24.2439 5.36344V2.5315C24.2393 2.37565 24.2962 2.22426 24.4023 2.11001C24.4549 2.05354 24.5188 2.00894 24.59 1.97921C24.6612 1.94947 24.7379 1.93529 24.815 1.93761C25.0892 1.93761 25.2793 2.0593 25.3854 2.30269C25.6313 2.0086 25.8925 1.85901 26.1796 1.85901C26.2573 1.85807 26.3344 1.87317 26.4061 1.90338C26.4778 1.93359 26.5424 1.97826 26.596 2.03458C26.6522 2.0894 26.6969 2.15496 26.7272 2.22737C26.7576 2.29978 26.7731 2.37756 26.7728 2.45608ZM29.7702 2.50805C29.7702 2.76158 29.6694 2.92448 29.4704 2.99293C29.3728 3.02716 29.1681 3.0449 28.8562 3.0449V5.36344C28.8593 5.52145 28.8012 5.67452 28.694 5.79064C28.6407 5.84624 28.5768 5.89049 28.506 5.92072C28.4352 5.95095 28.359 5.96653 28.282 5.96653C28.205 5.96653 28.1288 5.95095 28.058 5.92072C27.9872 5.89049 27.9232 5.84624 27.87 5.79064C27.7611 5.67542 27.7019 5.52196 27.7052 5.36344V3.04237C27.4688 3.04237 27.297 3.01258 27.1886 2.95363C27.0403 2.87124 26.9674 2.72102 26.9674 2.50552C26.9674 2.29002 27.0429 2.1436 27.1956 2.06184C27.2983 2.00416 27.4688 1.97437 27.7027 1.97437V1.48823C27.7027 0.910175 27.8928 0.622418 28.2776 0.622418C28.6623 0.622418 28.8518 0.910175 28.8518 1.48823V1.98008C29.1636 1.98008 29.3684 1.99782 29.466 2.03205C29.6694 2.1005 29.7702 2.25959 29.7702 2.50805ZM39 1.81084C39 1.45844 38.3446 1.29808 36.6548 1.29808C32.6985 1.29871 31.6913 1.13011 30.6189 0C31.0715 0.678195 31.3161 1.95092 35.5032 1.88754C39.869 1.82035 37.2056 3.01195 36.4311 4.35946C37.8287 3.11336 38.9956 2.29192 39 1.81718V1.81084ZM33.4363 5.42936C33.4363 5.58805 33.3732 5.74024 33.261 5.85245C33.1488 5.96465 32.9966 6.02769 32.8379 6.02769C32.6792 6.02769 32.5271 5.96465 32.4149 5.85245C32.3026 5.74024 32.2396 5.58805 32.2396 5.42936C32.2404 5.27082 32.3038 5.11902 32.416 5.00697C32.5282 4.89493 32.68 4.83169 32.8386 4.83103C32.9171 4.83103 32.9949 4.84651 33.0674 4.87659C33.14 4.90666 33.2059 4.95075 33.2614 5.00631C33.3169 5.06188 33.361 5.12785 33.391 5.20044C33.421 5.27303 33.4364 5.35082 33.4363 5.42936ZM36.1617 5.42936C36.1617 5.58805 36.0987 5.74024 35.9865 5.85245C35.8743 5.96465 35.7221 6.02769 35.5634 6.02769C35.4047 6.02769 35.2525 5.96465 35.1403 5.85245C35.0281 5.74024 34.9651 5.58805 34.9651 5.42936C34.9657 5.27088 35.029 5.11908 35.141 5.00701C35.2531 4.89495 35.4049 4.8317 35.5634 4.83103C35.6421 4.83086 35.72 4.84622 35.7928 4.87621C35.8655 4.9062 35.9316 4.95025 35.9873 5.00583C36.043 5.0614 36.0872 5.12742 36.1173 5.2001C36.1475 5.27277 36.163 5.35068 36.163 5.42936H36.1617Z" fill="url(#paint0_linear)"/>
<defs>
<linearGradient id="paint0_linear" x1="19.5" y1="5.99167" x2="19.5" y2="1.57137e-05" gradientUnits="userSpaceOnUse">
<stop stop-color="#04B6F0"/>
<stop offset="1" stop-color="#3ECAF0"/>
</linearGradient>
</defs>
</svg>
