<svg width="30" height="24" viewBox="0 0 30 24" fill="none" xmlns="http://www.w3.org/2000/svg">
<path d="M27.4948 5.91675H27.7448V5.66675V3.47925C27.7448 3.1693 27.4922 2.91675 27.1823 2.91675H2.81771C2.50776 2.91675 2.25521 3.1693 2.25521 3.47925V5.66675V5.91675H2.50521H27.4948ZM2.50521 12.0834H2.25521V12.3334V21.1876C2.25521 21.4975 2.50776 21.7501 2.81771 21.7501H27.1823C27.4922 21.7501 27.7448 21.4975 27.7448 21.1876V12.3334V12.0834H27.4948H2.50521ZM2.50521 0.916748H27.4948C28.7425 0.916748 29.75 1.92495 29.75 3.16675V21.5001C29.75 22.7419 28.7425 23.7501 27.4948 23.7501H2.50521C1.25752 23.7501 0.25 22.7419 0.25 21.5001V3.16675C0.25 1.92495 1.25752 0.916748 2.50521 0.916748ZM9.75 16.2917V18.3751C9.75 18.5808 9.58068 18.7501 9.375 18.7501H5.625C5.41932 18.7501 5.25 18.5808 5.25 18.3751V16.2917C5.25 16.0861 5.41932 15.9167 5.625 15.9167H9.375C9.58068 15.9167 9.75 16.0861 9.75 16.2917ZM19.75 16.2917V18.3751C19.75 18.5808 19.5807 18.7501 19.375 18.7501H12.2917C12.086 18.7501 11.9167 18.5808 11.9167 18.3751V16.2917C11.9167 16.0861 12.086 15.9167 12.2917 15.9167H19.375C19.5807 15.9167 19.75 16.0861 19.75 16.2917Z" stroke="#FFD600" stroke-width="0.5"/>
</svg>
