<svg width="40" height="20" viewBox="0 0 40 20" fill="none" xmlns="http://www.w3.org/2000/svg">
<path fill-rule="evenodd" clip-rule="evenodd" d="M36.4642 3.48868H37.2846C37.6675 3.48868 37.7223 3.70747 37.7223 3.89892C37.7223 3.98096 37.7496 4.3365 37.7769 4.47324H38.1872V4.41856C38.0778 4.36386 38.0778 4.30915 38.0504 4.19975V3.78951C38.0231 3.46132 37.9137 3.40663 37.7496 3.35193C37.9137 3.26988 38.1051 3.13314 38.1051 2.80495C38.1051 2.31266 37.7222 2.1759 37.2846 2.1759H36.136V4.50058H36.4642V3.48868ZM36.4642 2.4494H37.312C37.4761 2.4494 37.7496 2.47675 37.7496 2.83229C37.7496 3.16048 37.5034 3.24253 37.2573 3.24253H36.4642V2.4494Z" fill="white"/>
<path d="M37.0112 1C38.3787 1 39.5 2.03927 39.5 3.32468C39.5 4.61009 38.3787 5.64936 37.0112 5.64936C35.6438 5.64936 34.5225 4.61009 34.5225 3.32468C34.5225 2.03927 35.6438 1 37.0112 1Z" stroke="white" stroke-width="0.5462" stroke-miterlimit="2.613"/>
<path d="M5.39551 4.00842L0.5 16.1514H4.05539L4.93059 14.0456H9.99019L10.9748 16.1514H14.5848L9.11499 4.00842H5.39551ZM7.22793 7.42707L8.9509 11.6115H5.69635L7.22793 7.42707Z" fill="white"/>
<path d="M10.9202 4.00842L17.5933 19.0231L24.4854 4.00842H20.8479L17.5933 11.3653L14.5029 4.00842H10.9202Z" fill="white"/>
<path d="M26.2357 4.00838L20.8752 16.1514H24.5127L26.4545 11.8029H27.275L28.4236 16.1514H32.1705L30.4748 11.3653C30.4748 11.3653 34.2764 10.791 34.3857 7.45437C34.249 3.87163 30.9671 4.00838 30.9671 4.00838H26.2357ZM28.6424 6.33306H29.9552C29.9552 6.33306 30.9944 6.46981 30.9944 7.42703C30.9944 8.4116 30.3107 9.09532 28.9706 9.23207C28.3142 9.23207 27.6305 9.23207 27.3844 9.23207L28.6424 6.33306Z" fill="white"/>
</svg>
