<svg width="34" height="40" viewBox="0 0 34 40" fill="none" xmlns="http://www.w3.org/2000/svg">
<path d="M10.3398 0.00121469C10.1335 0.00121469 9.92725 0.0837264 9.67971 0.269383C9.08148 0.0424693 8.48326 -0.0400411 7.96754 0.434416C7.16303 0.331273 6.89485 0.537556 6.68857 0.805727C6.50291 0.805727 5.34771 0.620069 4.832 1.40395C3.51177 1.23893 3.07857 2.18784 3.55303 3.05424C3.28486 3.46681 2.99606 3.87939 3.63554 4.6839C3.40863 5.13773 3.55303 5.61218 4.08937 6.18978C3.94497 6.80864 4.23377 7.26247 4.70823 7.61315C4.62571 8.47955 5.49211 8.97464 5.76028 9.13966C5.86343 9.63475 6.06971 10.1092 7.08051 10.3774C7.24554 11.12 7.84377 11.2438 8.442 11.4088C6.50291 12.5227 4.85263 14.008 4.85263 17.6386L4.56383 18.1337C2.35657 19.4746 0.355602 23.8066 3.47051 27.3341C3.6768 28.4274 4.00686 29.2319 4.31628 30.0983C4.77011 33.6258 7.74063 35.2761 8.52451 35.4823C9.67971 36.3487 10.8968 37.1945 12.5471 37.7721C14.1149 39.3811 15.7858 40 17.4979 40C17.5186 40 20.9635 39.3811 22.5107 37.7721C24.161 37.1945 25.378 36.3694 26.5332 35.4823C27.3171 35.2967 30.2876 33.6258 30.7415 30.0983C31.0509 29.2319 31.381 28.4274 31.5872 27.3341C34.7022 23.8066 32.7218 19.4746 30.4939 18.1337L30.2051 17.6386C30.2258 14.008 28.5548 12.5434 26.6158 11.4088C27.1934 11.2438 27.8122 11.12 27.9772 10.3774C28.988 10.1092 29.1943 9.63475 29.2975 9.13966C29.5656 8.95401 30.432 8.45892 30.3495 7.61315C30.8446 7.26247 31.1128 6.82927 30.9684 6.18978C31.5047 5.61218 31.6285 5.1171 31.4222 4.6839C32.0617 3.87939 31.7729 3.46681 31.5047 3.05424C31.9792 2.18784 31.5666 1.23893 30.2258 1.40395C29.6894 0.620069 28.5342 0.785099 28.3692 0.805727C28.1629 0.558185 27.9154 0.331273 27.0902 0.434416C26.5745 -0.0400411 25.9763 0.0424693 25.378 0.269383C24.656 -0.287588 24.1816 0.166244 23.6452 0.331273C22.7788 0.0424731 22.5726 0.434413 22.1394 0.599442C21.1904 0.393156 20.9016 0.826355 20.4478 1.30081L19.9115 1.28019C18.4881 2.12596 17.7661 3.83813 17.5186 4.72515C17.271 3.83813 16.549 2.12596 15.1257 1.28019L14.5893 1.30081C14.1355 0.846983 13.8467 0.393156 12.8978 0.599442C12.4646 0.434413 12.2789 0.0424731 11.3919 0.331273C11.0618 0.22813 10.7318 -0.0194139 10.3398 0.00121469L0.5 17.2467L10.3398 0.00121469Z" fill="white"/>
<path d="M7.49308 3.71418C11.2887 5.6739 13.496 7.2623 14.7131 8.60316C14.0942 11.0786 10.8555 11.2023 9.67971 11.1198C9.92725 11.0167 10.1335 10.8723 10.1954 10.666C9.90662 10.4597 8.85457 10.6454 8.11194 10.2328C8.40074 10.1709 8.52451 10.109 8.64828 9.90275C7.94691 9.67584 7.20428 9.49018 6.77108 9.11887C6.998 9.11887 7.22491 9.18075 7.53434 8.95384C6.91548 8.62378 6.25537 8.35561 5.73965 7.8399C6.06971 7.8399 6.39977 7.83989 6.50291 7.71612C5.92531 7.36544 5.45085 6.9735 5.05891 6.5403C5.51274 6.60218 5.6984 6.5403 5.80154 6.47841C5.36834 6.04521 4.832 5.67389 4.56383 5.11692C4.89388 5.24069 5.20331 5.28195 5.43023 5.11692C5.28583 4.78687 4.66697 4.60121 4.29565 3.81733C4.64634 3.85858 5.01765 3.89984 5.10017 3.81733C4.93514 3.15721 4.66697 2.7859 4.37817 2.39396C5.1208 2.37333 6.276 2.39395 6.21411 2.33207L5.73965 1.85761C6.48228 1.65133 7.22491 1.89887 7.78188 2.0639C8.02942 1.87824 7.78188 1.6307 7.47245 1.38316C8.09131 1.46567 8.66891 1.61007 9.16399 1.81635C9.43216 1.56881 8.97834 1.32127 8.77205 1.07373C9.74159 1.25939 10.1542 1.50693 10.5461 1.7751C10.8349 1.4863 10.5667 1.25938 10.3604 1.01184C11.0824 1.28001 11.4538 1.6307 11.8663 1.98139C11.9901 1.79573 12.1964 1.67196 11.9488 1.23876C12.4646 1.52756 12.8565 1.87824 13.1453 2.27018C13.4547 2.0639 13.331 1.79573 13.331 1.52755C13.8673 1.96075 14.218 2.43521 14.6306 2.88904C14.7131 2.82716 14.7956 2.62087 14.8575 2.29081C16.1364 3.52853 17.9518 6.66407 15.3319 7.90178C13.1247 6.06584 10.443 4.72498 7.49308 3.71418ZM27.6678 3.71418C23.8722 5.6739 21.6649 7.2623 20.4478 8.60316C21.0667 11.0786 24.3054 11.2023 25.4812 11.1198C25.2336 11.0167 25.0274 10.8723 24.9655 10.666C25.2543 10.4597 26.3063 10.6454 27.049 10.2328C26.7602 10.1709 26.6364 10.109 26.5126 9.90275C27.214 9.67584 27.9566 9.49018 28.3898 9.11887C28.1629 9.11887 27.936 9.18075 27.6266 8.95384C28.2454 8.62378 28.9055 8.35561 29.4212 7.8399C29.0912 7.8399 28.7611 7.83989 28.658 7.71612C29.2356 7.36544 29.71 6.9735 30.102 6.5403C29.6482 6.60218 29.4625 6.5403 29.3594 6.47841C29.7926 6.04521 30.3289 5.67389 30.5971 5.11692C30.267 5.24069 29.9576 5.28195 29.7307 5.11692C29.8751 4.78687 30.4939 4.60121 30.8652 3.81733C30.5146 3.85858 30.1432 3.89984 30.0607 3.81733C30.2258 3.15721 30.4939 2.7859 30.7827 2.39396C30.0401 2.37333 28.8849 2.39395 28.9468 2.33207L29.4212 1.85761C28.6786 1.65133 27.936 1.89887 27.379 2.0639C27.1315 1.87824 27.379 1.6307 27.6884 1.38316C27.0696 1.46567 26.492 1.61007 25.9969 1.81635C25.7287 1.56881 26.1826 1.32127 26.3888 1.07373C25.4193 1.25939 25.0067 1.50693 24.6148 1.7751C24.326 1.4863 24.5942 1.25938 24.8004 1.01184C24.0784 1.28001 23.7071 1.6307 23.2946 1.98139C23.1708 1.79573 22.9645 1.67196 23.212 1.23876C22.6963 1.52756 22.3044 1.87824 22.0156 2.27018C21.6855 2.0639 21.8299 1.79573 21.8299 1.52755C21.2936 1.96075 20.9429 2.43521 20.5303 2.88904C20.4478 2.82716 20.3653 2.62087 20.3034 2.29081C19.0244 3.52853 17.2091 6.66407 19.829 7.90178C22.0362 6.04521 24.7179 4.72498 27.6678 3.71418Z" fill="#75A928"/>
<path d="M22.1806 29.0049C22.2012 31.3153 20.159 33.2131 17.6423 33.2131C15.1256 33.2337 13.0834 31.3565 13.0627 29.0461C13.0627 29.0255 13.0627 29.0255 13.0627 29.0049C13.0421 26.6945 15.0843 24.7966 17.601 24.7966C20.1177 24.776 22.1599 26.6532 22.1806 28.9636V29.0049ZM15.0018 17.0197C16.879 18.2574 17.2297 21.0629 15.7651 23.2701C14.3004 25.498 11.5775 26.2819 9.70028 25.0442C7.82308 23.8065 7.47239 21.001 8.93702 18.7937C10.4017 16.5658 13.104 15.782 15.0018 17.0197ZM20.0971 16.7928C18.2199 18.0305 17.8692 20.836 19.3338 23.0432C20.7984 25.2711 23.5214 26.055 25.3986 24.8173C27.2758 23.5796 27.6265 20.7741 26.1619 18.5668C24.6972 16.3596 21.9743 15.555 20.0971 16.7928ZM5.57457 19.0206C7.61679 18.4843 6.25531 27.4371 4.60502 26.7151C2.76908 25.2505 2.19148 20.9597 5.57457 19.0206ZM29.1118 18.9175C27.0695 18.3812 28.431 27.334 30.0813 26.612C31.8966 25.1473 32.4948 20.8566 29.1118 18.9175ZM22.1806 12.2338C25.6874 11.6356 28.6167 13.7191 28.4929 17.5354C28.3898 19 20.9016 12.4608 22.1806 12.2338ZM12.4645 12.1307C8.95765 11.5325 6.02839 13.616 6.15217 17.4322C6.27594 18.8969 13.7641 12.3576 12.4645 12.1307ZM17.5185 11.2437C15.4144 11.1818 13.4134 12.7908 13.3928 13.7397C13.3928 14.8743 15.0431 16.0295 17.5185 16.0708C20.0352 16.0914 21.6442 15.1425 21.6648 13.9667C21.6855 12.6258 19.3751 11.223 17.5185 11.2437ZM17.6423 34.5127C19.4782 34.4302 21.933 35.1109 21.933 35.998C21.9536 36.8644 19.7051 38.8034 17.5185 38.7622C15.2494 38.8653 13.0421 36.9056 13.0627 36.2455C13.0421 35.2347 15.827 34.4714 17.6423 34.5127ZM10.8967 29.2524C12.1963 30.8202 12.7946 33.5638 11.7012 34.3889C10.6698 35.0078 8.17377 34.7602 6.39971 32.2023C5.20325 30.0569 5.34765 27.8909 6.19342 27.2514C7.45177 26.4882 9.39085 27.5196 10.8967 29.2524ZM24.1403 28.7573C22.7375 30.4076 21.9536 33.4194 22.9644 34.3889C23.9546 35.1316 26.5951 35.0284 28.5342 32.3261C29.9575 30.5108 29.4831 27.4784 28.6579 26.6738C27.4821 25.7662 25.7699 26.942 24.1403 28.7573Z" fill="#BC1142"/>
</svg>
